<?xml version="1.0" encoding="UTF-8"?>
<svg id="Layer_2" data-name="Layer 2" xmlns="http://www.w3.org/2000/svg" viewBox="0 0 743 506">
  <defs>
    <style>
      .cls-1 {
        fill: #ebe2e4;
      }

      .cls-2, .cls-3 {
        stroke: #ebe2e4;
        stroke-miterlimit: 10;
      }

      .cls-2, .cls-4 {
        fill: #c07c65;
      }

      .cls-3 {
        fill: none;
        stroke-linecap: round;
        stroke-width: 2px;
      }

      .cls-4 {
        opacity: .2;
      }
    </style>
  </defs>
  <g id="Layer_2-2" data-name="Layer 2">
    <rect id="Rectangle_38" data-name="Rectangle 38" class="cls-1" width="743" height="506"/>
    <rect class="cls-4" y="405" width="743" height="101"/>
  </g>
  <g id="Layer_3" data-name="Layer 3">
    <path class="cls-2" d="M347.96,179.62c-1.05,1.2-9.53-7.96-23.17-11.59-4.08-1.08-17.29-4.59-29.54,2.32-14.34,8.08-17.33,24.75-17.96,30.12-1.66,14.19,4.28,25.58,7.53,30.7,10.05,15.84,23.09,16.87,67.77,36.49,24.3,10.67,36.43,16.05,46.34,23.17,22.75,16.36,30.45,31.32,37.56,28.66,5.28-1.97,6.31-12.18,5.3-46.62-1.36-46.41-2.14-70.02-8.11-89.79-7.26-24.04-13.58-44.94-33.6-57.35-5.39-3.34-25.46-14.54-44.6-6.37-2.44,1.04-17.02,7.58-20.85,22.01-1.8,6.78-.54,12.68,0,15.06,1.74,7.71,6.27,13.76,8.29,16.49,3.09,4.2,5.45,6.19,5.03,6.68Z"/>
    <path class="cls-3" d="M347,179c17.9,16.18,31.13,31.45,40.31,43.11,12.66,16.1,26.8,34.35,37.89,61.72,6.56,16.18,9.95,30.35,11.8,40.17"/>
  </g>
</svg>