<?xml version="1.0" encoding="UTF-8"?>
<svg id="Layer_2" data-name="Layer 2" xmlns="http://www.w3.org/2000/svg" viewBox="0 0 743 506">
  <defs>
    <style>
      .cls-1 {
        fill: #d9c19d;
      }

      .cls-2 {
        fill: #7484b2;
      }

      .cls-3 {
        fill: #f2ebdc;
        isolation: isolate;
        opacity: .6;
      }
    </style>
  </defs>
  <g id="Layer_1-2" data-name="Layer 1">
    <g id="Layer_2-2" data-name="Layer 2">
      <rect id="Rectangle_38" data-name="Rectangle 38" class="cls-1" width="743" height="506"/>
      <rect id="Rectangle_39" data-name="Rectangle 39" class="cls-3" y="405" width="743" height="101"/>
    </g>
    <g id="Layer_1-3" data-name="Layer 1">
      <g id="Group_27" data-name="Group 27">
        <path id="Path_19" data-name="Path 19" class="cls-2" d="M307.59,168.92c-5.06,2.42-11.31,5.5-18.44,9.22-5.06,3.07-9.88,6.54-14.4,10.37-2.32,1.89-4.45,4.02-6.34,6.34-2.23,2.55-3.99,5.47-5.19,8.64-.89,2.5-2.28,6.44-1.15,10.37,1.6,5.59,7.47,8.23,10.95,9.8,9.06,4.07,18.03,2.87,26.5,1.73,3.7-.51,7.36-1.28,10.95-2.3,5.56-1.57,8.34-2.36,10.95-4.03,3.63-2.33,5.02-4.58,6.91-4.03,1.82,.53,1.63,2.92,4.03,4.61,.52,.37,2.19,1.42,6.34,1.15,3.12-.2,6.42-1.08,13.54-4.9,6.18-3.32,5.95-3.87,12.39-7.2,3.74-1.93,4.13-1.95,8.07-4.03,1.39-.73,3.73-2,6.91-3.46,4.59-2.11,5.32-2.05,5.76-1.73,.79,.58,.71,2.05-.58,8.07-.84,3.91-1.56,6.81-1.73,7.49-1.31,5.31-2.27,10.7-2.88,16.13-.36,3.28-.51,6.03-.58,8.07-.06,1.69-.04,3.26,0,6.34,.1,8.53,.33,9.13,.86,9.51,2.02,1.44,7.31-.98,10.08-4.9,1.42-2,1.55-3.43,2.88-12.1,.75-4.9,.32-1.48,1.73-10.37,.8-5.02,1.98-9.98,2.88-14.98,.64-3.55,1.02-5.91,2.88-6.91,1.13-.61,1.72-.13,5.19,0,2.89,.23,5.8,.04,8.64-.58,3.06-.77,4.11-1.83,5.19-1.15,.97,.61,.8,1.89,1.15,4.61,.38,2.92,.86,6.66,2.88,9.22,1.53,1.93,3.5,2.64,5.76,3.46,3.33,1.13,6.87,1.53,10.37,1.15,.49-.03,1.09-.08,1.84-.15,5.2-.58,10.36-1.49,15.45-2.73,7.25-1.88,14.3-4.49,21.03-7.78,.78-.32,1.41-.95,1.73-1.73,.05-.17,.25-.82,0-1.15-.69-.91-4.28,1.23-9.22,2.88-2.9,.97-5.89,1.65-8.93,2.02-3.26,.34-6.54,.34-9.8,0-3.83-.3-5.75-.43-7.49-1.15-1.28-.53-6.21-2.59-7.2-7.2-.79-3.67,1.38-6.84,2.02-7.78,1.48-1.98,3.34-3.64,5.47-4.9,2.67-1.7,4.47-2.08,4.9-3.75,.25-1.13-.07-2.32-.86-3.17-2.68-2.74-10.2,.62-12.68,1.73-2.56,1.15-4.98,2.6-7.2,4.32-.77,.6-1.78,1.57-2.9,2.58-3.01,2.73-3.07,2.96-3.73,3.47-3.94,3.1-10.01,1.65-12.1,1.15-2.51-.6-5.75-1.37-6.63-3.75-.41-1.11-.11-2.06,.86-4.9,1.84-5.37,2.77-8.06,3.17-8.93,1.39-3,1.45-2.43,5.19-9.22,4.47-8.13,3.19-6.34,4.61-8.64,2.09-3.39,3.44-4.97,2.88-5.76-.63-.89-3.2-.06-5.19,.58-4.32,1.4-8.26,3.76-11.52,6.91-1.26,1.25-2.41,2.6-3.46,4.03-1.83,2.51-3.38,5.22-4.61,8.07-2.91,6.23-4.37,9.35-6.34,12.1,0,0-5.21,7.27-13.25,9.8-1.29,.53-2.74,.53-4.03,0-1.11-.63-1.93-1.66-2.3-2.88-.62-2.17,.8-3.35,0-4.61-.67-1.07-2.34-1.32-3.46-1.15-1.26,.19-1.74,.9-3.75,2.59-.27,.23-1.72,1.3-4.61,3.46-3.55,2.64-3.99,2.83-4.32,3.75-.45,1.22-.03,1.7-.58,4.03-.27,1.17-.53,2.26-1.35,2.68-1.08,.55-2.77-.28-3.72-1.24-2.26-2.3-1.93-7.01-.12-10.08,1.05-1.79,2.64-3.1,5.19-5.19,1.61-1.33,2.42-1.99,2.88-2.3,1.87-1.29,2.91-1.63,3.46-2.88,.3-.69,.52-1.79,0-2.3s-1.63-.22-2.3,0c-7.35,2.4-14.4,8.07-14.4,8.07-4.71,3.78-7.06,5.67-8.07,6.91-2.42,2.99-5.14,6.36-6.34,10.37-.2,.84-.6,1.63-1.15,2.3-1.6,1.82-4.18,1.96-5.47,2.02-12.7,.53-19.16,.79-24.2,0-6.88-1.07-8.55-1.99-9.51-2.59-.6-.38-6.99-4.56-7.2-10.66-.17-4.95,3.92-8.49,12.1-15.56,4.44-3.72,9.16-7.09,14.12-10.08,1.61-1.01,3.38-2.02,6.91-4.03q.15-.09,7.78-3.75c1.22-.58,3.52-1.69,5.47-.86,.28,.1,.54,.25,.76,.46,1.14,1.18-.35,3.09,.4,5.3,.37,1.25,1.34,2.22,2.59,2.59,1.82,.34,3.37-1.56,3.75-2.02,1.35-1.59,1.79-3.77,1.15-5.76-.67-1.55-1.91-2.79-3.46-3.46-5.13-2.56-13.12,.77-24.78,6.34l.02-.03Z"/>
        <path id="Path_20" data-name="Path 20" class="cls-2" d="M454.81,164.02c2.52-1.28,1.93-1.32,4.03-2.3,2.56-1.17,5.28-1.95,8.07-2.3,4.18-.69,5.05-.15,5.47,.29,.59,.61,.81,1.48,.58,2.3-.18,.53-.65,1.06-3.75,2.02-1.98,.61-4,1.09-6.05,1.44-1.91,.34-1.96,.28-3.46,.58-1.56,.27-3.1,.65-4.61,1.15-1.8,.64-5.32,2.17-7.49,2.88-.27,.09-.87,.28-1.15,0s-.07-.95,0-1.15c.64-1.88,4.27-2.82,8.35-4.9h0Z"/>
      </g>
    </g>
  </g>
</svg>