<svg xmlns="http://www.w3.org/2000/svg" xmlns:xlink="http://www.w3.org/1999/xlink" width="868" height="868" viewBox="0 0 868 868">
  <defs>
    <clipPath id="clip-path">
      <rect id="Rectangle_54" data-name="Rectangle 54" width="868" height="868" transform="translate(15315 9743)" fill="#fff" stroke="#707070" stroke-width="1"/>
    </clipPath>
  </defs>
  <g id="Mask_Group_3" data-name="Mask Group 3" transform="translate(-15315 -9743)" clip-path="url(#clip-path)">
    <g id="Cafe1" transform="translate(14959.615 9743)">
      <g id="Layer_2">
        <rect id="Rectangle_38" width="1600" height="1090" transform="translate(0.385)" fill="#d9c19d"/>
        <rect id="Rectangle_39" data-name="Rectangle 39" width="1600" height="218" transform="translate(0.385 872)" fill="#f2ebdc" opacity="0.6"/>
      </g>
      <g id="Layer_1" transform="translate(563.546 339.449)">
        <g id="Group_27" data-name="Group 27">
          <path id="Path_19" data-name="Path 19" d="M360.6,181.98c-10.9,5.212-24.36,11.846-39.717,19.858a242.905,242.905,0,0,0-31.015,22.335,95.978,95.978,0,0,0-13.655,13.655c-3.855,4.782-8.249,10.36-11.178,18.609-1.917,5.385-4.911,13.871-2.477,22.335,3.446,12.04,16.089,17.726,23.585,21.108,19.514,8.766,38.834,6.182,57.077,3.726a173.988,173.988,0,0,0,23.585-4.954c11.975-3.382,17.963-5.083,23.585-8.68,7.818-5.018,10.812-9.865,14.883-8.68,3.92,1.142,3.511,6.289,8.68,9.929,1.12.8,4.717,3.058,13.655,2.477,6.72-.431,13.828-2.326,29.163-10.554,13.311-7.151,12.815-8.335,26.686-15.508,8.055-4.157,8.9-4.2,17.382-8.68,2.994-1.572,8.034-4.308,14.883-7.452,9.886-4.545,11.458-4.415,12.406-3.726,1.7,1.249,1.529,4.415-1.249,17.382-1.809,8.422-3.36,14.668-3.726,16.132a272.88,272.88,0,0,0-6.2,34.742c-.775,7.065-1.1,12.988-1.249,17.381-.129,3.64-.086,7.022,0,13.655.215,18.372.711,19.665,1.852,20.483,4.351,3.1,15.745-2.111,21.711-10.554,3.058-4.308,3.338-7.388,6.2-26.062,1.615-10.554.689-3.188,3.726-22.335,1.723-10.812,4.265-21.5,6.2-32.265,1.379-7.646,2.2-12.729,6.2-14.883,2.434-1.314,3.7-.28,11.178,0,5.643.215,11.846.452,18.609-1.249,6.591-1.658,8.852-3.942,11.178-2.477,2.089,1.314,1.723,4.071,2.477,9.929.818,6.289,1.852,14.345,6.2,19.858,3.3,4.157,7.538,5.686,12.406,7.452,8.788,3.166,16.5,2.886,22.335,2.477,1.055-.065,2.348-.172,3.963-.323,15.228-1.422,32.394-5.665,33.277-5.88a241.788,241.788,0,0,0,45.3-16.757c.969-.474,3.08-1.615,3.726-3.726.108-.366.538-1.766,0-2.477-1.486-1.96-9.219,2.649-19.859,6.2a97.757,97.757,0,0,1-19.234,4.351,102.52,102.52,0,0,1-21.108,0c-8.249-.646-12.385-.926-16.132-2.477-2.757-1.142-13.375-5.578-15.508-15.508-1.7-7.9,2.972-14.732,4.351-16.757,3.6-5.255,8.96-8.745,11.782-10.554,5.751-3.662,9.628-4.48,10.554-8.077a7.664,7.664,0,0,0-1.852-6.828c-5.772-5.9-21.969,1.335-27.311,3.726a76.231,76.231,0,0,0-15.508,9.3c-1.658,1.292-3.834,3.382-6.246,5.557-6.483,5.88-6.612,6.375-8.034,7.474-8.486,6.677-21.56,3.554-26.062,2.477-5.406-1.292-12.385-2.951-14.28-8.077-.883-2.391-.237-4.437,1.852-10.554,3.963-11.566,5.966-17.36,6.828-19.234,2.994-6.462,3.123-5.234,11.178-19.858,9.628-17.511,6.871-13.655,9.929-18.609,4.5-7.3,7.409-10.7,6.2-12.406-1.357-1.917-6.892-.129-11.178,1.249A64.157,64.157,0,0,0,567.8,174.571a72.486,72.486,0,0,0-7.452,8.68,90.093,90.093,0,0,0-9.929,17.382c-6.268,13.418-9.412,20.138-13.655,26.062,0,0-11.222,15.658-28.538,21.108-3.1.969-6.052,1.314-8.68,0a10.668,10.668,0,0,1-4.954-6.2c-1.335-4.674,1.723-7.215,0-9.929-1.443-2.3-5.04-2.843-7.452-2.477-2.714.409-3.748,1.938-8.077,5.578-.582.5-3.7,2.8-9.929,7.452-7.646,5.686-8.594,6.1-9.3,8.077-.969,2.628-.065,3.662-1.249,8.68-.582,2.52-1.142,4.868-2.908,5.772-2.326,1.185-5.966-.6-8.012-2.671-4.868-4.954-4.157-15.1-.258-21.711,2.262-3.855,5.686-6.677,11.178-11.178,3.468-2.865,5.212-4.286,6.2-4.954,4.028-2.778,6.268-3.511,7.452-6.2.646-1.486,1.12-3.855,0-4.954-1.142-1.12-3.511-.474-4.954,0-15.831,5.169-31.015,17.382-31.015,17.382-10.145,8.142-15.206,12.212-17.382,14.883-5.212,6.44-11.071,13.7-13.655,22.335a12.177,12.177,0,0,1-2.477,4.954c-3.446,3.92-9,4.222-11.782,4.351-27.354,1.142-41.268,1.7-52.123,0-14.818-2.3-18.415-4.286-20.483-5.578-1.292-.818-15.055-9.822-15.508-22.96-.366-10.662,8.443-18.286,26.062-33.514,10.92-9.434,21.581-16.154,30.412-21.711,3.468-2.175,7.28-4.351,14.883-8.68.323-.194.3-.172,16.757-8.077,2.628-1.249,7.581-3.64,11.782-1.852a4.459,4.459,0,0,1,1.637.991c2.455,2.542-.754,6.655.862,11.415.775,2.3,2.8,5.062,5.578,5.578,3.92.732,7.258-3.36,8.077-4.351,2.563-3.145,4.114-8.034,2.477-12.406-1.7-4.588-5.988-6.72-7.452-7.452-11.049-5.514-28.258,1.658-53.372,13.655Z" transform="translate(-261.646 -157.601)" fill="#7484b2"/>
          <path id="Path_20" data-name="Path 20" d="M464.625,169.708c5.428-2.757,4.157-2.843,8.68-4.954,6.763-3.166,11.954-4.071,17.382-4.954,9-1.486,10.877-.323,11.782.625a5.165,5.165,0,0,1,1.249,4.954c-.388,1.142-1.4,2.283-8.077,4.351a105.984,105.984,0,0,1-13.031,3.1c-4.114.732-4.221.6-7.452,1.249a68.243,68.243,0,0,0-9.929,2.477c-3.877,1.378-11.458,4.674-16.132,6.2-.581.194-1.874.6-2.477,0-.625-.625-.151-2.046,0-2.477,1.378-4.049,9.2-6.074,17.985-10.554Z" transform="translate(-48.58 -155.883)" fill="#7484b2"/>
        </g>
      </g>
    </g>
  </g>
</svg>
