<svg xmlns="http://www.w3.org/2000/svg" xmlns:xlink="http://www.w3.org/1999/xlink" width="1920" height="858" viewBox="0 0 1920 858">
  <defs>
    <clipPath id="clip-path">
      <rect id="Rectangle_73" data-name="Rectangle 73" width="1920" height="858" transform="translate(0 111)" fill="#fff" stroke="#707070" stroke-width="1"/>
    </clipPath>
    <clipPath id="clip-path-2">
      <rect id="Rectangle_41" data-name="Rectangle 41" width="1920" height="1080" transform="translate(1)" fill="none"/>
    </clipPath>
  </defs>
  <g id="Mask_Group_7" data-name="Mask Group 7" transform="translate(0 -111)" clip-path="url(#clip-path)">
    <g id="prikker1">
      <g id="Layer_1">
        <rect id="Rectangle_40" data-name="Rectangle 40" width="1920" height="1080" fill="#ebe2e4"/>
      </g>
      <g id="Layer_2">
        <g id="Group_29" data-name="Group 29" opacity="0.4">
          <g id="Group_28" data-name="Group 28" clip-path="url(#clip-path-2)">
            <circle id="Ellipse_1" data-name="Ellipse 1" cx="107.1" cy="107.1" r="107.1" transform="translate(-110 -102.4)" fill="#c07c65" opacity="0.6"/>
            <circle id="Ellipse_2" data-name="Ellipse 2" cx="107.1" cy="107.1" r="107.1" transform="translate(104.2 -102.4)" fill="#c07c65" opacity="0.6"/>
            <circle id="Ellipse_3" data-name="Ellipse 3" cx="107.1" cy="107.1" r="107.1" transform="translate(318.4 -102.4)" fill="#c07c65" opacity="0.6"/>
            <circle id="Ellipse_4" data-name="Ellipse 4" cx="107.1" cy="107.1" r="107.1" transform="translate(532.6 -102.4)" fill="#c07c65" opacity="0.6"/>
            <circle id="Ellipse_5" data-name="Ellipse 5" cx="107.1" cy="107.1" r="107.1" transform="translate(746.8 -102.4)" fill="#c07c65" opacity="0.6"/>
            <circle id="Ellipse_6" data-name="Ellipse 6" cx="107.1" cy="107.1" r="107.1" transform="translate(961 -102.4)" fill="#c07c65" opacity="0.6"/>
            <circle id="Ellipse_7" data-name="Ellipse 7" cx="107.1" cy="107.1" r="107.1" transform="translate(1175.2 -102.4)" fill="#c07c65" opacity="0.6"/>
            <circle id="Ellipse_8" data-name="Ellipse 8" cx="107.1" cy="107.1" r="107.1" transform="translate(1389.4 -102.4)" fill="#c07c65" opacity="0.6"/>
            <circle id="Ellipse_9" data-name="Ellipse 9" cx="107.1" cy="107.1" r="107.1" transform="translate(1603.6 -102.4)" fill="#c07c65" opacity="0.6"/>
            <circle id="Ellipse_10" data-name="Ellipse 10" cx="107.1" cy="107.1" r="107.1" transform="translate(1817.8 -102.4)" fill="#c07c65" opacity="0.6"/>
            <circle id="Ellipse_11" data-name="Ellipse 11" cx="107.1" cy="107.1" r="107.1" transform="translate(-110 111.8)" fill="#c07c65" opacity="0.6"/>
            <circle id="Ellipse_12" data-name="Ellipse 12" cx="107.1" cy="107.1" r="107.1" transform="translate(104.2 111.8)" fill="#c07c65" opacity="0.6"/>
            <circle id="Ellipse_13" data-name="Ellipse 13" cx="107.1" cy="107.1" r="107.1" transform="translate(318.4 111.8)" fill="#c07c65" opacity="0.6"/>
            <circle id="Ellipse_14" data-name="Ellipse 14" cx="107.1" cy="107.1" r="107.1" transform="translate(532.6 111.8)" fill="#c07c65" opacity="0.6"/>
            <circle id="Ellipse_15" data-name="Ellipse 15" cx="107.1" cy="107.1" r="107.1" transform="translate(746.8 111.8)" fill="#c07c65" opacity="0.6"/>
            <circle id="Ellipse_16" data-name="Ellipse 16" cx="107.1" cy="107.1" r="107.1" transform="translate(961 111.8)" fill="#c07c65" opacity="0.6"/>
            <circle id="Ellipse_17" data-name="Ellipse 17" cx="107.1" cy="107.1" r="107.1" transform="translate(1175.2 111.8)" fill="#c07c65" opacity="0.6"/>
            <circle id="Ellipse_18" data-name="Ellipse 18" cx="107.1" cy="107.1" r="107.1" transform="translate(1389.4 111.8)" fill="#c07c65" opacity="0.6"/>
            <circle id="Ellipse_19" data-name="Ellipse 19" cx="107.1" cy="107.1" r="107.1" transform="translate(1603.6 111.8)" fill="#c07c65" opacity="0.6"/>
            <circle id="Ellipse_20" data-name="Ellipse 20" cx="107.1" cy="107.1" r="107.1" transform="translate(1817.8 111.8)" fill="#c07c65" opacity="0.6"/>
            <circle id="Ellipse_21" data-name="Ellipse 21" cx="107.1" cy="107.1" r="107.1" transform="translate(-110 326)" fill="#c07c65" opacity="0.6"/>
            <circle id="Ellipse_22" data-name="Ellipse 22" cx="107.1" cy="107.1" r="107.1" transform="translate(104.2 326)" fill="#c07c65" opacity="0.6"/>
            <circle id="Ellipse_23" data-name="Ellipse 23" cx="107.1" cy="107.1" r="107.1" transform="translate(318.4 326)" fill="#c07c65" opacity="0.6"/>
            <circle id="Ellipse_24" data-name="Ellipse 24" cx="107.1" cy="107.1" r="107.1" transform="translate(532.6 326)" fill="#c07c65" opacity="0.6"/>
            <circle id="Ellipse_25" data-name="Ellipse 25" cx="107.1" cy="107.1" r="107.1" transform="translate(746.8 326)" fill="#c07c65" opacity="0.6"/>
            <circle id="Ellipse_26" data-name="Ellipse 26" cx="107.1" cy="107.1" r="107.1" transform="translate(961 326)" fill="#c07c65" opacity="0.6"/>
            <circle id="Ellipse_27" data-name="Ellipse 27" cx="107.1" cy="107.1" r="107.1" transform="translate(1175.2 326)" fill="#c07c65" opacity="0.6"/>
            <circle id="Ellipse_28" data-name="Ellipse 28" cx="107.1" cy="107.1" r="107.1" transform="translate(1389.4 326)" fill="#c07c65" opacity="0.6"/>
            <circle id="Ellipse_29" data-name="Ellipse 29" cx="107.1" cy="107.1" r="107.1" transform="translate(1603.6 326)" fill="#c07c65" opacity="0.6"/>
            <circle id="Ellipse_30" data-name="Ellipse 30" cx="107.1" cy="107.1" r="107.1" transform="translate(1817.8 326)" fill="#c07c65" opacity="0.6"/>
            <circle id="Ellipse_31" data-name="Ellipse 31" cx="107.1" cy="107.1" r="107.1" transform="translate(-110 540.2)" fill="#c07c65" opacity="0.6"/>
            <circle id="Ellipse_32" data-name="Ellipse 32" cx="107.1" cy="107.1" r="107.1" transform="translate(104.2 540.2)" fill="#c07c65" opacity="0.6"/>
            <circle id="Ellipse_33" data-name="Ellipse 33" cx="107.1" cy="107.1" r="107.1" transform="translate(318.4 540.2)" fill="#c07c65" opacity="0.6"/>
            <circle id="Ellipse_34" data-name="Ellipse 34" cx="107.1" cy="107.1" r="107.1" transform="translate(532.6 540.2)" fill="#c07c65" opacity="0.6"/>
            <circle id="Ellipse_35" data-name="Ellipse 35" cx="107.1" cy="107.1" r="107.1" transform="translate(746.8 540.2)" fill="#c07c65" opacity="0.6"/>
            <circle id="Ellipse_36" data-name="Ellipse 36" cx="107.1" cy="107.1" r="107.1" transform="translate(961 540.2)" fill="#c07c65" opacity="0.6"/>
            <circle id="Ellipse_37" data-name="Ellipse 37" cx="107.1" cy="107.1" r="107.1" transform="translate(1175.2 540.2)" fill="#c07c65" opacity="0.6"/>
            <circle id="Ellipse_38" data-name="Ellipse 38" cx="107.1" cy="107.1" r="107.1" transform="translate(1389.4 540.2)" fill="#c07c65" opacity="0.6"/>
            <circle id="Ellipse_39" data-name="Ellipse 39" cx="107.1" cy="107.1" r="107.1" transform="translate(1603.6 540.2)" fill="#c07c65" opacity="0.6"/>
            <circle id="Ellipse_40" data-name="Ellipse 40" cx="107.1" cy="107.1" r="107.1" transform="translate(1817.8 540.2)" fill="#c07c65" opacity="0.6"/>
            <circle id="Ellipse_41" data-name="Ellipse 41" cx="107.1" cy="107.1" r="107.1" transform="translate(-110 754.4)" fill="#c07c65" opacity="0.6"/>
            <circle id="Ellipse_42" data-name="Ellipse 42" cx="107.1" cy="107.1" r="107.1" transform="translate(104.2 754.4)" fill="#c07c65" opacity="0.6"/>
            <circle id="Ellipse_43" data-name="Ellipse 43" cx="107.1" cy="107.1" r="107.1" transform="translate(318.4 754.4)" fill="#c07c65" opacity="0.6"/>
            <circle id="Ellipse_44" data-name="Ellipse 44" cx="107.1" cy="107.1" r="107.1" transform="translate(532.6 754.4)" fill="#c07c65" opacity="0.6"/>
            <circle id="Ellipse_45" data-name="Ellipse 45" cx="107.1" cy="107.1" r="107.1" transform="translate(746.8 754.4)" fill="#c07c65" opacity="0.6"/>
            <circle id="Ellipse_46" data-name="Ellipse 46" cx="107.1" cy="107.1" r="107.1" transform="translate(961 754.4)" fill="#c07c65" opacity="0.6"/>
            <circle id="Ellipse_47" data-name="Ellipse 47" cx="107.1" cy="107.1" r="107.1" transform="translate(1175.2 754.4)" fill="#c07c65" opacity="0.6"/>
            <circle id="Ellipse_48" data-name="Ellipse 48" cx="107.1" cy="107.1" r="107.1" transform="translate(1389.4 754.4)" fill="#c07c65" opacity="0.6"/>
            <circle id="Ellipse_49" data-name="Ellipse 49" cx="107.1" cy="107.1" r="107.1" transform="translate(1603.6 754.4)" fill="#c07c65" opacity="0.6"/>
            <circle id="Ellipse_50" data-name="Ellipse 50" cx="107.1" cy="107.1" r="107.1" transform="translate(1817.8 754.4)" fill="#c07c65" opacity="0.6"/>
            <circle id="Ellipse_51" data-name="Ellipse 51" cx="107.1" cy="107.1" r="107.1" transform="translate(-110 968.6)" fill="#c07c65" opacity="0.6"/>
            <circle id="Ellipse_52" data-name="Ellipse 52" cx="107.1" cy="107.1" r="107.1" transform="translate(104.2 968.6)" fill="#c07c65" opacity="0.6"/>
            <circle id="Ellipse_53" data-name="Ellipse 53" cx="107.1" cy="107.1" r="107.1" transform="translate(318.4 968.6)" fill="#c07c65" opacity="0.6"/>
            <circle id="Ellipse_54" data-name="Ellipse 54" cx="107.1" cy="107.1" r="107.1" transform="translate(532.6 968.6)" fill="#c07c65" opacity="0.6"/>
            <circle id="Ellipse_55" data-name="Ellipse 55" cx="107.1" cy="107.1" r="107.1" transform="translate(746.8 968.6)" fill="#c07c65" opacity="0.6"/>
            <circle id="Ellipse_56" data-name="Ellipse 56" cx="107.1" cy="107.1" r="107.1" transform="translate(961 968.6)" fill="#c07c65" opacity="0.6"/>
            <circle id="Ellipse_57" data-name="Ellipse 57" cx="107.1" cy="107.1" r="107.1" transform="translate(1175.2 968.6)" fill="#c07c65" opacity="0.6"/>
            <circle id="Ellipse_58" data-name="Ellipse 58" cx="107.1" cy="107.1" r="107.1" transform="translate(1389.4 968.6)" fill="#c07c65" opacity="0.6"/>
            <circle id="Ellipse_59" data-name="Ellipse 59" cx="107.1" cy="107.1" r="107.1" transform="translate(1603.6 968.6)" fill="#c07c65" opacity="0.6"/>
            <circle id="Ellipse_60" data-name="Ellipse 60" cx="107.1" cy="107.1" r="107.1" transform="translate(1817.8 968.6)" fill="#c07c65" opacity="0.6"/>
          </g>
        </g>
      </g>
    </g>
  </g>
</svg>
