<svg xmlns="http://www.w3.org/2000/svg" xmlns:xlink="http://www.w3.org/1999/xlink" width="390" height="507" viewBox="0 0 390 507">
  <defs>
    <clipPath id="clip-path">
      <rect id="Rectangle_74" data-name="Rectangle 74" width="390" height="507" transform="translate(0 64)" fill="#fff" stroke="#707070" stroke-width="1"/>
    </clipPath>
    <clipPath id="clip-path-2">
      <rect id="Rectangle_41" data-name="Rectangle 41" width="904" height="507" fill="none"/>
    </clipPath>
  </defs>
  <g id="Mask_Group_8" data-name="Mask Group 8" transform="translate(0 -64)" clip-path="url(#clip-path)">
    <g id="prikker1" transform="translate(0 64)">
      <g id="Layer_1" transform="translate(0)">
        <rect id="Rectangle_40" data-name="Rectangle 40" width="904" height="507" transform="translate(0)" fill="#ebe2e4"/>
      </g>
      <g id="Layer_2" transform="translate(0)">
        <g id="Group_29" data-name="Group 29" opacity="0.4">
          <g id="Group_28" data-name="Group 28" clip-path="url(#clip-path-2)">
            <circle id="Ellipse_1" data-name="Ellipse 1" cx="50.4" cy="50.4" r="50.4" transform="translate(-51.764 -48.188)" fill="#c07c65" opacity="0.6"/>
            <circle id="Ellipse_2" data-name="Ellipse 2" cx="50.4" cy="50.4" r="50.4" transform="translate(49.035 -48.188)" fill="#c07c65" opacity="0.6"/>
            <circle id="Ellipse_3" data-name="Ellipse 3" cx="50.4" cy="50.4" r="50.4" transform="translate(149.835 -48.188)" fill="#c07c65" opacity="0.6"/>
            <circle id="Ellipse_4" data-name="Ellipse 4" cx="50.4" cy="50.4" r="50.4" transform="translate(250.634 -48.188)" fill="#c07c65" opacity="0.6"/>
            <circle id="Ellipse_5" data-name="Ellipse 5" cx="50.4" cy="50.4" r="50.4" transform="translate(351.433 -48.188)" fill="#c07c65" opacity="0.6"/>
            <circle id="Ellipse_6" data-name="Ellipse 6" cx="50.4" cy="50.4" r="50.4" transform="translate(452.232 -48.188)" fill="#c07c65" opacity="0.6"/>
            <circle id="Ellipse_7" data-name="Ellipse 7" cx="50.4" cy="50.4" r="50.4" transform="translate(553.032 -48.188)" fill="#c07c65" opacity="0.6"/>
            <circle id="Ellipse_8" data-name="Ellipse 8" cx="50.4" cy="50.4" r="50.4" transform="translate(653.831 -48.188)" fill="#c07c65" opacity="0.6"/>
            <circle id="Ellipse_9" data-name="Ellipse 9" cx="50.4" cy="50.4" r="50.4" transform="translate(754.63 -48.188)" fill="#c07c65" opacity="0.6"/>
            <circle id="Ellipse_10" data-name="Ellipse 10" cx="50.4" cy="50.4" r="50.4" transform="translate(855.43 -48.188)" fill="#c07c65" opacity="0.6"/>
            <circle id="Ellipse_11" data-name="Ellipse 11" cx="50.4" cy="50.4" r="50.4" transform="translate(-51.764 52.611)" fill="#c07c65" opacity="0.6"/>
            <circle id="Ellipse_12" data-name="Ellipse 12" cx="50.4" cy="50.4" r="50.4" transform="translate(49.035 52.611)" fill="#c07c65" opacity="0.6"/>
            <circle id="Ellipse_13" data-name="Ellipse 13" cx="50.4" cy="50.4" r="50.4" transform="translate(149.835 52.611)" fill="#c07c65" opacity="0.6"/>
            <circle id="Ellipse_14" data-name="Ellipse 14" cx="50.4" cy="50.4" r="50.4" transform="translate(250.634 52.611)" fill="#c07c65" opacity="0.6"/>
            <circle id="Ellipse_15" data-name="Ellipse 15" cx="50.4" cy="50.4" r="50.4" transform="translate(351.433 52.611)" fill="#c07c65" opacity="0.6"/>
            <circle id="Ellipse_16" data-name="Ellipse 16" cx="50.4" cy="50.4" r="50.4" transform="translate(452.232 52.611)" fill="#c07c65" opacity="0.6"/>
            <circle id="Ellipse_17" data-name="Ellipse 17" cx="50.4" cy="50.4" r="50.4" transform="translate(553.032 52.611)" fill="#c07c65" opacity="0.6"/>
            <circle id="Ellipse_18" data-name="Ellipse 18" cx="50.4" cy="50.4" r="50.4" transform="translate(653.831 52.611)" fill="#c07c65" opacity="0.6"/>
            <circle id="Ellipse_19" data-name="Ellipse 19" cx="50.4" cy="50.4" r="50.4" transform="translate(754.63 52.611)" fill="#c07c65" opacity="0.6"/>
            <circle id="Ellipse_20" data-name="Ellipse 20" cx="50.4" cy="50.4" r="50.4" transform="translate(855.43 52.611)" fill="#c07c65" opacity="0.6"/>
            <circle id="Ellipse_21" data-name="Ellipse 21" cx="50.4" cy="50.4" r="50.4" transform="translate(-51.764 153.411)" fill="#c07c65" opacity="0.6"/>
            <circle id="Ellipse_22" data-name="Ellipse 22" cx="50.4" cy="50.4" r="50.4" transform="translate(49.035 153.411)" fill="#c07c65" opacity="0.6"/>
            <circle id="Ellipse_23" data-name="Ellipse 23" cx="50.4" cy="50.4" r="50.4" transform="translate(149.835 153.411)" fill="#c07c65" opacity="0.6"/>
            <circle id="Ellipse_24" data-name="Ellipse 24" cx="50.4" cy="50.4" r="50.4" transform="translate(250.634 153.411)" fill="#c07c65" opacity="0.6"/>
            <circle id="Ellipse_25" data-name="Ellipse 25" cx="50.4" cy="50.4" r="50.4" transform="translate(351.433 153.411)" fill="#c07c65" opacity="0.6"/>
            <circle id="Ellipse_26" data-name="Ellipse 26" cx="50.4" cy="50.4" r="50.4" transform="translate(452.232 153.411)" fill="#c07c65" opacity="0.6"/>
            <circle id="Ellipse_27" data-name="Ellipse 27" cx="50.4" cy="50.4" r="50.4" transform="translate(553.032 153.411)" fill="#c07c65" opacity="0.6"/>
            <circle id="Ellipse_28" data-name="Ellipse 28" cx="50.4" cy="50.4" r="50.4" transform="translate(653.831 153.411)" fill="#c07c65" opacity="0.6"/>
            <circle id="Ellipse_29" data-name="Ellipse 29" cx="50.4" cy="50.4" r="50.4" transform="translate(754.63 153.411)" fill="#c07c65" opacity="0.6"/>
            <circle id="Ellipse_30" data-name="Ellipse 30" cx="50.4" cy="50.4" r="50.4" transform="translate(855.43 153.411)" fill="#c07c65" opacity="0.6"/>
            <circle id="Ellipse_31" data-name="Ellipse 31" cx="50.4" cy="50.4" r="50.4" transform="translate(-51.764 254.21)" fill="#c07c65" opacity="0.6"/>
            <circle id="Ellipse_32" data-name="Ellipse 32" cx="50.4" cy="50.4" r="50.4" transform="translate(49.035 254.21)" fill="#c07c65" opacity="0.6"/>
            <circle id="Ellipse_33" data-name="Ellipse 33" cx="50.4" cy="50.4" r="50.4" transform="translate(149.835 254.21)" fill="#c07c65" opacity="0.6"/>
            <circle id="Ellipse_34" data-name="Ellipse 34" cx="50.4" cy="50.4" r="50.4" transform="translate(250.634 254.21)" fill="#c07c65" opacity="0.6"/>
            <circle id="Ellipse_35" data-name="Ellipse 35" cx="50.4" cy="50.4" r="50.4" transform="translate(351.433 254.21)" fill="#c07c65" opacity="0.6"/>
            <circle id="Ellipse_36" data-name="Ellipse 36" cx="50.4" cy="50.4" r="50.4" transform="translate(452.232 254.21)" fill="#c07c65" opacity="0.6"/>
            <circle id="Ellipse_37" data-name="Ellipse 37" cx="50.4" cy="50.4" r="50.4" transform="translate(553.032 254.21)" fill="#c07c65" opacity="0.6"/>
            <circle id="Ellipse_38" data-name="Ellipse 38" cx="50.4" cy="50.4" r="50.4" transform="translate(653.831 254.21)" fill="#c07c65" opacity="0.6"/>
            <circle id="Ellipse_39" data-name="Ellipse 39" cx="50.4" cy="50.4" r="50.4" transform="translate(754.63 254.21)" fill="#c07c65" opacity="0.6"/>
            <circle id="Ellipse_40" data-name="Ellipse 40" cx="50.4" cy="50.4" r="50.4" transform="translate(855.43 254.21)" fill="#c07c65" opacity="0.6"/>
            <circle id="Ellipse_41" data-name="Ellipse 41" cx="50.4" cy="50.4" r="50.4" transform="translate(-51.764 355.009)" fill="#c07c65" opacity="0.6"/>
            <circle id="Ellipse_42" data-name="Ellipse 42" cx="50.4" cy="50.4" r="50.4" transform="translate(49.035 355.009)" fill="#c07c65" opacity="0.6"/>
            <circle id="Ellipse_43" data-name="Ellipse 43" cx="50.4" cy="50.4" r="50.4" transform="translate(149.835 355.009)" fill="#c07c65" opacity="0.6"/>
            <circle id="Ellipse_44" data-name="Ellipse 44" cx="50.4" cy="50.4" r="50.4" transform="translate(250.634 355.009)" fill="#c07c65" opacity="0.6"/>
            <circle id="Ellipse_45" data-name="Ellipse 45" cx="50.4" cy="50.4" r="50.4" transform="translate(351.433 355.009)" fill="#c07c65" opacity="0.6"/>
            <circle id="Ellipse_46" data-name="Ellipse 46" cx="50.4" cy="50.4" r="50.4" transform="translate(452.232 355.009)" fill="#c07c65" opacity="0.6"/>
            <circle id="Ellipse_47" data-name="Ellipse 47" cx="50.4" cy="50.4" r="50.4" transform="translate(553.032 355.009)" fill="#c07c65" opacity="0.6"/>
            <circle id="Ellipse_48" data-name="Ellipse 48" cx="50.4" cy="50.4" r="50.4" transform="translate(653.831 355.009)" fill="#c07c65" opacity="0.6"/>
            <circle id="Ellipse_49" data-name="Ellipse 49" cx="50.4" cy="50.4" r="50.4" transform="translate(754.63 355.009)" fill="#c07c65" opacity="0.6"/>
            <circle id="Ellipse_50" data-name="Ellipse 50" cx="50.4" cy="50.4" r="50.4" transform="translate(855.43 355.009)" fill="#c07c65" opacity="0.6"/>
            <circle id="Ellipse_51" data-name="Ellipse 51" cx="50.4" cy="50.4" r="50.4" transform="translate(-51.764 455.809)" fill="#c07c65" opacity="0.6"/>
            <circle id="Ellipse_52" data-name="Ellipse 52" cx="50.4" cy="50.4" r="50.4" transform="translate(49.035 455.809)" fill="#c07c65" opacity="0.6"/>
            <circle id="Ellipse_53" data-name="Ellipse 53" cx="50.4" cy="50.4" r="50.4" transform="translate(149.835 455.809)" fill="#c07c65" opacity="0.6"/>
            <circle id="Ellipse_54" data-name="Ellipse 54" cx="50.4" cy="50.4" r="50.4" transform="translate(250.634 455.809)" fill="#c07c65" opacity="0.6"/>
            <circle id="Ellipse_55" data-name="Ellipse 55" cx="50.4" cy="50.4" r="50.4" transform="translate(351.433 455.809)" fill="#c07c65" opacity="0.6"/>
            <circle id="Ellipse_56" data-name="Ellipse 56" cx="50.4" cy="50.4" r="50.4" transform="translate(452.232 455.809)" fill="#c07c65" opacity="0.6"/>
            <circle id="Ellipse_57" data-name="Ellipse 57" cx="50.4" cy="50.4" r="50.4" transform="translate(553.032 455.809)" fill="#c07c65" opacity="0.6"/>
            <circle id="Ellipse_58" data-name="Ellipse 58" cx="50.4" cy="50.4" r="50.4" transform="translate(653.831 455.809)" fill="#c07c65" opacity="0.6"/>
            <circle id="Ellipse_59" data-name="Ellipse 59" cx="50.4" cy="50.4" r="50.4" transform="translate(754.63 455.809)" fill="#c07c65" opacity="0.6"/>
            <circle id="Ellipse_60" data-name="Ellipse 60" cx="50.4" cy="50.4" r="50.4" transform="translate(855.43 455.809)" fill="#c07c65" opacity="0.6"/>
          </g>
        </g>
      </g>
    </g>
  </g>
</svg>
