<svg xmlns="http://www.w3.org/2000/svg" xmlns:xlink="http://www.w3.org/1999/xlink" width="868" height="868" viewBox="0 0 868 868">
  <defs>
    <clipPath id="clip-path">
      <rect id="Rectangle_55" data-name="Rectangle 55" width="868" height="868" transform="translate(17376 9321)" fill="#fff" stroke="#707070" stroke-width="1"/>
    </clipPath>
    <clipPath id="clip-path-2">
      <rect id="Rectangle_38-2" width="1597" height="870" transform="translate(-0.125)" fill="none"/>
    </clipPath>
    <clipPath id="clip-path-3">
      <rect id="Rectangle_38-3" width="1597" height="887" transform="translate(-0.125)" fill="none"/>
    </clipPath>
    <clipPath id="clip-path-4">
      <rect id="Rectangle_43" data-name="Rectangle 43" width="1592.67" height="891.591" fill="none"/>
    </clipPath>
  </defs>
  <g id="Mask_Group_4" data-name="Mask Group 4" transform="translate(-17376 -9321)" clip-path="url(#clip-path)">
    <g id="Untitled-11" transform="translate(17100.125 9321)">
      <g id="Layer_1">
        <rect id="Rectangle_38" width="1597" height="870" transform="translate(1.875)" fill="#ebe2e4"/>
        <rect id="Rectangle_42" data-name="Rectangle 42" width="1597" height="218" transform="translate(-0.125 870)" fill="#c07c65" opacity="0.6"/>
      </g>
      <g id="Layer_2">
        <g id="Group_32" data-name="Group 32" clip-path="url(#clip-path-2)">
          <g id="Group_31" data-name="Group 31" clip-path="url(#clip-path-3)">
            <g id="Layer_2-2" transform="translate(3.095 -1.891)">
              <g id="Group_29" opacity="0.4">
                <g id="Group_30" data-name="Group 30" clip-path="url(#clip-path-4)">
                  <g id="Group_28" transform="translate(-92.065 -84.521)">
                    <ellipse id="Ellipse_1" cx="88.841" cy="88.411" rx="88.841" ry="88.411" fill="#c07c65" opacity="0.6" style="isolation: isolate"/>
                    <ellipse id="Ellipse_2" cx="88.841" cy="88.411" rx="88.841" ry="88.411" transform="translate(177.682)" fill="#c07c65" opacity="0.6" style="isolation: isolate"/>
                    <ellipse id="Ellipse_3" cx="88.841" cy="88.411" rx="88.841" ry="88.411" transform="translate(355.364)" fill="#c07c65" opacity="0.6" style="isolation: isolate"/>
                    <ellipse id="Ellipse_4" cx="88.841" cy="88.411" rx="88.841" ry="88.411" transform="translate(533.046)" fill="#c07c65" opacity="0.6" style="isolation: isolate"/>
                    <ellipse id="Ellipse_5" cx="88.841" cy="88.411" rx="88.841" ry="88.411" transform="translate(710.728)" fill="#c07c65" opacity="0.6" style="isolation: isolate"/>
                    <ellipse id="Ellipse_6" cx="88.841" cy="88.411" rx="88.841" ry="88.411" transform="translate(888.411)" fill="#c07c65" opacity="0.6" style="isolation: isolate"/>
                    <ellipse id="Ellipse_7" cx="88.841" cy="88.411" rx="88.841" ry="88.411" transform="translate(1066.093)" fill="#c07c65" opacity="0.6" style="isolation: isolate"/>
                    <ellipse id="Ellipse_8" cx="88.841" cy="88.411" rx="88.841" ry="88.411" transform="translate(1243.775)" fill="#c07c65" opacity="0.6" style="isolation: isolate"/>
                    <ellipse id="Ellipse_9" cx="88.841" cy="88.411" rx="88.841" ry="88.411" transform="translate(1421.457)" fill="#c07c65" opacity="0.6" style="isolation: isolate"/>
                    <ellipse id="Ellipse_10" cx="88.841" cy="88.411" rx="88.841" ry="88.411" transform="translate(1599.139)" fill="#c07c65" opacity="0.6" style="isolation: isolate"/>
                    <ellipse id="Ellipse_11" cx="88.841" cy="88.411" rx="88.841" ry="88.411" transform="translate(0 176.823)" fill="#c07c65" opacity="0.6" style="isolation: isolate"/>
                    <ellipse id="Ellipse_12" cx="88.841" cy="88.411" rx="88.841" ry="88.411" transform="translate(177.682 176.823)" fill="#c07c65" opacity="0.6" style="isolation: isolate"/>
                    <ellipse id="Ellipse_13" cx="88.841" cy="88.411" rx="88.841" ry="88.411" transform="translate(355.364 176.823)" fill="#c07c65" opacity="0.6" style="isolation: isolate"/>
                    <ellipse id="Ellipse_14" cx="88.841" cy="88.411" rx="88.841" ry="88.411" transform="translate(533.046 176.823)" fill="#c07c65" opacity="0.6" style="isolation: isolate"/>
                    <ellipse id="Ellipse_15" cx="88.841" cy="88.411" rx="88.841" ry="88.411" transform="translate(710.728 176.823)" fill="#c07c65" opacity="0.6" style="isolation: isolate"/>
                    <ellipse id="Ellipse_16" cx="88.841" cy="88.411" rx="88.841" ry="88.411" transform="translate(888.411 176.823)" fill="#c07c65" opacity="0.6" style="isolation: isolate"/>
                    <ellipse id="Ellipse_17" cx="88.841" cy="88.411" rx="88.841" ry="88.411" transform="translate(1066.093 176.823)" fill="#c07c65" opacity="0.6" style="isolation: isolate"/>
                    <ellipse id="Ellipse_18" cx="88.841" cy="88.411" rx="88.841" ry="88.411" transform="translate(1243.775 176.823)" fill="#c07c65" opacity="0.6" style="isolation: isolate"/>
                    <ellipse id="Ellipse_19" cx="88.841" cy="88.411" rx="88.841" ry="88.411" transform="translate(1421.457 176.823)" fill="#c07c65" opacity="0.6" style="isolation: isolate"/>
                    <ellipse id="Ellipse_20" cx="88.841" cy="88.411" rx="88.841" ry="88.411" transform="translate(1599.139 176.823)" fill="#c07c65" opacity="0.6" style="isolation: isolate"/>
                    <ellipse id="Ellipse_21" cx="88.841" cy="88.411" rx="88.841" ry="88.411" transform="translate(0 353.667)" fill="#c07c65" opacity="0.6" style="isolation: isolate"/>
                    <ellipse id="Ellipse_22" cx="88.841" cy="88.411" rx="88.841" ry="88.411" transform="translate(177.682 353.667)" fill="#c07c65" opacity="0.6" style="isolation: isolate"/>
                    <ellipse id="Ellipse_23" cx="88.841" cy="88.411" rx="88.841" ry="88.411" transform="translate(355.364 353.667)" fill="#c07c65" opacity="0.6" style="isolation: isolate"/>
                    <ellipse id="Ellipse_24" cx="88.841" cy="88.411" rx="88.841" ry="88.411" transform="translate(533.046 353.667)" fill="#c07c65" opacity="0.6" style="isolation: isolate"/>
                    <ellipse id="Ellipse_25" cx="88.841" cy="88.411" rx="88.841" ry="88.411" transform="translate(710.728 353.667)" fill="#c07c65" opacity="0.6" style="isolation: isolate"/>
                    <ellipse id="Ellipse_26" cx="88.841" cy="88.411" rx="88.841" ry="88.411" transform="translate(888.411 353.667)" fill="#c07c65" opacity="0.6" style="isolation: isolate"/>
                    <ellipse id="Ellipse_27" cx="88.841" cy="88.411" rx="88.841" ry="88.411" transform="translate(1066.093 353.667)" fill="#c07c65" opacity="0.6" style="isolation: isolate"/>
                    <ellipse id="Ellipse_28" cx="88.841" cy="88.411" rx="88.841" ry="88.411" transform="translate(1243.775 353.667)" fill="#c07c65" opacity="0.6" style="isolation: isolate"/>
                    <ellipse id="Ellipse_29" cx="88.841" cy="88.411" rx="88.841" ry="88.411" transform="translate(1421.457 353.667)" fill="#c07c65" opacity="0.6" style="isolation: isolate"/>
                    <ellipse id="Ellipse_30" cx="88.841" cy="88.411" rx="88.841" ry="88.411" transform="translate(1599.139 353.667)" fill="#c07c65" opacity="0.6" style="isolation: isolate"/>
                    <ellipse id="Ellipse_31" cx="88.841" cy="88.411" rx="88.841" ry="88.411" transform="translate(0 530.489)" fill="#c07c65" opacity="0.6" style="isolation: isolate"/>
                    <ellipse id="Ellipse_32" cx="88.841" cy="88.411" rx="88.841" ry="88.411" transform="translate(177.682 530.489)" fill="#c07c65" opacity="0.6" style="isolation: isolate"/>
                    <ellipse id="Ellipse_33" cx="88.841" cy="88.411" rx="88.841" ry="88.411" transform="translate(355.364 530.489)" fill="#c07c65" opacity="0.6" style="isolation: isolate"/>
                    <ellipse id="Ellipse_34" cx="88.841" cy="88.411" rx="88.841" ry="88.411" transform="translate(533.046 530.489)" fill="#c07c65" opacity="0.6" style="isolation: isolate"/>
                    <ellipse id="Ellipse_35" cx="88.841" cy="88.411" rx="88.841" ry="88.411" transform="translate(710.728 530.489)" fill="#c07c65" opacity="0.6" style="isolation: isolate"/>
                    <ellipse id="Ellipse_36" cx="88.841" cy="88.411" rx="88.841" ry="88.411" transform="translate(888.411 530.489)" fill="#c07c65" opacity="0.6" style="isolation: isolate"/>
                    <ellipse id="Ellipse_37" cx="88.841" cy="88.411" rx="88.841" ry="88.411" transform="translate(1066.093 530.489)" fill="#c07c65" opacity="0.6" style="isolation: isolate"/>
                    <ellipse id="Ellipse_38" cx="88.841" cy="88.411" rx="88.841" ry="88.411" transform="translate(1243.775 530.489)" fill="#c07c65" opacity="0.6" style="isolation: isolate"/>
                    <ellipse id="Ellipse_39" cx="88.841" cy="88.411" rx="88.841" ry="88.411" transform="translate(1421.457 530.489)" fill="#c07c65" opacity="0.6" style="isolation: isolate"/>
                    <ellipse id="Ellipse_40" cx="88.841" cy="88.411" rx="88.841" ry="88.411" transform="translate(1599.139 530.489)" fill="#c07c65" opacity="0.6" style="isolation: isolate"/>
                    <ellipse id="Ellipse_41" cx="88.841" cy="88.411" rx="88.841" ry="88.411" transform="translate(0 707.312)" fill="#c07c65" opacity="0.6" style="isolation: isolate"/>
                    <ellipse id="Ellipse_42" cx="88.841" cy="88.411" rx="88.841" ry="88.411" transform="translate(177.682 707.312)" fill="#c07c65" opacity="0.6" style="isolation: isolate"/>
                    <ellipse id="Ellipse_43" cx="88.841" cy="88.411" rx="88.841" ry="88.411" transform="translate(355.364 707.312)" fill="#c07c65" opacity="0.6" style="isolation: isolate"/>
                    <ellipse id="Ellipse_44" cx="88.841" cy="88.411" rx="88.841" ry="88.411" transform="translate(533.046 707.312)" fill="#c07c65" opacity="0.6" style="isolation: isolate"/>
                    <ellipse id="Ellipse_45" cx="88.841" cy="88.411" rx="88.841" ry="88.411" transform="translate(710.728 707.312)" fill="#c07c65" opacity="0.6" style="isolation: isolate"/>
                    <ellipse id="Ellipse_46" cx="88.841" cy="88.411" rx="88.841" ry="88.411" transform="translate(888.411 707.312)" fill="#c07c65" opacity="0.6" style="isolation: isolate"/>
                    <ellipse id="Ellipse_47" cx="88.841" cy="88.411" rx="88.841" ry="88.411" transform="translate(1066.093 707.312)" fill="#c07c65" opacity="0.6" style="isolation: isolate"/>
                    <ellipse id="Ellipse_48" cx="88.841" cy="88.411" rx="88.841" ry="88.411" transform="translate(1243.775 707.312)" fill="#c07c65" opacity="0.6" style="isolation: isolate"/>
                    <ellipse id="Ellipse_49" cx="88.841" cy="88.411" rx="88.841" ry="88.411" transform="translate(1421.457 707.312)" fill="#c07c65" opacity="0.6" style="isolation: isolate"/>
                    <ellipse id="Ellipse_50" cx="88.841" cy="88.411" rx="88.841" ry="88.411" transform="translate(1599.139 707.312)" fill="#c07c65" opacity="0.6" style="isolation: isolate"/>
                    <ellipse id="Ellipse_51" cx="88.841" cy="88.411" rx="88.841" ry="88.411" transform="translate(0 884.156)" fill="#c07c65" opacity="0.6" style="isolation: isolate"/>
                    <ellipse id="Ellipse_52" cx="88.841" cy="88.411" rx="88.841" ry="88.411" transform="translate(177.682 884.156)" fill="#c07c65" opacity="0.6" style="isolation: isolate"/>
                    <ellipse id="Ellipse_53" cx="88.841" cy="88.411" rx="88.841" ry="88.411" transform="translate(355.364 884.156)" fill="#c07c65" opacity="0.6" style="isolation: isolate"/>
                    <ellipse id="Ellipse_54" cx="88.841" cy="88.411" rx="88.841" ry="88.411" transform="translate(533.046 884.156)" fill="#c07c65" opacity="0.6" style="isolation: isolate"/>
                    <ellipse id="Ellipse_55" cx="88.841" cy="88.411" rx="88.841" ry="88.411" transform="translate(710.728 884.156)" fill="#c07c65" opacity="0.6" style="isolation: isolate"/>
                    <ellipse id="Ellipse_56" cx="88.841" cy="88.411" rx="88.841" ry="88.411" transform="translate(888.411 884.156)" fill="#c07c65" opacity="0.6" style="isolation: isolate"/>
                    <ellipse id="Ellipse_57" cx="88.841" cy="88.411" rx="88.841" ry="88.411" transform="translate(1066.093 884.156)" fill="#c07c65" opacity="0.6" style="isolation: isolate"/>
                    <ellipse id="Ellipse_58" cx="88.841" cy="88.411" rx="88.841" ry="88.411" transform="translate(1243.775 884.156)" fill="#c07c65" opacity="0.6" style="isolation: isolate"/>
                    <ellipse id="Ellipse_59" cx="88.841" cy="88.411" rx="88.841" ry="88.411" transform="translate(1421.457 884.156)" fill="#c07c65" opacity="0.6" style="isolation: isolate"/>
                    <ellipse id="Ellipse_60" cx="88.841" cy="88.411" rx="88.841" ry="88.411" transform="translate(1599.139 884.156)" fill="#c07c65" opacity="0.6" style="isolation: isolate"/>
                  </g>
                </g>
              </g>
            </g>
          </g>
        </g>
      </g>
    </g>
  </g>
</svg>
