<?xml version="1.0" encoding="UTF-8"?>
<svg id="Layer_2" data-name="Layer 2" xmlns="http://www.w3.org/2000/svg" xmlns:xlink="http://www.w3.org/1999/xlink" viewBox="0 0 1920 1077">
  <defs>
    <style>
      .cls-1 {
        fill: none;
      }

      .cls-2 {
        clip-path: url(#clippath);
      }

      .cls-3 {
        fill: #cc9582;
      }

      .cls-4 {
        fill: #c6cee4;
        isolation: isolate;
        opacity: .52;
      }

      .cls-5 {
        opacity: .2;
      }

      .cls-6 {
        opacity: .43;
      }

      .cls-7 {
        opacity: .6;
      }
    </style>
    <clipPath id="clippath">
      <rect class="cls-1" width="1920" height="1077"/>
    </clipPath>
  </defs>
  <g id="Layer_2-2" data-name="Layer 2">
    <g id="Layer_5" data-name="Layer 5" class="cls-7">
      <g class="cls-2">
        <g>
          <rect class="cls-4" width="1920" height="1077"/>
          <path class="cls-3" d="M294,1077H0V-3H294c-47.7,46.55-104.67,118.19-115,212-9.55,86.74,79.85,137.79,60,223-10.85,46.59-42.01,69.89-59,90-51.79,61.28-64.47,202.32,114,555Z"/>
          <path class="cls-3" d="M707,1077H413c61.07-112.65,59.06-191.27,45-243-35.8-131.66-173.35-175.84-158-267,6.78-40.25,34.11-34.66,94-125,46.19-69.67,87.24-131.58,68-181-22.8-58.58-115.26-44.65-130-100-14.93-56.07,34.78-118.63,81-164h294c-26.17,28.7-57.38,72.79-61,129-3.57,55.5,22.67,77.6,27,130,7.52,90.96-64.23,112.95-85,200-30.92,129.6,100.84,195.31,133,391,15.83,96.34,.06,178.79-14,230Z"/>
          <path class="cls-3" d="M1920,1077h-198c-128.77-102.53-153.71-186.05-154-242-.65-126.72,124.93-168.1,115-308-6.68-94.14-68.5-145.33-36-220,18.58-42.7,46.68-44.07,62-82,16.01-39.63,13.27-107.27-83-228h294V1077Z"/>
          <path class="cls-3" d="M1551,1077h-294c-26.56-26.11-61.68-69.03-70-127-15.54-108.27,77.8-161.62,65-271-10.46-89.33-76.08-82.52-89-166-20.41-131.89,135.93-197.13,139-359,1.29-67.83-24.9-123.18-45-157h294c1.27,53.19-3.75,131.77-39,216-50.65,121.02-118.82,146.34-121,235-2.19,88.68,65.23,94.68,79,202,15.16,118.13-60.01,161.61-40,263,9.03,45.78,37.64,104.21,121,164Z"/>
          <path class="cls-3" d="M1134,1077h-294c-8.33-47.86-17.8-122.47-14-214,4.74-114.3,25.29-137.15,9-199-30.02-114-125.13-132.49-116-202,8.97-68.28,102.84-66.42,120-146,14.75-68.38-47.43-102.79-43-196,2.5-52.63,24.85-94.91,44-123h294c-51.7,34.26-107.26,82.45-103,135,5.14,63.33,92.37,73.93,105,142,16.22,87.47-117.45,125.82-119,232-1.58,108.37,136.37,156.96,115,237-16.27,60.92-102.82,57.56-123,118-20.48,61.35,43.08,141.59,125,216Z"/>
          <g class="cls-6">
            <path class="cls-3" d="M211.4,1076.97H-82.6V-3.03H211.4c-47.7,46.55-104.67,118.19-115,212-9.55,86.74,79.85,137.79,60,223-10.85,46.59-42.01,69.89-59,90-51.79,61.28-64.47,202.32,114,555Z"/>
          </g>
          <g class="cls-6">
            <path class="cls-3" d="M624.4,1076.97H330.4c61.07-112.65,59.06-191.27,45-243-35.8-131.66-173.35-175.84-158-267,6.78-40.25,34.11-34.66,94-125,46.19-69.67,87.24-131.58,68-181-22.8-58.58-115.26-44.65-130-100-14.93-56.07,34.78-118.63,81-164h294c-26.17,28.7-57.38,72.79-61,129-3.57,55.5,22.67,77.6,27,130,7.52,90.96-64.23,112.95-85,200-30.92,129.6,100.84,195.31,133,391,15.83,96.34,.06,178.79-14,230Z"/>
          </g>
          <g class="cls-6">
            <path class="cls-3" d="M1837.4,1076.97h-198c-128.77-102.53-153.71-186.05-154-242-.65-126.72,124.93-168.1,115-308-6.68-94.14-68.5-145.33-36-220,18.58-42.7,46.68-44.07,62-82,16.01-39.63,13.27-107.27-83-228h294V1076.97Z"/>
          </g>
          <g class="cls-6">
            <path class="cls-3" d="M1468.4,1076.97h-294c-26.56-26.11-61.68-69.03-70-127-15.54-108.27,77.8-161.62,65-271-10.46-89.33-76.08-82.52-89-166-20.41-131.89,135.93-197.13,139-359,1.29-67.83-24.9-123.18-45-157h294c1.27,53.19-3.75,131.77-39,216-50.65,121.02-118.82,146.34-121,235-2.19,88.68,65.23,94.68,79,202,15.16,118.13-60.01,161.61-40,263,9.03,45.78,37.64,104.21,121,164Z"/>
          </g>
          <g class="cls-6">
            <path class="cls-3" d="M1051.4,1076.97h-294c-8.33-47.86-17.8-122.47-14-214,4.74-114.3,25.29-137.15,9-199-30.02-114-125.13-132.49-116-202,8.97-68.28,102.84-66.42,120-146,14.75-68.38-47.43-102.79-43-196,2.5-52.63,24.85-94.91,44-123h294c-51.7,34.26-107.26,82.45-103,135,5.14,63.33,92.37,73.93,105,142,16.22,87.47-117.45,125.82-119,232-1.58,108.37,136.37,156.96,115,237-16.27,60.92-102.82,57.56-123,118-20.48,61.35,43.08,141.59,125,216Z"/>
          </g>
          <g class="cls-5">
            <path class="cls-3" d="M118.4,1076.97H-175.6V-3.03H118.4C70.7,43.52,13.73,115.16,3.4,208.97c-9.55,86.74,79.85,137.79,60,223-10.85,46.59-42.01,69.89-59,90-51.79,61.28-64.47,202.32,114,555Z"/>
          </g>
          <g class="cls-5">
            <path class="cls-3" d="M531.4,1076.97H237.4c61.07-112.65,59.06-191.27,45-243-35.8-131.66-173.35-175.84-158-267,6.78-40.25,34.11-34.66,94-125,46.19-69.67,87.24-131.58,68-181-22.8-58.58-115.26-44.65-130-100-14.93-56.07,34.78-118.63,81-164h294c-26.17,28.7-57.38,72.79-61,129-3.57,55.5,22.67,77.6,27,130,7.52,90.96-64.23,112.95-85,200-30.92,129.6,100.84,195.31,133,391,15.83,96.34,.06,178.79-14,230Z"/>
          </g>
          <g class="cls-5">
            <path class="cls-3" d="M1744.4,1076.97h-198c-128.77-102.53-153.71-186.05-154-242-.65-126.72,124.93-168.1,115-308-6.68-94.14-68.5-145.33-36-220,18.58-42.7,46.68-44.07,62-82,16.01-39.63,13.27-107.27-83-228h294V1076.97Z"/>
          </g>
          <g class="cls-5">
            <path class="cls-3" d="M1375.4,1076.97h-294c-26.56-26.11-61.68-69.03-70-127-15.54-108.27,77.8-161.62,65-271-10.46-89.33-76.08-82.52-89-166-20.41-131.89,135.93-197.13,139-359,1.29-67.83-24.9-123.18-45-157h294c1.27,53.19-3.75,131.77-39,216-50.65,121.02-118.82,146.34-121,235-2.19,88.68,65.23,94.68,79,202,15.16,118.13-60.01,161.61-40,263,9.03,45.78,37.64,104.21,121,164Z"/>
          </g>
          <g class="cls-5">
            <path class="cls-3" d="M958.4,1076.97h-294c-8.33-47.86-17.8-122.47-14-214,4.74-114.3,25.29-137.15,9-199-30.02-114-125.13-132.49-116-202,8.97-68.28,102.84-66.42,120-146,14.75-68.38-47.43-102.79-43-196,2.5-52.63,24.85-94.91,44-123h294c-51.7,34.26-107.26,82.45-103,135,5.14,63.33,92.37,73.93,105,142,16.22,87.47-117.45,125.82-119,232-1.58,108.37,136.37,156.96,115,237-16.27,60.92-102.82,57.56-123,118-20.48,61.35,43.08,141.59,125,216Z"/>
          </g>
        </g>
      </g>
    </g>
  </g>
</svg>