<?xml version="1.0" encoding="UTF-8"?>
<svg id="Layer_2" data-name="Layer 2" xmlns="http://www.w3.org/2000/svg" viewBox="0 0 1920.02 2160.29">
  <defs>
    <style>
      .cls-1 {
        fill: #cc9582;
      }

      .cls-2, .cls-3 {
        fill: #c6cee4;
      }

      .cls-4, .cls-3 {
        opacity: .54;
      }
    </style>
  </defs>
  <g id="Layer_1-2" data-name="Layer 1">
    <g>
      <rect class="cls-2" y=".73" width="1920" height="2159"/>
      <g>
        <g>
          <rect class="cls-3" x=".02" y="0" width="1920" height="1080"/>
          <g class="cls-4">
            <path class="cls-1" d="M239.02,1080H.02V0c79.67,0,159.33,0,239,0-5.49,14.81-14.92,37.7-30,64-18.19,31.72-29.71,42.19-43,68-3.63,7.05-21.36,42.33-25.59,80-9.98,88.92,57.09,168.15,47.07,223-9.36,51.2-33.82,44.43-46.28,90-12.52,45.79,99.33,253.76,114.52,400,3.48,33.49,4.21,86.67-16.72,155Z"/>
          </g>
          <g class="cls-4">
            <path class="cls-1" d="M664.02,1080H370.02c16.78-18.64,41.92-51.85,54-99,4.98-19.44,14.76-68.66-9-144-49.89-158.21-171.91-184.4-158-267,6.78-40.25,34.11-34.66,94-125,46.19-69.67,87.24-131.58,68-181-22.8-58.58-115.26-44.65-130-100C274.08,107.93,323.8,45.37,370.02,0h294c-26.17,28.7-57.38,72.79-61,129-3.57,55.5,22.67,77.6,27,130,7.52,90.96-64.23,112.95-85,200-20.05,84.06,32.81,186.78,133,391,12.66,25.8,39.05,78.18,28,141-7.1,40.35-27.09,70.54-42,89Z"/>
          </g>
          <g class="cls-4">
            <path class="cls-1" d="M1920.02,1080h-236.1c-13.19-23.61-30.76-61.37-40.96-112-2.1-10.42-12.49-64.12-5.62-130,3.95-37.9,12.4-68.31,15.94-80.19,3.39-11.37,6.39-19.69,8.03-24.34,30.96-87.56,73.44-114.65,68.38-203.47-5.37-94.14-55.01-145.33-28.91-220,14.92-42.7,37.49-44.07,49.79-82,12.86-39.63,10.66-107.27-66.66-228h236.1V1080Z"/>
          </g>
          <g class="cls-4">
            <path class="cls-1" d="M1568.02,1080h-294c-26.56-26.11-61.68-69.03-70-127-15.54-108.27,77.8-161.62,65-271-10.46-89.33-76.08-82.52-89-166-13.86-89.54,93.54-195.22,139-359,5.69-20.49,14.29-56.96,0-96-11.12-30.39-31.69-50.23-45-61h294c2.97,15.79,6.15,39.44,5,68-1.33,33.07-8.67,77.48-44,148-62.24,124.24-118.93,151.19-121,235-2.19,88.68,65.23,94.68,79,202,16.62,129.52-82.74,193.73-40,263,24.59,39.86,71.96,43.87,104,111,10.15,21.26,14.73,40.41,17,53Z"/>
          </g>
          <g class="cls-4">
            <path class="cls-1" d="M1123.02,1080h-294c14.58-19.98,32.13-50.8,33-89,1.18-51.8-29.31-72.8-47-125-29.24-86.3,31.57-113.28,9-199-30.02-114-125.13-132.49-116-202,8.97-68.28,102.84-66.42,120-146,14.75-68.38-47.43-102.79-43-196C787.52,70.37,809.87,28.09,829.02,0h294c.2,23.25-3.05,58.4-24,91-32.91,51.2-82.92,54.71-85,83-2.91,39.45,93.31,46.37,111,103,22.78,72.92-117.42,123.68-119,232-1.58,108.37,136.37,156.96,115,237-17.13,64.17-123.5,68.06-123,118,.34,34.48,50.42,43.2,90,107,24.38,39.29,32.33,79.42,35,109Z"/>
          </g>
          <g class="cls-4">
            <path class="cls-1" d="M580.79,1080H286.79c16.78-18.64,41.92-51.85,54-99,4.98-19.44,14.76-68.66-9-144-49.89-158.21-171.91-184.4-158-267,6.78-40.25,34.11-34.66,94-125,46.19-69.67,87.24-131.58,68-181-22.8-58.58-115.26-44.65-130-100C190.85,107.93,240.57,45.37,286.79,0h294c-26.17,28.7-57.38,72.79-61,129-3.57,55.5,22.67,77.6,27,130,7.52,90.96-64.23,112.95-85,200-20.05,84.06,32.81,186.78,133,391,12.66,25.8,39.05,78.18,28,141-7.1,40.35-27.09,70.54-42,89Z"/>
          </g>
          <g class="cls-4">
            <path class="cls-1" d="M1920.02,1080h-319.1c-13.19-23.61-30.76-61.37-40.96-112-2.1-10.42-12.49-64.12-5.62-130,3.95-37.9,12.4-68.31,15.94-80.19,3.39-11.37,6.39-19.69,8.03-24.34,30.96-87.56,73.44-114.65,68.38-203.47-5.37-94.14-55.01-145.33-28.91-220,14.92-42.7,37.49-44.07,49.79-82,12.86-39.63,10.66-107.27-66.66-228,106.37,.33,212.74,.67,319.1,1V1080Z"/>
          </g>
          <g class="cls-4">
            <path class="cls-1" d="M1484.79,1080h-294c-26.56-26.11-61.68-69.03-70-127-15.54-108.27,77.8-161.62,65-271-10.46-89.33-76.08-82.52-89-166-13.86-89.54,93.54-195.22,139-359,5.69-20.49,14.29-56.96,0-96-11.12-30.39-31.69-50.23-45-61h294c2.97,15.79,6.15,39.44,5,68-1.33,33.07-8.67,77.48-44,148-62.24,124.24-118.93,151.19-121,235-2.19,88.68,65.23,94.68,79,202,16.62,129.52-82.74,193.73-40,263,24.59,39.86,71.96,43.87,104,111,10.15,21.26,14.73,40.41,17,53Z"/>
          </g>
          <g class="cls-4">
            <path class="cls-1" d="M1039.79,1080h-294c14.58-19.98,32.13-50.8,33-89,1.18-51.8-29.31-72.8-47-125-29.24-86.3,31.57-113.28,9-199-30.02-114-125.13-132.49-116-202,8.97-68.28,102.84-66.42,120-146,14.75-68.38-47.43-102.79-43-196C704.29,70.37,726.64,28.09,745.79,0h294c.2,23.25-3.05,58.4-24,91-32.91,51.2-82.92,54.71-85,83-2.91,39.45,93.31,46.37,111,103,22.78,72.92-117.42,123.68-119,232-1.58,108.37,136.37,156.96,115,237-17.13,64.17-123.5,68.06-123,118,.34,34.48,50.42,43.2,90,107,24.38,39.29,32.33,79.42,35,109Z"/>
          </g>
          <g class="cls-4">
            <path class="cls-1" d="M154.22,1080.29c-51.4-.1-102.8-.19-154.21-.29V0C51.42,.1,102.82,.19,154.22,.29c-5.49,14.81-14.92,37.7-30,64-18.19,31.72-29.71,42.19-43,68-3.63,7.05-21.36,42.33-25.59,80-9.98,88.92,57.09,168.15,47.07,223-9.36,51.2-33.82,44.43-46.28,90-12.52,45.79,99.33,253.76,114.52,400,3.48,33.49,4.21,86.67-16.72,155Z"/>
          </g>
          <g class="cls-4">
            <path class="cls-1" d="M622.44,1080H328.44c16.78-18.64,41.92-51.85,54-99,4.98-19.44,14.76-68.66-9-144-49.89-158.21-171.91-184.4-158-267,6.78-40.25,34.11-34.66,94-125,46.19-69.67,87.24-131.58,68-181-22.8-58.58-115.26-44.65-130-100-14.93-56.07,34.78-118.63,81-164h294c-26.17,28.7-57.38,72.79-61,129-3.57,55.5,22.67,77.6,27,130,7.52,90.96-64.23,112.95-85,200-20.05,84.06,32.81,186.78,133,391,12.66,25.8,39.05,78.18,28,141-7.1,40.35-27.09,70.54-42,89Z"/>
          </g>
          <g class="cls-4">
            <path class="cls-1" d="M1920.02,1080c-92.56,0-185.12,0-277.69,0-13.19-23.61-30.76-61.37-40.96-112-2.1-10.42-12.49-64.12-5.62-130,3.95-37.9,12.4-68.31,15.94-80.19,3.39-11.37,6.39-19.69,8.03-24.34,30.96-87.56,73.44-114.65,68.38-203.47-5.37-94.14-55.01-145.33-28.91-220,14.92-42.7,37.49-44.07,49.79-82C1721.84,188.37,1719.65,120.73,1642.33,0c92.56,0,185.12,0,277.69,0V1080Z"/>
          </g>
          <g class="cls-4">
            <path class="cls-1" d="M1526.44,1080h-294c-26.56-26.11-61.68-69.03-70-127-15.54-108.27,77.8-161.62,65-271-10.46-89.33-76.08-82.52-89-166-13.86-89.54,93.54-195.22,139-359,5.69-20.49,14.29-56.96,0-96-11.12-30.39-31.69-50.23-45-61h294c2.97,15.79,6.15,39.44,5,68-1.33,33.07-8.67,77.48-44,148-62.24,124.24-118.93,151.19-121,235-2.19,88.68,65.23,94.68,79,202,16.62,129.52-82.74,193.73-40,263,24.59,39.86,71.96,43.87,104,111,10.15,21.26,14.73,40.41,17,53Z"/>
          </g>
          <g class="cls-4">
            <path class="cls-1" d="M1081.44,1080h-294c14.58-19.98,32.13-50.8,33-89,1.18-51.8-29.31-72.8-47-125-29.24-86.3,31.57-113.28,9-199-30.02-114-125.13-132.49-116-202,8.97-68.28,102.84-66.42,120-146,14.75-68.38-47.43-102.79-43-196,2.5-52.63,24.85-94.91,44-123h294c.2,23.25-3.05,58.4-24,91-32.91,51.2-82.92,54.71-85,83-2.91,39.45,93.31,46.37,111,103,22.78,72.92-117.42,123.68-119,232-1.58,108.37,136.37,156.96,115,237-17.13,64.17-123.5,68.06-123,118,.34,34.48,50.42,43.2,90,107,24.38,39.29,32.33,79.42,35,109Z"/>
          </g>
          <g class="cls-4">
            <path class="cls-1" d="M196.22,1080.29c-65.4-.1-130.8-.19-196.21-.29V0C65.42,.1,130.82,.19,196.22,.29c-5.49,14.81-14.92,37.7-30,64-18.19,31.72-29.71,42.19-43,68-3.63,7.05-21.36,42.33-25.59,80-9.98,88.92,57.09,168.15,47.07,223-9.36,51.2-33.82,44.43-46.28,90-12.52,45.79,99.33,253.76,114.52,400,3.48,33.49,4.21,86.67-16.72,155Z"/>
          </g>
        </g>
        <g>
          <rect class="cls-3" x=".02" y="1080" width="1920" height="1080"/>
          <g class="cls-4">
            <path class="cls-1" d="M239.02,2160H.02V1080c79.67,0,159.33,0,239,0-5.49,14.81-14.92,37.7-30,64-18.19,31.72-29.71,42.19-43,68-3.63,7.05-21.36,42.33-25.59,80-9.98,88.92,57.09,168.15,47.07,223-9.36,51.2-33.82,44.43-46.28,90-12.52,45.79,99.33,253.76,114.52,400,3.48,33.49,4.21,86.67-16.72,155Z"/>
          </g>
          <g class="cls-4">
            <path class="cls-1" d="M664.02,2160H370.02c16.78-18.64,41.92-51.85,54-99,4.98-19.44,14.76-68.66-9-144-49.89-158.21-171.91-184.4-158-267,6.78-40.25,34.11-34.66,94-125,46.19-69.67,87.24-131.58,68-181-22.8-58.58-115.26-44.65-130-100-14.93-56.07,34.78-118.63,81-164h294c-26.17,28.7-57.38,72.79-61,129-3.57,55.5,22.67,77.6,27,130,7.52,90.96-64.23,112.95-85,200-20.05,84.06,32.81,186.78,133,391,12.66,25.8,39.05,78.18,28,141-7.1,40.35-27.09,70.54-42,89Z"/>
          </g>
          <g class="cls-4">
            <path class="cls-1" d="M1920.02,2160h-236.1c-13.19-23.61-30.76-61.37-40.96-112-2.1-10.42-12.49-64.12-5.62-130,3.95-37.9,12.4-68.31,15.94-80.19,3.39-11.37,6.39-19.69,8.03-24.34,30.96-87.56,73.44-114.65,68.38-203.47-5.37-94.14-55.01-145.33-28.91-220,14.92-42.7,37.49-44.07,49.79-82,12.86-39.63,10.66-107.27-66.66-228h236.1v1080Z"/>
          </g>
          <g class="cls-4">
            <path class="cls-1" d="M1568.02,2160h-294c-26.56-26.11-61.68-69.03-70-127-15.54-108.27,77.8-161.62,65-271-10.46-89.33-76.08-82.52-89-166-13.86-89.54,93.54-195.22,139-359,5.69-20.49,14.29-56.96,0-96-11.12-30.39-31.69-50.23-45-61h294c2.97,15.79,6.15,39.44,5,68-1.33,33.07-8.67,77.48-44,148-62.24,124.24-118.93,151.19-121,235-2.19,88.68,65.23,94.68,79,202,16.62,129.52-82.74,193.73-40,263,24.59,39.86,71.96,43.87,104,111,10.15,21.26,14.73,40.41,17,53Z"/>
          </g>
          <g class="cls-4">
            <path class="cls-1" d="M1123.02,2160h-294c14.58-19.98,32.13-50.8,33-89,1.18-51.8-29.31-72.8-47-125-29.24-86.3,31.57-113.28,9-199-30.02-114-125.13-132.49-116-202,8.97-68.28,102.84-66.42,120-146,14.75-68.38-47.43-102.79-43-196,2.5-52.63,24.85-94.91,44-123h294c.2,23.25-3.05,58.4-24,91-32.91,51.2-82.92,54.71-85,83-2.91,39.45,93.31,46.37,111,103,22.78,72.92-117.42,123.68-119,232-1.58,108.37,136.37,156.96,115,237-17.13,64.17-123.5,68.06-123,118,.34,34.48,50.42,43.2,90,107,24.38,39.29,32.33,79.42,35,109Z"/>
          </g>
          <g class="cls-4">
            <path class="cls-1" d="M580.79,2160H286.79c16.78-18.64,41.92-51.85,54-99,4.98-19.44,14.76-68.66-9-144-49.89-158.21-171.91-184.4-158-267,6.78-40.25,34.11-34.66,94-125,46.19-69.67,87.24-131.58,68-181-22.8-58.58-115.26-44.65-130-100-14.93-56.07,34.78-118.63,81-164h294c-26.17,28.7-57.38,72.79-61,129-3.57,55.5,22.67,77.6,27,130,7.52,90.96-64.23,112.95-85,200-20.05,84.06,32.81,186.78,133,391,12.66,25.8,39.05,78.18,28,141-7.1,40.35-27.09,70.54-42,89Z"/>
          </g>
          <g class="cls-4">
            <path class="cls-1" d="M1920.02,2160h-319.1c-13.19-23.61-30.76-61.37-40.96-112-2.1-10.42-12.49-64.12-5.62-130,3.95-37.9,12.4-68.31,15.94-80.19,3.39-11.37,6.39-19.69,8.03-24.34,30.96-87.56,73.44-114.65,68.38-203.47-5.37-94.14-55.01-145.33-28.91-220,14.92-42.7,37.49-44.07,49.79-82,12.86-39.63,10.66-107.27-66.66-228,106.37,.33,212.74,.67,319.1,1v1079Z"/>
          </g>
          <g class="cls-4">
            <path class="cls-1" d="M1484.79,2160h-294c-26.56-26.11-61.68-69.03-70-127-15.54-108.27,77.8-161.62,65-271-10.46-89.33-76.08-82.52-89-166-13.86-89.54,93.54-195.22,139-359,5.69-20.49,14.29-56.96,0-96-11.12-30.39-31.69-50.23-45-61h294c2.97,15.79,6.15,39.44,5,68-1.33,33.07-8.67,77.48-44,148-62.24,124.24-118.93,151.19-121,235-2.19,88.68,65.23,94.68,79,202,16.62,129.52-82.74,193.73-40,263,24.59,39.86,71.96,43.87,104,111,10.15,21.26,14.73,40.41,17,53Z"/>
          </g>
          <g class="cls-4">
            <path class="cls-1" d="M1039.79,2160h-294c14.58-19.98,32.13-50.8,33-89,1.18-51.8-29.31-72.8-47-125-29.24-86.3,31.57-113.28,9-199-30.02-114-125.13-132.49-116-202,8.97-68.28,102.84-66.42,120-146,14.75-68.38-47.43-102.79-43-196,2.5-52.63,24.85-94.91,44-123h294c.2,23.25-3.05,58.4-24,91-32.91,51.2-82.92,54.71-85,83-2.91,39.45,93.31,46.37,111,103,22.78,72.92-117.42,123.68-119,232-1.58,108.37,136.37,156.96,115,237-17.13,64.17-123.5,68.06-123,118,.34,34.48,50.42,43.2,90,107,24.38,39.29,32.33,79.42,35,109Z"/>
          </g>
          <g class="cls-4">
            <path class="cls-1" d="M154.22,2160.29c-51.4-.1-102.8-.19-154.21-.29V1080c51.4,.1,102.8,.19,154.21,.29-5.49,14.81-14.92,37.7-30,64-18.19,31.72-29.71,42.19-43,68-3.63,7.05-21.36,42.33-25.59,80-9.98,88.92,57.09,168.15,47.07,223-9.36,51.2-33.82,44.43-46.28,90-12.52,45.79,99.33,253.76,114.52,400,3.48,33.49,4.21,86.67-16.72,155Z"/>
          </g>
          <g class="cls-4">
            <path class="cls-1" d="M622.44,2160H328.44c16.78-18.64,41.92-51.85,54-99,4.98-19.44,14.76-68.66-9-144-49.89-158.21-171.91-184.4-158-267,6.78-40.25,34.11-34.66,94-125,46.19-69.67,87.24-131.58,68-181-22.8-58.58-115.26-44.65-130-100-14.93-56.07,34.78-118.63,81-164h294c-26.17,28.7-57.38,72.79-61,129-3.57,55.5,22.67,77.6,27,130,7.52,90.96-64.23,112.95-85,200-20.05,84.06,32.81,186.78,133,391,12.66,25.8,39.05,78.18,28,141-7.1,40.35-27.09,70.54-42,89Z"/>
          </g>
          <g class="cls-4">
            <path class="cls-1" d="M1920.02,2160c-92.56,0-185.12,0-277.69,0-13.19-23.61-30.76-61.37-40.96-112-2.1-10.42-12.49-64.12-5.62-130,3.95-37.9,12.4-68.31,15.94-80.19,3.39-11.37,6.39-19.69,8.03-24.34,30.96-87.56,73.44-114.65,68.38-203.47-5.37-94.14-55.01-145.33-28.91-220,14.92-42.7,37.49-44.07,49.79-82,12.86-39.63,10.66-107.27-66.66-228,92.56,0,185.12,0,277.69,0v1080Z"/>
          </g>
          <g class="cls-4">
            <path class="cls-1" d="M1526.44,2160h-294c-26.56-26.11-61.68-69.03-70-127-15.54-108.27,77.8-161.62,65-271-10.46-89.33-76.08-82.52-89-166-13.86-89.54,93.54-195.22,139-359,5.69-20.49,14.29-56.96,0-96-11.12-30.39-31.69-50.23-45-61h294c2.97,15.79,6.15,39.44,5,68-1.33,33.07-8.67,77.48-44,148-62.24,124.24-118.93,151.19-121,235-2.19,88.68,65.23,94.68,79,202,16.62,129.52-82.74,193.73-40,263,24.59,39.86,71.96,43.87,104,111,10.15,21.26,14.73,40.41,17,53Z"/>
          </g>
          <g class="cls-4">
            <path class="cls-1" d="M1081.44,2160h-294c14.58-19.98,32.13-50.8,33-89,1.18-51.8-29.31-72.8-47-125-29.24-86.3,31.57-113.28,9-199-30.02-114-125.13-132.49-116-202,8.97-68.28,102.84-66.42,120-146,14.75-68.38-47.43-102.79-43-196,2.5-52.63,24.85-94.91,44-123h294c.2,23.25-3.05,58.4-24,91-32.91,51.2-82.92,54.71-85,83-2.91,39.45,93.31,46.37,111,103,22.78,72.92-117.42,123.68-119,232-1.58,108.37,136.37,156.96,115,237-17.13,64.17-123.5,68.06-123,118,.34,34.48,50.42,43.2,90,107,24.38,39.29,32.33,79.42,35,109Z"/>
          </g>
          <g class="cls-4">
            <path class="cls-1" d="M196.22,2160.29c-65.4-.1-130.8-.19-196.21-.29V1080c65.4,.1,130.8,.19,196.21,.29-5.49,14.81-14.92,37.7-30,64-18.19,31.72-29.71,42.19-43,68-3.63,7.05-21.36,42.33-25.59,80-9.98,88.92,57.09,168.15,47.07,223-9.36,51.2-33.82,44.43-46.28,90-12.52,45.79,99.33,253.76,114.52,400,3.48,33.49,4.21,86.67-16.72,155Z"/>
          </g>
        </g>
      </g>
    </g>
  </g>
</svg>