<?xml version="1.0" encoding="UTF-8"?>
<svg id="Layer_2" data-name="Layer 2" xmlns="http://www.w3.org/2000/svg" viewBox="0 0 225.32 228.33">
  <defs>
    <style>
      .cls-1 {
        fill: #f1eae8;
      }

      .cls-2 {
        fill: #f1eae7;
      }
    </style>
  </defs>
  <g id="Layer_1-2" data-name="Layer 1">
    <path class="cls-1" d="M184.32,105.85c.29-21.61,1.93-28.85-1.89-39.21-1.33-3.59-2.76-6.08-3.77-7.65-.46-.71-5.2-7.88-13.21-12.43-6.14-3.48-11.23-3.74-33.03-3.82-12.28-.05-16.53,.01-22.65,0-28.93-.06-39.5-1.63-49.07,3.82-6.78,3.86-11.32,9.56-11.32,9.56-2.82,3.54-4.3,6.72-4.72,7.65-2.62,5.84-2.76,10.79-2.83,20.08-.07,8.62-.1,12.92,0,21.04,.07,5.76,.17,13.96,0,22.95-.35,18.45-1.53,23.2,.94,32.51,1.83,6.89,4.15,10.6,4.72,11.47,5.59,8.69,13.58,12.31,16.04,13.39,3.1,1.35,6.54,2.35,21.7,2.87,12.91,.44,15.64-.09,33.97,0,4.58,.02,11.08,.09,20.76,0,14.18-.13,15.95-.43,17.93-.96,3.96-1.06,14.05-4.49,20.76-14.34,4.21-6.18,5.31-12.28,5.66-14.34,.71-4.15,.21-5.65,0-16.26v-15.3s-.2-6.04,0-21.04Zm-32.08,34.42c-1.53,3.1-6.15,12.22-16.04,18.17-14.29,8.6-36.55,8.78-51.9-5.74-14.08-13.32-17.62-34.54-9.44-51.64,7.27-15.19,22.84-25.12,39.63-24.86,20.77,.32,37.19,16.11,41.52,33.47,3.53,14.16-1.72,26.43-3.77,30.6Zm14.15-68.85c-.97,3.18-3.93,5.74-7.55,5.74-3.55,0-6.62-2.46-7.55-5.74-1.19-4.17,1.71-7.46,1.89-7.65,2.21-2.42,6.1-3.65,9.44-1.91,3.45,1.8,4.86,6.01,3.77,9.56Z"/>
    <path class="cls-2" d="M216.65,0H8.67C3.88,0,0,3.93,0,8.78V219.55c0,4.85,3.88,8.78,8.67,8.78H216.65c4.79,0,8.67-3.93,8.67-8.78V8.78c0-4.85-3.88-8.78-8.67-8.78Zm-17.6,169.3c-.57,1.86-2.45,7.61-6.88,13.87-8.66,12.25-20.46,17.16-24.08,18.51-3.88,1.46-8.09,2.49-25.96,3.04-17.87,.55-31.37,.06-32.96,0-50.8-1.93-55.14-3.83-58.92-6.07-3.82-2.26-18.21-11.46-22.97-27.32-.98-3.27-1.46-6.52-2-10.12-1.3-8.76-1.09-14.6-1-27.32,0,0,.04-6.52,0-19.23-.1-27.39-1.18-32.56,1-44.53,1.28-7,2.14-11.54,4.99-17.2,1.39-2.77,8.2-15.61,22.97-22.26,5.19-2.34,9.78-2.91,18.97-4.05,10.2-1.27,13.96-.66,38.28-.82,3.75-.03,2.33-.03,18.64-.19,20.8-.2,24.28-.2,29.96,1.01,5.15,1.1,12.37,2.73,19.97,8.1,6.24,4.41,9.95,9.38,11.98,12.14,2.16,2.94,5.75,7.91,7.99,15.18,1.76,5.71,1.91,10.32,2,14.17,.38,16.03,.03,29.15,0,30.36-.65,24.91,0,45.54,0,45.54,.11,3.34,.33,9.58-2,17.2Z"/>
    <ellipse class="cls-2" cx="114.46" cy="121" rx="30.59" ry="31"/>
  </g>
</svg>