<?xml version="1.0" encoding="UTF-8"?>
<svg id="Layer_2" data-name="Layer 2" xmlns="http://www.w3.org/2000/svg" viewBox="0 0 225.32 228.33">
  <defs>
    <style>
      .cls-1 {
        fill: #f1eae8;
      }

      .cls-2 {
        fill: #f1eae7;
      }
    </style>
  </defs>
  <g id="Layer_1-2" data-name="Layer 1">
    <g>
      <path class="cls-1" d="M188.06,105.55c.31-22.87,2.04-30.54-2-41.49-1.4-3.8-2.92-6.43-3.99-8.1-.48-.75-5.5-8.34-13.98-13.16-6.49-3.68-11.89-3.96-34.95-4.05-12.99-.05-17.5,.01-23.97,0-30.62-.06-41.8-1.72-51.93,4.05-7.18,4.09-11.98,10.12-11.98,10.12-2.98,3.75-4.55,7.11-4.99,8.1-2.77,6.18-2.92,11.41-3,21.25-.07,9.12-.11,13.68,0,22.26,.08,6.1,.18,14.78,0,24.29-.37,19.53-1.62,24.55,1,34.41,1.94,7.3,4.4,11.22,4.99,12.14,5.91,9.2,14.37,13.03,16.98,14.17,3.28,1.43,6.92,2.48,22.97,3.04,13.66,.47,16.55-.1,35.95,0,4.84,.02,11.73,.1,21.97,0,15.01-.14,16.88-.45,18.97-1.01,4.19-1.12,14.87-4.75,21.97-15.18,4.45-6.54,5.62-12.99,5.99-15.18,.75-4.39,.23-5.98,0-17.2v-16.19s-.22-6.4,0-22.26Zm-33.95,36.43c-1.61,3.28-6.51,12.93-16.98,19.23-15.13,9.11-38.68,9.29-54.93-6.07-14.9-14.09-18.65-36.55-9.99-54.65,7.7-16.08,24.17-26.58,41.94-26.31,21.98,.33,39.36,17.05,43.94,35.42,3.73,14.98-1.82,27.97-3.99,32.38Zm14.98-72.86c-1.03,3.37-4.16,6.07-7.99,6.07-3.76,0-7-2.61-7.99-6.07-1.26-4.42,1.81-7.89,2-8.1,2.34-2.56,6.46-3.86,9.99-2.02,3.65,1.9,5.14,6.37,3.99,10.12Z"/>
      <path class="cls-2" d="M216.65,0H8.67C3.88,0,0,3.93,0,8.78V219.55c0,4.85,3.88,8.78,8.67,8.78H216.65c4.79,0,8.67-3.93,8.67-8.78V8.78c0-4.85-3.88-8.78-8.67-8.78Zm-17.6,169.3c-.57,1.86-2.45,7.61-6.88,13.87-8.66,12.25-20.46,17.16-24.08,18.51-3.88,1.46-8.09,2.49-25.96,3.04-17.87,.55-31.37,.06-32.96,0-50.8-1.93-55.14-3.83-58.92-6.07-3.82-2.26-18.21-11.46-22.97-27.32-.98-3.27-1.46-6.52-2-10.12-1.3-8.76-1.09-14.6-1-27.32,0,0,.04-6.52,0-19.23-.1-27.39-1.18-32.56,1-44.53,1.28-7,2.14-11.54,4.99-17.2,1.39-2.77,8.2-15.61,22.97-22.26,5.19-2.34,9.78-2.91,18.97-4.05,10.2-1.27,13.96-.66,38.28-.82,3.75-.03,2.33-.03,18.64-.19,20.8-.2,24.28-.2,29.96,1.01,5.15,1.1,12.37,2.73,19.97,8.1,6.24,4.41,9.95,9.38,11.98,12.14,2.16,2.94,5.75,7.91,7.99,15.18,1.76,5.71,1.91,10.32,2,14.17,.38,16.03,.03,29.15,0,30.36-.65,24.91,0,45.54,0,45.54,.11,3.34,.33,9.58-2,17.2Z"/>
      <ellipse class="cls-2" cx="113.66" cy="121.23" rx="34.45" ry="34.91"/>
    </g>
  </g>
</svg>