<?xml version="1.0" encoding="UTF-8"?>
<svg id="Layer_2" data-name="Layer 2" xmlns="http://www.w3.org/2000/svg" viewBox="0 0 743 506">
  <defs>
    <style>
      .cls-1 {
        fill: #cc9582;
      }

      .cls-2 {
        fill: #c07c65;
        opacity: .2;
      }

      .cls-3, .cls-4 {
        opacity: .54;
      }

      .cls-4 {
        fill: #c6cee4;
      }
    </style>
  </defs>
  <g id="Layer_2-2" data-name="Layer 2">
    <g>
      <g>
        <rect class="cls-4" y="0" width="743" height="404.89"/>
        <g class="cls-3">
          <path class="cls-1" d="M92.49,404.89H0V0c30.83,0,61.66,0,92.49,0-2.13,5.55-5.77,14.14-11.61,23.99-7.04,11.89-11.5,15.82-16.64,25.49-1.4,2.64-8.27,15.87-9.9,29.99-3.86,33.34,22.09,63.04,18.21,83.6-3.62,19.2-13.09,16.66-17.91,33.74-4.84,17.17,38.44,95.13,44.32,149.96,1.35,12.56,1.63,32.49-6.47,58.11Z"/>
        </g>
        <g class="cls-3">
          <path class="cls-1" d="M256.95,404.89h-113.77c6.49-6.99,16.22-19.44,20.9-37.12,1.93-7.29,5.71-25.74-3.48-53.99-19.31-59.31-66.52-69.13-61.14-100.1,2.62-15.09,13.2-12.99,36.38-46.86,17.87-26.12,33.76-49.33,26.31-67.86-8.82-21.96-44.6-16.74-50.31-37.49C106.06,40.46,125.3,17.01,143.18,0h113.77c-10.13,10.76-22.2,27.29-23.61,48.36-1.38,20.81,8.77,29.09,10.45,48.74,2.91,34.1-24.86,42.35-32.89,74.98-7.76,31.51,12.7,70.02,51.47,146.59,4.9,9.67,15.11,29.31,10.84,52.86-2.75,15.13-10.48,26.45-16.25,33.37Z"/>
        </g>
        <g class="cls-3">
          <path class="cls-1" d="M743,404.89h-91.37c-5.1-8.85-11.9-23.01-15.85-41.99-.81-3.91-4.83-24.04-2.18-48.74,1.53-14.21,4.8-25.61,6.17-30.06,1.31-4.26,2.47-7.38,3.11-9.12,11.98-32.83,28.42-42.98,26.46-76.28-2.08-35.29-21.29-54.48-11.19-82.48,5.78-16.01,14.51-16.52,19.27-30.74,4.97-14.86,4.12-40.22-25.79-85.48h91.37V404.89Z"/>
        </g>
        <g class="cls-3">
          <path class="cls-1" d="M606.78,404.89h-113.77c-10.28-9.79-23.87-25.88-27.09-47.61-6.01-40.59,30.11-60.59,25.15-101.6-4.05-33.49-29.44-30.94-34.44-62.23-5.36-33.57,36.2-73.19,53.79-134.59,2.2-7.68,5.53-21.35,0-35.99C506.12,11.47,498.16,4.04,493.01,0h113.77c1.15,5.92,2.38,14.79,1.93,25.49-.52,12.4-3.36,29.05-17.03,55.49-24.09,46.58-46.03,56.68-46.82,88.1-.85,33.24,25.24,35.5,30.57,75.73,6.43,48.56-32.02,72.63-15.48,98.6,9.52,14.94,27.85,16.45,40.25,41.61,3.93,7.97,5.7,15.15,6.58,19.87Z"/>
        </g>
        <g class="cls-3">
          <path class="cls-1" d="M434.58,404.89h-113.77c5.64-7.49,12.43-19.05,12.77-33.37,.46-19.42-11.34-27.29-18.19-46.86-11.32-32.35,12.22-42.47,3.48-74.61-11.62-42.74-48.42-49.67-44.89-75.73,3.47-25.6,39.8-24.9,46.44-54.74,5.71-25.64-18.35-38.54-16.64-73.48C304.75,26.38,313.4,10.53,320.81,0h113.77c.08,8.71-1.18,21.9-9.29,34.12-12.74,19.2-32.09,20.51-32.89,31.12-1.12,14.79,36.11,17.38,42.95,38.61,8.82,27.34-45.44,46.37-46.05,86.98-.61,40.63,52.77,58.84,44.5,88.85-6.63,24.06-47.79,25.52-47.6,44.24,.13,12.92,19.51,16.2,34.83,40.11,9.43,14.73,12.51,29.77,13.54,40.86Z"/>
        </g>
        <g class="cls-3">
          <path class="cls-1" d="M224.75,404.89H110.97c6.49-6.99,16.22-19.44,20.9-37.12,1.93-7.29,5.71-25.74-3.48-53.99-19.31-59.31-66.52-69.13-61.14-100.1,2.62-15.09,13.2-12.99,36.38-46.86,17.87-26.12,33.76-49.33,26.31-67.86-8.82-21.96-44.6-16.74-50.31-37.49C73.85,40.46,93.09,17.01,110.97,0h113.77c-10.13,10.76-22.2,27.29-23.61,48.36-1.38,20.81,8.77,29.09,10.45,48.74,2.91,34.1-24.86,42.35-32.89,74.98-7.76,31.51,12.7,70.02,51.47,146.59,4.9,9.67,15.11,29.31,10.84,52.86-2.75,15.13-10.48,26.45-16.25,33.37Z"/>
        </g>
        <g class="cls-3">
          <path class="cls-1" d="M743,404.89h-123.49c-5.1-8.85-11.9-23.01-15.85-41.99-.81-3.91-4.83-24.04-2.18-48.74,1.53-14.21,4.8-25.61,6.17-30.06,1.31-4.26,2.47-7.38,3.11-9.12,11.98-32.83,28.42-42.98,26.46-76.28-2.08-35.29-21.29-54.48-11.19-82.48,5.78-16.01,14.51-16.52,19.27-30.74,4.97-14.86,4.12-40.22-25.79-85.48,41.16,.12,82.32,.25,123.49,.37V404.89Z"/>
        </g>
        <g class="cls-3">
          <path class="cls-1" d="M574.57,404.89h-113.77c-10.28-9.79-23.87-25.88-27.09-47.61-6.01-40.59,30.11-60.59,25.15-101.6-4.05-33.49-29.44-30.94-34.44-62.23-5.36-33.57,36.2-73.19,53.79-134.59,2.2-7.68,5.53-21.35,0-35.99C473.91,11.47,465.96,4.04,460.8,0h113.77c1.15,5.92,2.38,14.79,1.93,25.49-.52,12.4-3.36,29.05-17.03,55.49-24.09,46.58-46.03,56.68-46.82,88.1-.85,33.24,25.24,35.5,30.57,75.73,6.43,48.56-32.02,72.63-15.48,98.6,9.52,14.94,27.85,16.45,40.25,41.61,3.93,7.97,5.7,15.15,6.58,19.87Z"/>
        </g>
        <g class="cls-3">
          <path class="cls-1" d="M402.37,404.89h-113.77c5.64-7.49,12.43-19.05,12.77-33.37,.46-19.42-11.34-27.29-18.19-46.86-11.32-32.35,12.22-42.47,3.48-74.61-11.62-42.74-48.42-49.67-44.89-75.73,3.47-25.6,39.8-24.9,46.44-54.74,5.71-25.64-18.35-38.54-16.64-73.48C272.54,26.38,281.19,10.53,288.6,0h113.77c.08,8.71-1.18,21.9-9.29,34.12-12.74,19.2-32.09,20.51-32.89,31.12-1.12,14.79,36.11,17.38,42.95,38.61,8.82,27.34-45.44,46.37-46.05,86.98-.61,40.63,52.77,58.84,44.5,88.85-6.63,24.06-47.79,25.52-47.6,44.24,.13,12.92,19.51,16.2,34.83,40.11,9.43,14.73,12.51,29.77,13.54,40.86Z"/>
        </g>
        <g class="cls-3">
          <path class="cls-1" d="M59.68,405c-19.89-.04-39.78-.07-59.68-.11V0C19.89,.04,39.78,.07,59.68,.11c-2.13,5.55-5.77,14.14-11.61,23.99-7.04,11.89-11.5,15.82-16.64,25.49-1.4,2.64-8.27,15.87-9.9,29.99-3.86,33.34,22.09,63.04,18.21,83.6-3.62,19.2-13.09,16.66-17.91,33.74-4.84,17.17,38.44,95.13,44.32,149.96,1.35,12.56,1.63,32.49-6.47,58.11Z"/>
        </g>
        <g class="cls-3">
          <path class="cls-1" d="M240.86,404.89H127.09c6.49-6.99,16.22-19.44,20.9-37.12,1.93-7.29,5.71-25.74-3.48-53.99-19.31-59.31-66.52-69.13-61.14-100.1,2.62-15.09,13.2-12.99,36.38-46.86,17.87-26.12,33.76-49.33,26.31-67.86-8.82-21.96-44.6-16.74-50.31-37.49-5.78-21.02,13.46-44.48,31.35-61.48h113.77c-10.13,10.76-22.2,27.29-23.61,48.36-1.38,20.81,8.77,29.09,10.45,48.74,2.91,34.1-24.86,42.35-32.89,74.98-7.76,31.51,12.7,70.02,51.47,146.59,4.9,9.67,15.11,29.31,10.84,52.86-2.75,15.13-10.48,26.45-16.25,33.37Z"/>
        </g>
        <g class="cls-3">
          <path class="cls-1" d="M743,404.89c-35.82,0-71.64,0-107.46,0-5.1-8.85-11.9-23.01-15.85-41.99-.81-3.91-4.83-24.04-2.18-48.74,1.53-14.21,4.8-25.61,6.17-30.06,1.31-4.26,2.47-7.38,3.11-9.12,11.98-32.83,28.42-42.98,26.46-76.28-2.08-35.29-21.29-54.48-11.19-82.48,5.78-16.01,14.51-16.52,19.27-30.74C666.31,70.62,665.46,45.26,635.54,0c35.82,0,71.64,0,107.46,0V404.89Z"/>
        </g>
        <g class="cls-3">
          <path class="cls-1" d="M590.69,404.89h-113.77c-10.28-9.79-23.87-25.88-27.09-47.61-6.01-40.59,30.11-60.59,25.15-101.6-4.05-33.49-29.44-30.94-34.44-62.23-5.36-33.57,36.2-73.19,53.79-134.59,2.2-7.68,5.53-21.35,0-35.99-4.3-11.4-12.26-18.83-17.41-22.87h113.77c1.15,5.92,2.38,14.79,1.93,25.49-.52,12.4-3.36,29.05-17.03,55.49-24.09,46.58-46.03,56.68-46.82,88.1-.85,33.24,25.24,35.5,30.57,75.73,6.43,48.56-32.02,72.63-15.48,98.6,9.52,14.94,27.85,16.45,40.25,41.61,3.93,7.97,5.7,15.15,6.58,19.87Z"/>
        </g>
        <g class="cls-3">
          <path class="cls-1" d="M418.49,404.89h-113.77c5.64-7.49,12.43-19.05,12.77-33.37,.46-19.42-11.34-27.29-18.19-46.86-11.32-32.35,12.22-42.47,3.48-74.61-11.62-42.74-48.42-49.67-44.89-75.73,3.47-25.6,39.8-24.9,46.44-54.74,5.71-25.64-18.35-38.54-16.64-73.48,.97-19.73,9.62-35.58,17.03-46.11h113.77c.08,8.71-1.18,21.9-9.29,34.12-12.74,19.2-32.09,20.51-32.89,31.12-1.12,14.79,36.11,17.38,42.95,38.61,8.82,27.34-45.44,46.37-46.05,86.98-.61,40.63,52.77,58.84,44.5,88.85-6.63,24.06-47.79,25.52-47.6,44.24,.13,12.92,19.51,16.2,34.83,40.11,9.43,14.73,12.51,29.77,13.54,40.86Z"/>
        </g>
        <g class="cls-3">
          <path class="cls-1" d="M75.93,405c-25.31-.04-50.62-.07-75.93-.11V0C25.31,.04,50.62,.07,75.93,.11c-2.13,5.55-5.77,14.14-11.61,23.99-7.04,11.89-11.5,15.82-16.64,25.49-1.4,2.64-8.27,15.87-9.9,29.99-3.86,33.34,22.09,63.04,18.21,83.6-3.62,19.2-13.09,16.66-17.91,33.74-4.84,17.17,38.44,95.13,44.32,149.96,1.35,12.56,1.63,32.49-6.47,58.11Z"/>
        </g>
      </g>
      <rect class="cls-2" y="405" width="743" height="101"/>
    </g>
  </g>
</svg>