<?xml version="1.0" encoding="UTF-8"?>
<svg id="Layer_2" data-name="Layer 2" xmlns="http://www.w3.org/2000/svg" xmlns:xlink="http://www.w3.org/1999/xlink" viewBox="0 0 957.24 957.24">
  <defs>
    <style>
      .cls-1 {
        fill: none;
      }

      .cls-2 {
        clip-path: url(#clippath);
      }

      .cls-3 {
        fill: #cc9582;
      }

      .cls-4, .cls-5 {
        opacity: .54;
      }

      .cls-5 {
        fill: #c6cee4;
      }
    </style>
    <clipPath id="clippath">
      <rect class="cls-1" width="957.24" height="957.24"/>
    </clipPath>
  </defs>
  <g id="Layer_3" data-name="Layer 3">
    <g class="cls-2">
      <g>
        <rect class="cls-5" x="-862.43" y="-92.89" width="1920" height="1080"/>
        <g class="cls-4">
          <path class="cls-3" d="M1057.57,987.11h-236.1c-13.19-23.61-30.76-61.37-40.96-112-2.1-10.42-12.49-64.12-5.62-130,3.95-37.9,12.4-68.31,15.94-80.19,3.39-11.37,6.39-19.69,8.03-24.34,30.96-87.56,73.44-114.65,68.38-203.47-5.37-94.14-55.01-145.33-28.91-220,14.92-42.7,37.49-44.07,49.79-82,12.86-39.63,10.66-107.27-66.66-228h236.1V987.11Z"/>
        </g>
        <g class="cls-4">
          <path class="cls-3" d="M705.57,987.11H411.57c-26.56-26.11-61.68-69.03-70-127-15.54-108.27,77.8-161.62,65-271-10.46-89.33-76.08-82.52-89-166-13.86-89.54,93.54-195.22,139-359,5.69-20.49,14.29-56.96,0-96-11.12-30.39-31.69-50.23-45-61h294c2.97,15.79,6.15,39.44,5,68-1.33,33.07-8.67,77.48-44,148-62.24,124.24-118.93,151.19-121,235-2.19,88.68,65.23,94.68,79,202,16.62,129.52-82.74,193.73-40,263,24.59,39.86,71.96,43.87,104,111,10.15,21.26,14.73,40.41,17,53Z"/>
        </g>
        <g class="cls-4">
          <path class="cls-3" d="M260.57,987.11H-33.43c14.58-19.98,32.13-50.8,33-89,1.18-51.8-29.31-72.8-47-125-29.24-86.3,31.57-113.28,9-199-30.02-114-125.13-132.49-116-202,8.97-68.28,102.84-66.42,120-146,14.75-68.38-47.43-102.79-43-196,2.5-52.63,24.85-94.91,44-123H260.57c.2,23.25-3.05,58.4-24,91-32.91,51.2-82.92,54.71-85,83-2.91,39.45,93.31,46.37,111,103,22.78,72.92-117.42,123.68-119,232-1.58,108.37,136.37,156.96,115,237-17.13,64.17-123.5,68.06-123,118,.34,34.48,50.42,43.2,90,107,24.38,39.29,32.33,79.42,35,109Z"/>
        </g>
        <g class="cls-4">
          <path class="cls-3" d="M1057.57,987.11h-319.1c-13.19-23.61-30.76-61.37-40.96-112-2.1-10.42-12.49-64.12-5.62-130,3.95-37.9,12.4-68.31,15.94-80.19,3.39-11.37,6.39-19.69,8.03-24.34,30.96-87.56,73.44-114.65,68.38-203.47-5.37-94.14-55.01-145.33-28.91-220,14.92-42.7,37.49-44.07,49.79-82,12.86-39.63,10.66-107.27-66.66-228,106.37,.33,212.74,.67,319.1,1V987.11Z"/>
        </g>
        <g class="cls-4">
          <path class="cls-3" d="M622.34,987.11H328.34c-26.56-26.11-61.68-69.03-70-127-15.54-108.27,77.8-161.62,65-271-10.46-89.33-76.08-82.52-89-166-13.86-89.54,93.54-195.22,139-359,5.69-20.49,14.29-56.96,0-96-11.12-30.39-31.69-50.23-45-61h294c2.97,15.79,6.15,39.44,5,68-1.33,33.07-8.67,77.48-44,148-62.24,124.24-118.93,151.19-121,235-2.19,88.68,65.23,94.68,79,202,16.62,129.52-82.74,193.73-40,263,24.59,39.86,71.96,43.87,104,111,10.15,21.26,14.73,40.41,17,53Z"/>
        </g>
        <g class="cls-4">
          <path class="cls-3" d="M177.34,987.11H-116.66c14.58-19.98,32.13-50.8,33-89,1.18-51.8-29.31-72.8-47-125-29.24-86.3,31.57-113.28,9-199-30.02-114-125.13-132.49-116-202,8.97-68.28,102.84-66.42,120-146,14.75-68.38-47.43-102.79-43-196,2.5-52.63,24.85-94.91,44-123H177.34c.2,23.25-3.05,58.4-24,91-32.91,51.2-82.92,54.71-85,83-2.91,39.45,93.31,46.37,111,103,22.78,72.92-117.42,123.68-119,232-1.58,108.37,136.37,156.96,115,237-17.13,64.17-123.5,68.06-123,118,.34,34.48,50.42,43.2,90,107,24.38,39.29,32.33,79.42,35,109Z"/>
        </g>
        <g class="cls-4">
          <path class="cls-3" d="M1057.57,987.11c-92.56,0-185.12,0-277.69,0-13.19-23.61-30.76-61.37-40.96-112-2.1-10.42-12.49-64.12-5.62-130,3.95-37.9,12.4-68.31,15.94-80.19,3.39-11.37,6.39-19.69,8.03-24.34,30.96-87.56,73.44-114.65,68.38-203.47-5.37-94.14-55.01-145.33-28.91-220,14.92-42.7,37.49-44.07,49.79-82,12.86-39.63,10.66-107.27-66.66-228,92.56,0,185.12,0,277.69,0V987.11Z"/>
        </g>
        <g class="cls-4">
          <path class="cls-3" d="M663.99,987.1H369.99c-26.56-26.11-61.68-69.03-70-127-15.54-108.27,77.8-161.62,65-271-10.46-89.33-76.08-82.52-89-166-13.86-89.54,93.54-195.22,139-359,5.69-20.49,14.29-56.96,0-96-11.12-30.39-31.69-50.23-45-61h294c2.97,15.79,6.15,39.44,5,68-1.33,33.07-8.67,77.48-44,148-62.24,124.24-118.93,151.19-121,235-2.19,88.68,65.23,94.68,79,202,16.62,129.52-82.74,193.73-40,263,24.59,39.86,71.96,43.87,104,111,10.15,21.26,14.73,40.41,17,53Z"/>
        </g>
        <g class="cls-4">
          <path class="cls-3" d="M218.99,987.1H-75.01c14.58-19.98,32.13-50.8,33-89,1.18-51.8-29.31-72.8-47-125-29.24-86.3,31.57-113.28,9-199-30.02-114-125.13-132.49-116-202,8.97-68.28,102.84-66.42,120-146,14.75-68.38-47.43-102.79-43-196,2.5-52.63,24.85-94.91,44-123H218.99c.2,23.25-3.05,58.4-24,91-32.91,51.2-82.92,54.71-85,83-2.91,39.45,93.31,46.37,111,103,22.78,72.92-117.42,123.68-119,232-1.58,108.37,136.37,156.96,115,237-17.13,64.17-123.5,68.06-123,118,.34,34.48,50.42,43.2,90,107,24.38,39.29,32.33,79.42,35,109Z"/>
        </g>
      </g>
    </g>
  </g>
</svg>