<?xml version="1.0" encoding="UTF-8"?>
<svg id="Layer_2" data-name="Layer 2" xmlns="http://www.w3.org/2000/svg" viewBox="0 0 410 410">
  <defs>
    <style>
      .cls-1 {
        fill: #c07c65;
      }

      .cls-2 {
        fill: #627096;
      }

      .cls-3 {
        fill: #566285;
      }

      .cls-4 {
        fill: #6073a6;
      }
    </style>
  </defs>
  <g id="Layer_2-2" data-name="Layer 2">
    <rect class="cls-1" width="410" height="410"/>
    <g>
      <path class="cls-4" d="M272.26,182.03c.64-.69,1.37-1.37,1.94-2.11,.45-.59,.69-1.26,1.03-1.91,.93-1.74,2.31-3.3,3.46-4.89,.15-.21,.33-.38,.52-.51l3.14-4.81c1.29-1.98,2.51-4.07,4.21-5.73,1.31-2.46,2.86-4.75,4.6-6.92,.04-.22,.12-.45,.26-.68,.57-.99,1.16-1.96,1.88-2.85,.54-.66,1.25-1.14,1.79-1.78,.66-.79,1.04-1.73,1.78-2.48,.76-.78,1.62-1.47,2.49-2.12,3.75-2.85,8.13-4.3,12.48-5.94,.45-.39,1.08-.57,1.78-.38,.6,.16,1.15,.43,1.6,.87,.11,.11,.21,.24,.31,.37,.28,.1,.55,.25,.78,.45,.75,.63,1.8,1.3,2.68,1.66,.08,.03,.16,.07,.23,.11,.34-.03,.69,.02,1.06,.19,.78,.36,1.61,.64,2.46,.86,.04,0,.07,0,.11-.01,2.35-.12,4.74,.17,7.08,.32,.14,0,.28,.03,.41,.06,3.03-.36,6.03-.77,9.02-1.36,.21-.17,.44-.3,.7-.4,1.22-.46,2.4-.93,3.49-1.66,.1-.06,.2-.11,.3-.16,.04-.06,.06-.11,.07-.13,.37-.87,1.17-1.43,2.15-1.3,.58,.08,1.06,.4,1.37,.84,.35,.21,.65,.46,.87,.78,2.51,.95,4.95,1.87,7.12,3.49,.7,.52,1.48,1.12,2.21,1.8,1.44,1,2.85,2.06,4.12,3.26,1.8,1.71,3.15,3.82,4.55,5.84,1.29,1.86,2.6,3.67,3.39,5.78,.51,.87,1.31,2.21,2.33,3.84,1.5,2.4,2.29,3.52,3.7,5.72,.79,1.24,1.94,3.06,3.29,5.33,.14,.27,.26,.57,.3,.87,.01,.07,.03,.15,.04,.23,.6,.91,.91,1.96,1.58,2.82,.5,.64,1.01,1.06,1.27,1.87,.1,.32,.14,.64,.15,.97,.3,.46,.59,.93,.85,1.41,.07,.06,.15,.12,.18,.15,.1,.14,.21,.27,.31,.41,.07,.16,.14,.32,.2,.48,0,.02,0,.04,.01,.06,.01,0,.03,.02,.04,.03,.2,.1,.39,.22,.55,.39,.01,.01,.02,.03,.03,.04,.18,.15,.34,.33,.46,.54,0,.02,.02,.04,.03,.06,.15,.23,.23,.48,.24,.75,.06,.27,.05,.53-.04,.8-.06,.26-.18,.49-.36,.68-.14,.22-.33,.39-.56,.52-.16,.07-.32,.14-.48,.2-.23,.06-.45,.08-.68,.06-.11,.06-.22,.12-.32,.19-.04,.03-.09,.06-.13,.09-.03,.03-.07,.06-.1,.09-.25,.38-.63,.67-1.08,.73-.04,0-.07,.01-.1,.02-.25,.23-.53,.44-.86,.63-.58,.32-1.15,.63-1.73,.93-.16,.29-.42,.54-.81,.74-4.34,2.19-8.33,5.07-12.38,7.73-1.48,.97-2.89-.35-2.95-1.73-.37-.16-.69-.42-.9-.81-.11-.21-.2-.41-.26-.62-.17-.08-.33-.16-.49-.25-.01,2.91,.32,5.83,.54,8.75,.28,.24,.48,.55,.55,.94,.16,.87,.26,1.76,.24,2.65,0,.28-.08,.57-.2,.82,.42,5.51,.84,11.02,1.26,16.53,.18,.86,.24,1.76,.33,2.45,.3,2.4,.31,4.82,.35,7.24,.08,4.98,.17,9.96,.25,14.94,.03,1.59-1.49,2.2-2.66,1.84-.32,.1-.68,.12-1.08,.03-.08-.02-.15-.03-.23-.05-.21,.06-.44,.09-.7,.07-6.52-.47-13.04-2.09-19.59-1.91-.39,.01-.72-.07-.99-.22-2.05,.16-4.13-.07-6.19-.01-2.34,.07-4.63,.35-6.94,.72-2.17,.35-4.32,.57-6.53,.61-1.1,.02-2.25,.11-3.39,.08-6.55,.57-13.16,.15-19.69,.91-.23,.03-.44,.02-.63-.02-.05,.03-.08,.07-.13,.09-.23,.15-.48,.23-.75,.24-.27,.06-.53,.05-.8-.04-.03-.01-.05-.02-.08-.03-.03,.05-.08,.08-.13,.11-.12,.05-.23,.12-.33,.2,0,0,0,0,0,0-.06,.05-.13,.1-.2,.12-.04,0-.08,.01-.12,.02-.06,0-.12-.01-.18-.04-.04-.01-.07-.03-.1-.06-.03-.02-.06-.05-.08-.08-.03-.03-.05-.06-.06-.1-.03-.06-.04-.11-.04-.18,.01-.21,.03-.43,.04-.64,0-.06,.01-.12,.04-.18,0-.03,.02-.05,.03-.07-.06-.15-.13-.3-.19-.45-.1-.36-.1-.71,0-1.07,.08-.19,.14-.36,.22-.51-.02-.15-.03-.31-.02-.48,.12-1.6,.29-3.2,.49-4.79-.31-.32-.49-.78-.43-1.39,.46-4.71,1.05-9.43,1.37-14.15,.16-2.27,.02-4.53,.3-6.8,.19-1.54,.29-3.34,.88-4.85,.21-7.26,1.5-14.41,2.26-21.62-.16,.04-.34,.06-.53,.06,.8,0-.17,.71-.49,1.03-.41,.41-.9,.73-1.3,1.15-.71,.75-1.07,1.75-2.15,2.09-2.1,.64-4.65-1.82-6.12-3-.87-.7-1.7-1.45-2.48-2.24-.07-.04-.14-.08-.21-.13-2.4-1.59-4.46-3.62-6.8-5.28-1.21-.86-2.62-1.9-3.5-3.2-.74-.36-1.33-1-1.93-1.75-.7-.88-.8-1.97,0-2.84Z"/>
      <path class="cls-1" d="M271.04,183.32c4.87-6.69,9.65-13.44,14.35-20.25,2.32-3.36,4.62-6.74,6.89-10.14,1.07-1.59,2.12-3.19,3.38-4.64,1.14-1.32,2.47-2.46,3.89-3.47,3.21-2.27,6.88-3.8,10.49-5.31,.09-.04,.17-.03,.23,0,.49-.22,1.01-.39,1.5-.58,.75-.29,2-1.05,2.71-.29,.04,.05,.06,.1,.07,.15,.41,.3,.78,.69,1.15,1,1.06,.89,2.18,1.64,3.47,2.14,2.61,1.03,5.52,1.32,8.3,1.39,1.5,.04,3,0,4.49-.11,1.48-.1,2.97-.21,4.43-.46,2.56-.44,4.98-1.46,7.07-3.01,.5-.37,.97-.78,1.43-1.2-.02-.2,.13-.42,.37-.33,1.08,.4,2.08,.95,3,1.63,6.67,2.45,12.52,6.86,16.7,12.6,1.24,1.71,2.38,3.49,3.52,5.27,1.16,1.8,2.3,3.61,3.42,5.43,2.27,3.66,4.48,7.36,6.63,11.1,2.45,4.25,4.86,8.53,7.28,12.8,.05,.09,.05,.18,.02,.25,.06,.13,.05,.3-.11,.4-6.83,4.34-13.63,8.74-20.49,13.02-.34,.21-.69,.34-1.04,.07-.38-.3-.68-.78-.99-1.15-.54-.65-1.08-1.29-1.62-1.94,.41,5.05,.82,10.09,1.23,15.14,.51,6.26,1.06,12.52,1.45,18.78,.44,7.08,.62,14.19,.09,21.28-.03,.39-.65,.4-.62,0,0-.01,0-.02,0-.03-.01,0-.03,.01-.04,.01-9.19,.81-18.18-1.97-27.33-2.05-4.69-.04-9.26,.98-13.91,1.42-4.64,.44-9.29,.39-13.95,.38-5.19,0-10.42,.13-15.47,1.45-.24,.06-.4-.15-.38-.34-.14-.01-.27-.11-.26-.29,.75-12.52,1.52-25.04,2.82-37.52,.66-6.38,1.43-12.75,2.18-19.11-1.31,1.54-2.79,2.92-4.4,4.14-.09,.09-.22,.14-.37,.08-3.23-1.38-6-3.56-8.7-5.76-2.99-2.44-6-4.85-8.96-7.32-1.46-1.22-2.87-2.53-3.83-4.2,0-.02,0-.03-.02-.05-.12-.08-.19-.23-.08-.39Zm68.25-40.66c-2.53,.88-5.25,1.07-7.91,1.22-2.77,.15-5.55,.11-8.29-.31-2.51-.38-4.97-1.12-7.01-2.69-.53-.41-1.04-.85-1.56-1.29-.1-.09-.59-.58-.71-.52-.13,.07-.08,.74-.08,.92,0,.98,.21,1.96,.57,2.87,.06,0,.13,0,.2,.05,3.07,2.01,6.68,2.99,10.3,3.38,3.71,.4,7.55,.36,11.23-.31,2.12-.39,4.21-1.01,6.16-1.93,.09-.04,.17-.04,.24-.01,.91-1.16,1.69-2.43,2.16-3.81,.09-.26,.16-.51,.23-.77-1.62,1.41-3.5,2.5-5.53,3.21Zm-24.53,1.14c.6,1.06,1.43,2,2.22,2.92,.84,.98,1.77,1.89,2.92,2.5,1.13,.6,2.38,.92,3.63,1.2,1.37,.31,2.75,.63,4.14,.78,2.4,.26,4.78-.13,7-1.08,2.17-.93,4.12-2.32,5.81-3.95,.4-.39,.79-.79,1.17-1.21-3.32,1.4-6.91,2.02-10.5,2.15-3.77,.14-7.65-.1-11.29-1.13-1.79-.51-3.51-1.22-5.1-2.18Zm33.22-3.4s-.06-.02-.09-.04c-.09-.03-.14-.09-.18-.16-.68-.48-1.41-.89-2.17-1.21-.43,2.35-1.74,4.43-3.29,6.21-1.6,1.83-3.49,3.44-5.61,4.63-2.08,1.17-4.39,1.94-6.78,2.06-1.37,.07-2.74-.11-4.09-.36-1.35-.26-2.72-.54-4.04-.93-1.24-.37-2.41-.89-3.42-1.7-1.03-.82-1.87-1.87-2.7-2.88-.84-1.03-1.6-2.09-2.03-3.36-.38-1.11-.58-2.41-.41-3.59-.04,.01-.07,.03-.1,.04-.51,.19-1.02,.4-1.53,.59-.23,.09-.46,.18-.7,.27-.19,.07-.45,.13-.6,.27-.18,.18-.1,.47-.08,.69,.04,.31,.08,.61,.14,.92,.36,1.96,1.29,3.66,2.46,5.26,1.98,2.7,4.62,4.98,7.69,6.35,1.59,.71,3.29,1.14,5.03,1.28,2.1,.17,4.22,.02,6.31-.14,1.02-.08,2.04-.19,3.03-.48,.95-.28,1.85-.74,2.69-1.25,1.51-.92,2.95-1.99,4.27-3.17,2.82-2.51,5.15-5.61,6.32-9.22-.03-.03-.07-.05-.1-.07Zm-72.99,46.77c1.41,1.21,2.87,2.36,4.31,3.54,2.83,2.31,5.6,4.73,8.57,6.86,1.52,1.09,3.13,2.08,4.84,2.84,1.62-1.23,3.1-2.65,4.41-4.21,.11-.13,.25-.12,.35-.05,.68-5.77,1.35-11.54,1.92-17.33,.69-6.94,1.23-13.9,1.48-20.87,.01-.4,.63-.4,.62,0-.46,12.44-1.83,24.82-3.29,37.17-1.46,12.4-2.91,24.8-3.83,37.25-.52,7.02-.94,14.05-1.37,21.07,0,0,0,0,0,0,8.97-2.31,18.35-1.01,27.49-1.66,2.38-.17,4.74-.45,7.1-.8,2.31-.34,4.61-.68,6.95-.76,4.59-.16,9.15,.48,13.68,1.1,5.12,.7,10.3,1.39,15.47,.93,.03,0,.05,0,.08,0,.86-12.38-.4-24.8-1.4-37.13-1.02-12.53-2-25.07-3.08-37.59-.61-7.06-1.27-14.11-2.04-21.15-.04-.4,.58-.39,.62,0,1.38,12.5,2.38,25.03,3.4,37.56,.07,.9,.15,1.79,.22,2.69,.6,.72,1.21,1.44,1.81,2.16l.87,1.04c.09,.11,.23,.35,.35,.42,.24,.13,.59-.2,.78-.32,1.63-1.03,3.25-2.07,4.88-3.1l9.76-6.2c1.76-1.12,3.52-2.24,5.28-3.36-4.22-7.44-8.4-14.92-12.87-22.22-2.19-3.58-4.41-7.15-6.76-10.63-2.06-3.06-4.46-5.83-7.32-8.17-2.88-2.36-6.14-4.25-9.62-5.6-1.12,3.46-3.28,6.49-5.92,8.97-1.38,1.29-2.88,2.45-4.47,3.47-.84,.54-1.72,1.03-2.65,1.38-1.01,.38-2.07,.56-3.14,.67-2.26,.22-4.6,.38-6.87,.21-1.9-.14-3.75-.6-5.49-1.38-3.28-1.46-6.06-3.95-8.12-6.86-1.36-1.92-2.35-4.07-2.5-6.46,0-.09,0-.18,.01-.26-2.99,1.25-5.98,2.55-8.7,4.31-1.44,.93-2.79,1.99-3.99,3.22-1.32,1.35-2.4,2.91-3.45,4.47-4.52,6.73-9.1,13.41-13.78,20.03-2.61,3.7-5.25,7.37-7.91,11.03,.84,1.45,2.04,2.62,3.31,3.7Z"/>
    </g>
    <g>
      <path class="cls-2" d="M148.56,181.58c.64-.69,1.37-1.37,1.94-2.11,.45-.59,.69-1.26,1.03-1.91,.93-1.74,2.31-3.3,3.46-4.89,.15-.21,.33-.38,.52-.51l3.14-4.81c1.29-1.98,2.51-4.07,4.21-5.73,1.31-2.46,2.86-4.75,4.6-6.92,.04-.22,.12-.45,.26-.68,.57-.99,1.16-1.96,1.88-2.85,.54-.66,1.25-1.14,1.79-1.78,.66-.79,1.04-1.73,1.78-2.48,.76-.78,1.62-1.47,2.49-2.12,3.75-2.85,8.13-4.3,12.48-5.94,.45-.39,1.08-.57,1.78-.38,.6,.16,1.15,.43,1.6,.87,.11,.11,.21,.24,.31,.37,.28,.1,.55,.25,.78,.45,.75,.63,1.8,1.3,2.68,1.66,.08,.03,.16,.07,.23,.11,.34-.03,.69,.02,1.06,.19,.78,.36,1.61,.64,2.46,.86,.04,0,.07,0,.11-.01,2.35-.12,4.74,.17,7.08,.32,.14,0,.28,.03,.41,.06,3.03-.36,6.03-.77,9.02-1.36,.21-.17,.44-.3,.7-.4,1.22-.46,2.4-.93,3.49-1.66,.1-.06,.2-.11,.3-.16,.04-.06,.06-.11,.07-.13,.37-.87,1.17-1.43,2.15-1.3,.58,.08,1.06,.4,1.37,.84,.35,.21,.65,.46,.87,.78,2.51,.95,4.95,1.87,7.12,3.49,.7,.52,1.48,1.12,2.21,1.8,1.44,1,2.85,2.06,4.12,3.26,1.8,1.71,3.15,3.82,4.55,5.84,1.29,1.86,2.6,3.67,3.39,5.78,.51,.87,1.31,2.21,2.33,3.84,1.5,2.4,2.29,3.52,3.7,5.72,.79,1.24,1.94,3.06,3.29,5.33,.14,.27,.26,.57,.3,.87,.01,.07,.03,.15,.04,.23,.6,.91,.91,1.96,1.58,2.82,.5,.64,1.01,1.06,1.27,1.87,.1,.32,.14,.64,.15,.97,.3,.46,.59,.93,.85,1.41,.07,.06,.15,.12,.18,.15,.1,.14,.21,.27,.31,.41,.07,.16,.14,.32,.2,.48,0,.02,0,.04,.01,.06,.01,0,.03,.02,.04,.03,.2,.1,.39,.22,.55,.39,.01,.01,.02,.03,.03,.04,.18,.15,.34,.33,.46,.54,0,.02,.02,.04,.03,.06,.15,.23,.23,.48,.24,.75,.06,.27,.05,.53-.04,.8-.06,.26-.18,.49-.36,.68-.14,.22-.33,.39-.56,.52-.16,.07-.32,.14-.48,.2-.23,.06-.45,.08-.68,.06-.11,.06-.22,.12-.32,.19-.04,.03-.09,.06-.13,.09-.03,.03-.07,.06-.1,.09-.25,.38-.63,.67-1.08,.73-.04,0-.07,.01-.1,.02-.25,.23-.53,.44-.86,.63-.58,.32-1.15,.63-1.73,.93-.16,.29-.42,.54-.81,.74-4.34,2.19-8.33,5.07-12.38,7.73-1.48,.97-2.89-.35-2.95-1.73-.37-.16-.69-.42-.9-.81-.11-.21-.2-.41-.26-.62-.17-.08-.33-.16-.49-.25-.01,2.91,.32,5.83,.54,8.75,.28,.24,.48,.55,.55,.94,.16,.87,.26,1.76,.24,2.65,0,.28-.08,.57-.2,.82,.42,5.51,.84,11.02,1.26,16.53,.18,.86,.24,1.76,.33,2.45,.3,2.4,.31,4.82,.35,7.24,.08,4.98,.17,9.96,.25,14.94,.03,1.59-1.49,2.2-2.66,1.84-.32,.1-.68,.12-1.08,.03-.08-.02-.15-.03-.23-.05-.21,.06-.44,.09-.7,.07-6.52-.47-13.04-2.09-19.59-1.91-.39,.01-.72-.07-.99-.22-2.05,.16-4.13-.07-6.19-.01-2.34,.07-4.63,.35-6.94,.72-2.17,.35-4.32,.57-6.53,.61-1.1,.02-2.25,.11-3.39,.08-6.55,.57-13.16,.15-19.69,.91-.23,.03-.44,.02-.63-.02-.05,.03-.08,.07-.13,.09-.23,.15-.48,.23-.75,.24-.27,.06-.53,.05-.8-.04-.03-.01-.05-.02-.08-.03-.03,.05-.08,.08-.13,.11-.12,.05-.23,.12-.33,.2,0,0,0,0,0,0-.06,.05-.13,.1-.2,.12-.04,0-.08,.01-.12,.02-.06,0-.12-.01-.18-.04-.04-.01-.07-.03-.1-.06-.03-.02-.06-.05-.08-.08-.03-.03-.05-.06-.06-.1-.03-.06-.04-.11-.04-.18,.01-.21,.03-.43,.04-.64,0-.06,.01-.12,.04-.18,0-.03,.02-.05,.03-.07-.06-.15-.13-.3-.19-.45-.1-.36-.1-.71,0-1.07,.08-.19,.14-.36,.22-.51-.02-.15-.03-.31-.02-.48,.12-1.6,.29-3.2,.49-4.79-.31-.32-.49-.78-.43-1.39,.46-4.71,1.05-9.43,1.37-14.15,.16-2.27,.02-4.53,.3-6.8,.19-1.54,.29-3.34,.88-4.85,.21-7.26,1.5-14.41,2.26-21.62-.16,.04-.34,.06-.53,.06,.8,0-.17,.71-.49,1.03-.41,.41-.9,.73-1.3,1.15-.71,.75-1.07,1.75-2.15,2.09-2.1,.64-4.65-1.82-6.12-3-.87-.7-1.7-1.45-2.48-2.24-.07-.04-.14-.08-.21-.13-2.4-1.59-4.46-3.62-6.8-5.28-1.21-.86-2.62-1.9-3.5-3.2-.74-.36-1.33-1-1.93-1.75-.7-.88-.8-1.97,0-2.84Z"/>
      <path class="cls-1" d="M147.34,182.87c4.87-6.69,9.65-13.44,14.35-20.25,2.32-3.36,4.62-6.74,6.89-10.14,1.07-1.59,2.12-3.19,3.38-4.64,1.14-1.32,2.47-2.46,3.89-3.47,3.21-2.27,6.88-3.8,10.49-5.31,.09-.04,.17-.03,.23,0,.49-.22,1.01-.39,1.5-.58,.75-.29,2-1.05,2.71-.29,.04,.05,.06,.1,.07,.15,.41,.3,.78,.69,1.15,1,1.06,.89,2.18,1.64,3.47,2.14,2.61,1.03,5.52,1.32,8.3,1.39,1.5,.04,3,0,4.49-.11,1.48-.1,2.97-.21,4.43-.46,2.56-.44,4.98-1.46,7.07-3.01,.5-.37,.97-.78,1.43-1.2-.02-.2,.13-.42,.37-.33,1.08,.4,2.08,.95,3,1.63,6.67,2.45,12.52,6.86,16.7,12.6,1.24,1.71,2.38,3.49,3.52,5.27,1.16,1.8,2.3,3.61,3.42,5.43,2.27,3.66,4.48,7.36,6.63,11.1,2.45,4.25,4.86,8.53,7.28,12.8,.05,.09,.05,.18,.02,.25,.06,.13,.05,.3-.11,.4-6.83,4.34-13.63,8.74-20.49,13.02-.34,.21-.69,.34-1.04,.07-.38-.3-.68-.78-.99-1.15-.54-.65-1.08-1.29-1.62-1.94,.41,5.05,.82,10.09,1.23,15.14,.51,6.26,1.06,12.52,1.45,18.78,.44,7.08,.62,14.19,.09,21.28-.03,.39-.65,.4-.62,0,0-.01,0-.02,0-.03-.01,0-.03,.01-.04,.01-9.19,.81-18.18-1.97-27.33-2.05-4.69-.04-9.26,.98-13.91,1.42-4.64,.44-9.29,.39-13.95,.38-5.19,0-10.42,.13-15.47,1.45-.24,.06-.4-.15-.38-.34-.14-.01-.27-.11-.26-.29,.75-12.52,1.52-25.04,2.82-37.52,.66-6.38,1.43-12.75,2.18-19.11-1.31,1.54-2.79,2.92-4.4,4.14-.09,.09-.22,.14-.37,.08-3.23-1.38-6-3.56-8.7-5.76-2.99-2.44-6-4.85-8.96-7.32-1.46-1.22-2.87-2.53-3.83-4.2,0-.02,0-.03-.02-.05-.12-.08-.19-.23-.08-.39Zm68.25-40.66c-2.53,.88-5.25,1.07-7.91,1.22-2.77,.15-5.55,.11-8.29-.31-2.51-.38-4.97-1.12-7.01-2.69-.53-.41-1.04-.85-1.56-1.29-.1-.09-.59-.58-.71-.52-.13,.07-.08,.74-.08,.92,0,.98,.21,1.96,.57,2.87,.06,0,.13,0,.2,.05,3.07,2.01,6.68,2.99,10.3,3.38,3.71,.4,7.55,.36,11.23-.31,2.12-.39,4.21-1.01,6.16-1.93,.09-.04,.17-.04,.24-.01,.91-1.16,1.69-2.43,2.16-3.81,.09-.26,.16-.51,.23-.77-1.62,1.41-3.5,2.5-5.53,3.21Zm-24.53,1.14c.6,1.06,1.43,2,2.22,2.92,.84,.98,1.77,1.89,2.92,2.5,1.13,.6,2.38,.92,3.63,1.2,1.37,.31,2.75,.63,4.14,.78,2.4,.26,4.78-.13,7-1.08,2.17-.93,4.12-2.32,5.81-3.95,.4-.39,.79-.79,1.17-1.21-3.32,1.4-6.91,2.02-10.5,2.15-3.77,.14-7.65-.1-11.29-1.13-1.79-.51-3.51-1.22-5.1-2.18Zm33.22-3.4s-.06-.02-.09-.04c-.09-.03-.14-.09-.18-.16-.68-.48-1.41-.89-2.17-1.21-.43,2.35-1.74,4.43-3.29,6.21-1.6,1.83-3.49,3.44-5.61,4.63-2.08,1.17-4.39,1.94-6.78,2.06-1.37,.07-2.74-.11-4.09-.36-1.35-.26-2.72-.54-4.04-.93-1.24-.37-2.41-.89-3.42-1.7-1.03-.82-1.87-1.87-2.7-2.88-.84-1.03-1.6-2.09-2.03-3.36-.38-1.11-.58-2.41-.41-3.59-.04,.01-.07,.03-.1,.04-.51,.19-1.02,.4-1.53,.59-.23,.09-.46,.18-.7,.27-.19,.07-.45,.13-.6,.27-.18,.18-.1,.47-.08,.69,.04,.31,.08,.61,.14,.92,.36,1.96,1.29,3.66,2.46,5.26,1.98,2.7,4.62,4.98,7.69,6.35,1.59,.71,3.29,1.14,5.03,1.28,2.1,.17,4.22,.02,6.31-.14,1.02-.08,2.04-.19,3.03-.48,.95-.28,1.85-.74,2.69-1.25,1.51-.92,2.95-1.99,4.27-3.17,2.82-2.51,5.15-5.61,6.32-9.22-.03-.03-.07-.05-.1-.07Zm-72.99,46.77c1.41,1.21,2.87,2.36,4.31,3.54,2.83,2.31,5.6,4.73,8.57,6.86,1.52,1.09,3.13,2.08,4.84,2.84,1.62-1.23,3.1-2.65,4.41-4.21,.11-.13,.25-.12,.35-.05,.68-5.77,1.35-11.54,1.92-17.33,.69-6.94,1.23-13.9,1.48-20.87,.01-.4,.63-.4,.62,0-.46,12.44-1.83,24.82-3.29,37.17-1.46,12.4-2.91,24.8-3.83,37.25-.52,7.02-.94,14.05-1.37,21.07,0,0,0,0,0,0,8.97-2.31,18.35-1.01,27.49-1.66,2.38-.17,4.74-.45,7.1-.8,2.31-.34,4.61-.68,6.95-.76,4.59-.16,9.15,.48,13.68,1.1,5.12,.7,10.3,1.39,15.47,.93,.03,0,.05,0,.08,0,.86-12.38-.4-24.8-1.4-37.13-1.02-12.53-2-25.07-3.08-37.59-.61-7.06-1.27-14.11-2.04-21.15-.04-.4,.58-.39,.62,0,1.38,12.5,2.38,25.03,3.4,37.56,.07,.9,.15,1.79,.22,2.69,.6,.72,1.21,1.44,1.81,2.16l.87,1.04c.09,.11,.23,.35,.35,.42,.24,.13,.59-.2,.78-.32,1.63-1.03,3.25-2.07,4.88-3.1l9.76-6.2c1.76-1.12,3.52-2.24,5.28-3.36-4.22-7.44-8.4-14.92-12.87-22.22-2.19-3.58-4.41-7.15-6.76-10.63-2.06-3.06-4.46-5.83-7.32-8.17-2.88-2.36-6.14-4.25-9.62-5.6-1.12,3.46-3.28,6.49-5.92,8.97-1.38,1.29-2.88,2.45-4.47,3.47-.84,.54-1.72,1.03-2.65,1.38-1.01,.38-2.07,.56-3.14,.67-2.26,.22-4.6,.38-6.87,.21-1.9-.14-3.75-.6-5.49-1.38-3.28-1.46-6.06-3.95-8.12-6.86-1.36-1.92-2.35-4.07-2.5-6.46,0-.09,0-.18,.01-.26-2.99,1.25-5.98,2.55-8.7,4.31-1.44,.93-2.79,1.99-3.99,3.22-1.32,1.35-2.4,2.91-3.45,4.47-4.52,6.73-9.1,13.41-13.78,20.03-2.61,3.7-5.25,7.37-7.91,11.03,.84,1.45,2.04,2.62,3.31,3.7Z"/>
    </g>
    <g>
      <path class="cls-3" d="M24.87,182.93c.64-.69,1.37-1.37,1.94-2.11,.45-.59,.69-1.26,1.03-1.91,.93-1.74,2.31-3.3,3.46-4.89,.15-.21,.33-.38,.52-.51l3.14-4.81c1.29-1.98,2.51-4.07,4.21-5.73,1.31-2.46,2.86-4.75,4.6-6.92,.04-.22,.12-.45,.26-.68,.57-.99,1.16-1.96,1.88-2.85,.54-.66,1.25-1.14,1.79-1.78,.66-.79,1.04-1.73,1.78-2.48,.76-.78,1.62-1.47,2.49-2.12,3.75-2.85,8.13-4.3,12.48-5.94,.45-.39,1.08-.57,1.78-.38,.6,.16,1.15,.43,1.6,.87,.11,.11,.21,.24,.31,.37,.28,.1,.55,.25,.78,.45,.75,.63,1.8,1.3,2.68,1.66,.08,.03,.16,.07,.23,.11,.34-.03,.69,.02,1.06,.19,.78,.36,1.61,.64,2.46,.86,.04,0,.07,0,.11-.01,2.35-.12,4.74,.17,7.08,.32,.14,0,.28,.03,.41,.06,3.03-.36,6.03-.77,9.02-1.36,.21-.17,.44-.3,.7-.4,1.22-.46,2.4-.93,3.49-1.66,.1-.06,.2-.11,.3-.16,.04-.06,.06-.11,.07-.13,.37-.87,1.17-1.43,2.15-1.3,.58,.08,1.06,.4,1.37,.84,.35,.21,.65,.46,.87,.78,2.51,.95,4.95,1.87,7.12,3.49,.7,.52,1.48,1.12,2.21,1.8,1.44,1,2.85,2.06,4.12,3.26,1.8,1.71,3.15,3.82,4.55,5.84,1.29,1.86,2.6,3.67,3.39,5.78,.51,.87,1.31,2.21,2.33,3.84,1.5,2.4,2.29,3.52,3.7,5.72,.79,1.24,1.94,3.06,3.29,5.33,.14,.27,.26,.57,.3,.87,.01,.07,.03,.15,.04,.23,.6,.91,.91,1.96,1.58,2.82,.5,.64,1.01,1.06,1.27,1.87,.1,.32,.14,.64,.15,.97,.3,.46,.59,.93,.85,1.41,.07,.06,.15,.12,.18,.15,.1,.14,.21,.27,.31,.41,.07,.16,.14,.32,.2,.48,0,.02,0,.04,.01,.06,.01,0,.03,.02,.04,.03,.2,.1,.39,.22,.55,.39,.01,.01,.02,.03,.03,.04,.18,.15,.34,.33,.46,.54,0,.02,.02,.04,.03,.06,.15,.23,.23,.48,.24,.75,.06,.27,.05,.53-.04,.8-.06,.26-.18,.49-.36,.68-.14,.22-.33,.39-.56,.52-.16,.07-.32,.14-.48,.2-.23,.06-.45,.08-.68,.06-.11,.06-.22,.12-.32,.19-.04,.03-.09,.06-.13,.09-.03,.03-.07,.06-.1,.09-.25,.38-.63,.67-1.08,.73-.04,0-.07,.01-.1,.02-.25,.23-.53,.44-.86,.63-.58,.32-1.15,.63-1.73,.93-.16,.29-.42,.54-.81,.74-4.34,2.19-8.33,5.07-12.38,7.73-1.48,.97-2.89-.35-2.95-1.73-.37-.16-.69-.42-.9-.81-.11-.21-.2-.41-.26-.62-.17-.08-.33-.16-.49-.25-.01,2.91,.32,5.83,.54,8.75,.28,.24,.48,.55,.55,.94,.16,.87,.26,1.76,.24,2.65,0,.28-.08,.57-.2,.82,.42,5.51,.84,11.02,1.26,16.53,.18,.86,.24,1.76,.33,2.45,.3,2.4,.31,4.82,.35,7.24,.08,4.98,.17,9.96,.25,14.94,.03,1.59-1.49,2.2-2.66,1.84-.32,.1-.68,.12-1.08,.03-.08-.02-.15-.03-.23-.05-.21,.06-.44,.09-.7,.07-6.52-.47-13.04-2.09-19.59-1.91-.39,.01-.72-.07-.99-.22-2.05,.16-4.13-.07-6.19-.01-2.34,.07-4.63,.35-6.94,.72-2.17,.35-4.32,.57-6.53,.61-1.1,.02-2.25,.11-3.39,.08-6.55,.57-13.16,.15-19.69,.91-.23,.03-.44,.02-.63-.02-.05,.03-.08,.07-.13,.09-.23,.15-.48,.23-.75,.24-.27,.06-.53,.05-.8-.04-.03-.01-.05-.02-.08-.03-.03,.05-.08,.08-.13,.11-.12,.05-.23,.12-.33,.2,0,0,0,0,0,0-.06,.05-.13,.1-.2,.12-.04,0-.08,.01-.12,.02-.06,0-.12-.01-.18-.04-.04-.01-.07-.03-.1-.06-.03-.02-.06-.05-.08-.08-.03-.03-.05-.06-.06-.1-.03-.06-.04-.11-.04-.18,.01-.21,.03-.43,.04-.64,0-.06,.01-.12,.04-.18,0-.03,.02-.05,.03-.07-.06-.15-.13-.3-.19-.45-.1-.36-.1-.71,0-1.07,.08-.19,.14-.36,.22-.51-.02-.15-.03-.31-.02-.48,.12-1.6,.29-3.2,.49-4.79-.31-.32-.49-.78-.43-1.39,.46-4.71,1.05-9.43,1.37-14.15,.16-2.27,.02-4.53,.3-6.8,.19-1.54,.29-3.34,.88-4.85,.21-7.26,1.5-14.41,2.26-21.62-.16,.04-.34,.06-.53,.06,.8,0-.17,.71-.49,1.03-.41,.41-.9,.73-1.3,1.15-.71,.75-1.07,1.75-2.15,2.09-2.1,.64-4.65-1.82-6.12-3-.87-.7-1.7-1.45-2.48-2.24-.07-.04-.14-.08-.21-.13-2.4-1.59-4.46-3.62-6.8-5.28-1.21-.86-2.62-1.9-3.5-3.2-.74-.36-1.33-1-1.93-1.75-.7-.88-.8-1.97,0-2.84Z"/>
      <path class="cls-1" d="M23.65,184.23c4.87-6.69,9.65-13.44,14.35-20.25,2.32-3.36,4.62-6.74,6.89-10.14,1.07-1.59,2.12-3.19,3.38-4.64,1.14-1.32,2.47-2.46,3.89-3.47,3.21-2.27,6.88-3.8,10.49-5.31,.09-.04,.17-.03,.23,0,.49-.22,1.01-.39,1.5-.58,.75-.29,2-1.05,2.71-.29,.04,.05,.06,.1,.07,.15,.41,.3,.78,.69,1.15,1,1.06,.89,2.18,1.64,3.47,2.14,2.61,1.03,5.52,1.32,8.3,1.39,1.5,.04,3,0,4.49-.11,1.48-.1,2.97-.21,4.43-.46,2.56-.44,4.98-1.46,7.07-3.01,.5-.37,.97-.78,1.43-1.2-.02-.2,.13-.42,.37-.33,1.08,.4,2.08,.95,3,1.63,6.67,2.45,12.52,6.86,16.7,12.6,1.24,1.71,2.38,3.49,3.52,5.27,1.16,1.8,2.3,3.61,3.42,5.43,2.27,3.66,4.48,7.36,6.63,11.1,2.45,4.25,4.86,8.53,7.28,12.8,.05,.09,.05,.18,.02,.25,.06,.13,.05,.3-.11,.4-6.83,4.34-13.63,8.74-20.49,13.02-.34,.21-.69,.34-1.04,.07-.38-.3-.68-.78-.99-1.15-.54-.65-1.08-1.29-1.62-1.94,.41,5.05,.82,10.09,1.23,15.14,.51,6.26,1.06,12.52,1.45,18.78,.44,7.08,.62,14.19,.09,21.28-.03,.39-.65,.4-.62,0,0-.01,0-.02,0-.03-.01,0-.03,.01-.04,.01-9.19,.81-18.18-1.97-27.33-2.05-4.69-.04-9.26,.98-13.91,1.42-4.64,.44-9.29,.39-13.95,.38-5.19,0-10.42,.13-15.47,1.45-.24,.06-.4-.15-.38-.34-.14-.01-.27-.11-.26-.29,.75-12.52,1.52-25.04,2.82-37.52,.66-6.38,1.43-12.75,2.18-19.11-1.31,1.54-2.79,2.92-4.4,4.14-.09,.09-.22,.14-.37,.08-3.23-1.38-6-3.56-8.7-5.76-2.99-2.44-6-4.85-8.96-7.32-1.46-1.22-2.87-2.53-3.83-4.2,0-.02,0-.03-.02-.05-.12-.08-.19-.23-.08-.39Zm68.25-40.66c-2.53,.88-5.25,1.07-7.91,1.22-2.77,.15-5.55,.11-8.29-.31-2.51-.38-4.97-1.12-7.01-2.69-.53-.41-1.04-.85-1.56-1.29-.1-.09-.59-.58-.71-.52-.13,.07-.08,.74-.08,.92,0,.98,.21,1.96,.57,2.87,.06,0,.13,0,.2,.05,3.07,2.01,6.68,2.99,10.3,3.38,3.71,.4,7.55,.36,11.23-.31,2.12-.39,4.21-1.01,6.16-1.93,.09-.04,.17-.04,.24-.01,.91-1.16,1.69-2.43,2.16-3.81,.09-.26,.16-.51,.23-.77-1.62,1.41-3.5,2.5-5.53,3.21Zm-24.53,1.14c.6,1.06,1.43,2,2.22,2.92,.84,.98,1.77,1.89,2.92,2.5,1.13,.6,2.38,.92,3.63,1.2,1.37,.31,2.75,.63,4.14,.78,2.4,.26,4.78-.13,7-1.08,2.17-.93,4.12-2.32,5.81-3.95,.4-.39,.79-.79,1.17-1.21-3.32,1.4-6.91,2.02-10.5,2.15-3.77,.14-7.65-.1-11.29-1.13-1.79-.51-3.51-1.22-5.1-2.18Zm33.22-3.4s-.06-.02-.09-.04c-.09-.03-.14-.09-.18-.16-.68-.48-1.41-.89-2.17-1.21-.43,2.35-1.74,4.43-3.29,6.21-1.6,1.83-3.49,3.44-5.61,4.63-2.08,1.17-4.39,1.94-6.78,2.06-1.37,.07-2.74-.11-4.09-.36-1.35-.26-2.72-.54-4.04-.93-1.24-.37-2.41-.89-3.42-1.7-1.03-.82-1.87-1.87-2.7-2.88-.84-1.03-1.6-2.09-2.03-3.36-.38-1.11-.58-2.41-.41-3.59-.04,.01-.07,.03-.1,.04-.51,.19-1.02,.4-1.53,.59-.23,.09-.46,.18-.7,.27-.19,.07-.45,.13-.6,.27-.18,.18-.1,.47-.08,.69,.04,.31,.08,.61,.14,.92,.36,1.96,1.29,3.66,2.46,5.26,1.98,2.7,4.62,4.98,7.69,6.35,1.59,.71,3.29,1.14,5.03,1.28,2.1,.17,4.22,.02,6.31-.14,1.02-.08,2.04-.19,3.03-.48,.95-.28,1.85-.74,2.69-1.25,1.51-.92,2.95-1.99,4.27-3.17,2.82-2.51,5.15-5.61,6.32-9.22-.03-.03-.07-.05-.1-.07ZM27.6,188.08c1.41,1.21,2.87,2.36,4.31,3.54,2.83,2.31,5.6,4.73,8.57,6.86,1.52,1.09,3.13,2.08,4.84,2.84,1.62-1.23,3.1-2.65,4.41-4.21,.11-.13,.25-.12,.35-.05,.68-5.77,1.35-11.54,1.92-17.33,.69-6.94,1.23-13.9,1.48-20.87,.01-.4,.63-.4,.62,0-.46,12.44-1.83,24.82-3.29,37.17-1.46,12.4-2.91,24.8-3.83,37.25-.52,7.02-.94,14.05-1.37,21.07,0,0,0,0,0,0,8.97-2.31,18.35-1.01,27.49-1.66,2.38-.17,4.74-.45,7.1-.8,2.31-.34,4.61-.68,6.95-.76,4.59-.16,9.15,.48,13.68,1.1,5.12,.7,10.3,1.39,15.47,.93,.03,0,.05,0,.08,0,.86-12.38-.4-24.8-1.4-37.13-1.02-12.53-2-25.07-3.08-37.59-.61-7.06-1.27-14.11-2.04-21.15-.04-.4,.58-.39,.62,0,1.38,12.5,2.38,25.03,3.4,37.56,.07,.9,.15,1.79,.22,2.69,.6,.72,1.21,1.44,1.81,2.16l.87,1.04c.09,.11,.23,.35,.35,.42,.24,.13,.59-.2,.78-.32,1.63-1.03,3.25-2.07,4.88-3.1l9.76-6.2c1.76-1.12,3.52-2.24,5.28-3.36-4.22-7.44-8.4-14.92-12.87-22.22-2.19-3.58-4.41-7.15-6.76-10.63-2.06-3.06-4.46-5.83-7.32-8.17-2.88-2.36-6.14-4.25-9.62-5.6-1.12,3.46-3.28,6.49-5.92,8.97-1.38,1.29-2.88,2.45-4.47,3.47-.84,.54-1.72,1.03-2.65,1.38-1.01,.38-2.07,.56-3.14,.67-2.26,.22-4.6,.38-6.87,.21-1.9-.14-3.75-.6-5.49-1.38-3.28-1.46-6.06-3.95-8.12-6.86-1.36-1.92-2.35-4.07-2.5-6.46,0-.09,0-.18,.01-.26-2.99,1.25-5.98,2.55-8.7,4.31-1.44,.93-2.79,1.99-3.99,3.22-1.32,1.35-2.4,2.91-3.45,4.47-4.52,6.73-9.1,13.41-13.78,20.03-2.61,3.7-5.25,7.37-7.91,11.03,.84,1.45,2.04,2.62,3.31,3.7Z"/>
    </g>
  </g>
</svg>