<?xml version="1.0" encoding="UTF-8"?>
<svg id="Layer_2" data-name="Layer 2" xmlns="http://www.w3.org/2000/svg" viewBox="0 0 743 506">
  <defs>
    <style>
      .cls-1 {
        fill: #c07c65;
      }

      .cls-2 {
        fill: #627096;
      }

      .cls-3 {
        fill: #566285;
      }

      .cls-4 {
        fill: #6073a6;
      }

      .cls-5 {
        fill: #f2ebdc;
        opacity: .2;
      }
    </style>
  </defs>
  <g id="Layer_2-2" data-name="Layer 2">
    <rect id="Rectangle_38" data-name="Rectangle 38" class="cls-1" width="743" height="506"/>
    <rect class="cls-5" y="405" width="743" height="101"/>
  </g>
  <g id="Layer_1-2" data-name="Layer 1">
    <g>
      <path class="cls-4" d="M481.95,195.02c1.04-1.13,2.23-2.23,3.16-3.45,.74-.97,1.12-2.06,1.69-3.12,1.51-2.83,3.76-5.39,5.64-7.98,.25-.35,.54-.62,.84-.83l5.12-7.84c2.1-3.22,4.09-6.64,6.87-9.34,2.14-4,4.66-7.74,7.5-11.28,.07-.36,.2-.74,.42-1.11,.93-1.61,1.89-3.2,3.07-4.64,.88-1.07,2.04-1.86,2.92-2.91,1.07-1.29,1.7-2.81,2.91-4.05,1.24-1.27,2.65-2.39,4.06-3.46,6.11-4.65,13.25-7.02,20.36-9.69,.74-.64,1.76-.93,2.9-.62,.98,.27,1.88,.7,2.62,1.42,.19,.18,.35,.39,.5,.6,.46,.16,.89,.41,1.28,.73,1.22,1.03,2.94,2.11,4.37,2.71,.13,.05,.25,.11,.38,.18,.55-.05,1.13,.04,1.73,.32,1.27,.59,2.62,1.05,4.02,1.4,.06,0,.12-.01,.18-.02,3.83-.19,7.73,.28,11.55,.52,.23,.01,.45,.05,.66,.1,4.94-.58,9.84-1.26,14.71-2.22,.34-.27,.72-.49,1.15-.65,1.99-.75,3.91-1.52,5.69-2.7,.16-.1,.32-.19,.5-.25,.06-.1,.1-.17,.12-.2,.6-1.42,1.91-2.33,3.5-2.12,.95,.13,1.73,.65,2.23,1.38,.57,.34,1.06,.74,1.42,1.27,4.1,1.55,8.07,3.05,11.62,5.69,1.14,.85,2.42,1.83,3.6,2.94,2.35,1.64,4.65,3.36,6.72,5.32,2.94,2.78,5.13,6.22,7.43,9.53,2.1,3.03,4.24,5.99,5.53,9.42,.83,1.41,2.14,3.6,3.8,6.26,2.45,3.91,3.74,5.74,6.04,9.33,1.29,2.02,3.16,4.99,5.36,8.7,.23,.45,.42,.93,.5,1.42,.02,.12,.04,.25,.07,.37,.98,1.49,1.48,3.2,2.57,4.6,.82,1.05,1.65,1.74,2.07,3.06,.16,.52,.24,1.05,.24,1.59,.5,.75,.97,1.51,1.39,2.31,.12,.09,.24,.19,.3,.25,.17,.22,.34,.44,.51,.66,.11,.26,.22,.52,.33,.78,0,.03,.02,.07,.02,.1,.02,.02,.04,.03,.06,.05,.33,.16,.63,.36,.9,.63,.02,.02,.03,.04,.05,.06,.3,.24,.55,.53,.75,.87,.02,.03,.03,.06,.05,.09,.24,.38,.37,.78,.39,1.22,.1,.44,.08,.87-.06,1.31-.1,.43-.3,.8-.59,1.11-.23,.36-.54,.64-.92,.84-.26,.11-.52,.22-.78,.33-.37,.1-.74,.13-1.11,.1-.18,.1-.36,.2-.53,.31-.07,.05-.14,.1-.21,.15-.06,.05-.11,.1-.16,.15-.42,.62-1.02,1.09-1.76,1.2-.06,0-.11,.02-.17,.03-.4,.38-.86,.72-1.4,1.02-.94,.52-1.88,1.03-2.83,1.52-.27,.47-.69,.88-1.31,1.2-7.07,3.57-13.58,8.26-20.19,12.6-2.42,1.59-4.72-.56-4.8-2.82-.6-.25-1.13-.69-1.47-1.32-.18-.34-.32-.67-.43-1-.27-.12-.54-.27-.8-.41-.02,4.75,.53,9.5,.88,14.26,.45,.39,.78,.9,.9,1.53,.26,1.42,.43,2.87,.4,4.32,0,.46-.13,.92-.32,1.34,.69,8.98,1.37,17.97,2.06,26.95,.29,1.4,.39,2.87,.53,3.99,.49,3.92,.51,7.87,.57,11.81,.14,8.12,.27,16.24,.41,24.36,.04,2.6-2.42,3.59-4.34,2.99-.52,.17-1.11,.2-1.76,.05-.13-.03-.25-.05-.38-.08-.34,.1-.72,.14-1.15,.11-10.64-.76-21.25-3.41-31.94-3.12-.63,.02-1.17-.12-1.61-.35-3.35,.26-6.73-.11-10.09-.02-3.81,.11-7.55,.57-11.32,1.17-3.55,.57-7.05,.93-10.64,.99-1.79,.03-3.67,.18-5.52,.13-10.67,.94-21.45,.25-32.1,1.49-.38,.04-.72,.03-1.02-.03-.07,.05-.14,.11-.22,.15-.38,.24-.78,.37-1.22,.39-.44,.1-.87,.08-1.31-.06-.04-.02-.09-.04-.13-.05-.06,.07-.12,.14-.21,.18-.19,.09-.37,.2-.54,.32,0,0,0,0,0,0-.1,.08-.21,.16-.33,.19-.07,0-.13,.02-.2,.03-.1,0-.2-.02-.29-.07-.06-.02-.12-.05-.17-.1-.06-.03-.1-.08-.14-.14-.05-.05-.08-.1-.1-.17-.05-.09-.07-.19-.07-.29,.02-.35,.05-.7,.07-1.05,0-.1,.02-.2,.07-.29,.01-.04,.03-.08,.06-.12-.1-.25-.21-.49-.31-.74-.16-.58-.16-1.16,0-1.74,.12-.31,.23-.58,.36-.83-.04-.24-.05-.5-.03-.78,.19-2.61,.47-5.22,.8-7.82-.51-.52-.8-1.27-.71-2.27,.75-7.68,1.7-15.37,2.24-23.07,.26-3.71,.03-7.39,.48-11.09,.31-2.51,.47-5.44,1.43-7.91,.34-11.84,2.45-23.5,3.68-35.26-.27,.06-.55,.1-.87,.1,1.31,.01-.27,1.15-.8,1.69-.67,.67-1.47,1.19-2.12,1.88-1.16,1.23-1.74,2.86-3.51,3.4-3.42,1.05-7.58-2.97-9.99-4.89-1.42-1.14-2.77-2.36-4.04-3.66-.12-.06-.23-.13-.35-.21-3.92-2.6-7.27-5.9-11.09-8.61-1.97-1.4-4.27-3.1-5.71-5.22-1.21-.59-2.17-1.63-3.15-2.86-1.14-1.43-1.31-3.21,0-4.63Z"/>
      <path class="cls-1" d="M479.96,197.13c7.94-10.9,15.74-21.91,23.4-33.01,3.78-5.48,7.53-10.99,11.24-16.53,1.74-2.59,3.46-5.21,5.51-7.57,1.87-2.15,4.03-4.02,6.35-5.66,5.24-3.71,11.21-6.2,17.11-8.65,.15-.06,.28-.05,.37,.01,.79-.36,1.64-.64,2.45-.95,1.22-.48,3.27-1.7,4.42-.47,.07,.08,.1,.16,.12,.24,.66,.49,1.27,1.13,1.88,1.63,1.73,1.45,3.55,2.67,5.66,3.5,4.26,1.68,9,2.15,13.54,2.26,2.44,.06,4.88-.01,7.32-.17,2.41-.16,4.84-.34,7.22-.75,4.17-.72,8.12-2.39,11.52-4.91,.81-.61,1.59-1.27,2.33-1.96-.04-.33,.21-.69,.6-.54,1.76,.66,3.39,1.56,4.9,2.66,10.88,3.99,20.41,11.18,27.24,20.54,2.03,2.78,3.87,5.7,5.73,8.59,1.88,2.93,3.74,5.88,5.58,8.85,3.7,5.97,7.3,12.01,10.81,18.1,3.99,6.94,7.92,13.91,11.87,20.87,.08,.15,.08,.29,.04,.41,.1,.21,.08,.49-.18,.65-11.14,7.07-22.22,14.25-33.41,21.23-.56,.35-1.13,.55-1.69,.11-.61-.48-1.11-1.27-1.61-1.87-.88-1.05-1.77-2.11-2.65-3.16,.67,8.23,1.34,16.45,2.01,24.68,.83,10.21,1.74,20.41,2.37,30.63,.72,11.55,1.02,23.14,.15,34.69-.05,.64-1.06,.65-1.01,0,0-.02,0-.03,0-.05-.02,0-.04,.02-.07,.02-14.98,1.32-29.64-3.22-44.57-3.35-7.64-.07-15.1,1.6-22.68,2.32-7.57,.71-15.15,.63-22.75,.63-8.46,0-16.99,.21-25.22,2.37-.39,.1-.65-.24-.62-.55-.23-.02-.45-.17-.43-.48,1.23-20.42,2.48-40.83,4.59-61.18,1.08-10.4,2.33-20.78,3.56-31.17-2.14,2.51-4.55,4.77-7.18,6.76-.15,.15-.37,.23-.6,.13-5.26-2.25-9.79-5.81-14.19-9.4-4.88-3.97-9.78-7.91-14.61-11.94-2.38-1.99-4.68-4.13-6.24-6.84-.01-.03-.02-.05-.03-.08-.2-.13-.31-.38-.13-.63Zm111.28-66.29c-4.12,1.44-8.57,1.74-12.89,1.98-4.51,.25-9.05,.18-13.52-.5-4.1-.62-8.11-1.83-11.43-4.38-.87-.67-1.7-1.39-2.54-2.1-.17-.14-.97-.95-1.15-.85-.21,.11-.14,1.21-.13,1.5,.01,1.6,.34,3.2,.94,4.68,.1-.02,.21,0,.32,.08,5.01,3.28,10.89,4.87,16.79,5.51,6.05,.65,12.31,.59,18.3-.5,3.46-.63,6.86-1.65,10.04-3.15,.14-.07,.28-.06,.39-.02,1.49-1.89,2.75-3.96,3.52-6.22,.14-.42,.26-.84,.37-1.26-2.65,2.29-5.7,4.08-9.01,5.24Zm-39.99,1.86c.98,1.73,2.33,3.26,3.62,4.75,1.38,1.6,2.88,3.08,4.76,4.08,1.84,.98,3.89,1.5,5.91,1.96,2.23,.51,4.48,1.03,6.75,1.28,3.91,.42,7.8-.21,11.41-1.76,3.53-1.52,6.72-3.78,9.48-6.44,.65-.63,1.29-1.29,1.9-1.97-5.41,2.29-11.26,3.29-17.12,3.51-6.15,.23-12.47-.16-18.41-1.85-2.91-.83-5.72-1.99-8.31-3.56Zm54.17-5.55c-.05-.02-.1-.04-.15-.06-.14-.05-.23-.15-.29-.26-1.11-.78-2.29-1.45-3.54-1.97-.7,3.83-2.83,7.22-5.36,10.12-2.6,2.99-5.7,5.61-9.16,7.55-3.39,1.91-7.16,3.16-11.06,3.36-2.24,.11-4.47-.17-6.67-.59-2.21-.42-4.44-.88-6.59-1.52-2.02-.6-3.93-1.46-5.58-2.77-1.69-1.34-3.05-3.04-4.41-4.7-1.37-1.68-2.6-3.41-3.31-5.48-.62-1.81-.95-3.93-.66-5.85-.06,.02-.12,.04-.17,.06-.84,.31-1.67,.65-2.5,.97-.38,.15-.76,.29-1.13,.44-.3,.12-.73,.21-.98,.45-.3,.29-.17,.76-.12,1.13,.06,.5,.14,1,.23,1.49,.59,3.2,2.1,5.97,4.01,8.57,3.23,4.41,7.53,8.12,12.54,10.35,2.59,1.16,5.37,1.86,8.2,2.09,3.42,.28,6.87,.03,10.28-.23,1.66-.12,3.33-.31,4.93-.78,1.56-.46,3.01-1.2,4.39-2.04,2.47-1.5,4.8-3.25,6.96-5.17,4.59-4.09,8.4-9.14,10.3-15.03-.05-.04-.11-.08-.17-.12Zm-119.01,76.26c2.3,1.97,4.68,3.85,7.03,5.77,4.61,3.77,9.13,7.71,13.97,11.18,2.48,1.78,5.1,3.39,7.9,4.62,2.64-2.01,5.06-4.32,7.19-6.86,.18-.21,.4-.2,.58-.08,1.11-9.41,2.2-18.82,3.14-28.25,1.12-11.32,2-22.66,2.42-34.02,.02-.65,1.03-.65,1.01,0-.75,20.28-2.98,40.47-5.36,60.61-2.38,20.22-4.74,40.43-6.25,60.74-.85,11.45-1.54,22.91-2.23,34.36,0,0,0,0,0,0,14.63-3.77,29.92-1.65,44.82-2.71,3.88-.28,7.73-.74,11.58-1.3,3.76-.56,7.52-1.11,11.33-1.24,7.48-.25,14.92,.78,22.31,1.79,8.35,1.14,16.79,2.27,25.23,1.52,.05,0,.09,0,.13,.02,1.39-20.19-.65-40.43-2.28-60.54-1.66-20.43-3.26-40.87-5.02-61.29-.99-11.51-2.06-23.01-3.33-34.49-.07-.64,.94-.64,1.01,0,2.25,20.37,3.88,40.81,5.54,61.24,.12,1.46,.24,2.92,.36,4.38,.98,1.17,1.97,2.35,2.95,3.52l1.42,1.7c.15,.18,.37,.57,.58,.68,.39,.21,.96-.33,1.27-.52,2.65-1.68,5.3-3.37,7.96-5.05l15.91-10.11c2.87-1.82,5.74-3.65,8.61-5.47-6.89-12.14-13.7-24.32-20.99-36.22-3.58-5.84-7.2-11.66-11.02-17.34-3.36-4.99-7.27-9.5-11.93-13.32-4.7-3.85-10.02-6.93-15.68-9.12-1.83,5.65-5.35,10.58-9.66,14.62-2.24,2.1-4.7,3.99-7.28,5.66-1.37,.88-2.8,1.68-4.32,2.26-1.64,.62-3.37,.91-5.11,1.09-3.69,.36-7.5,.62-11.21,.34-3.11-.23-6.11-.98-8.96-2.25-5.35-2.39-9.88-6.43-13.24-11.19-2.22-3.14-3.84-6.64-4.08-10.54,0-.15,0-.29,.02-.43-4.87,2.04-9.75,4.16-14.19,7.03-2.35,1.52-4.55,3.25-6.5,5.26-2.15,2.21-3.91,4.74-5.63,7.29-7.38,10.97-14.84,21.87-22.46,32.66-4.26,6.03-8.56,12.02-12.9,17.99,1.38,2.36,3.33,4.27,5.39,6.03Z"/>
    </g>
    <g>
      <path class="cls-2" d="M280.26,194.29c1.04-1.13,2.23-2.23,3.16-3.45,.74-.97,1.12-2.06,1.69-3.12,1.51-2.83,3.76-5.39,5.64-7.98,.25-.35,.54-.62,.84-.83l5.12-7.84c2.1-3.22,4.09-6.64,6.87-9.34,2.14-4,4.66-7.74,7.5-11.28,.07-.36,.2-.74,.42-1.11,.93-1.61,1.89-3.2,3.07-4.64,.88-1.07,2.04-1.86,2.92-2.91,1.07-1.29,1.7-2.81,2.91-4.05,1.24-1.27,2.65-2.39,4.06-3.46,6.11-4.65,13.25-7.02,20.36-9.69,.74-.64,1.76-.93,2.9-.62,.98,.27,1.88,.7,2.62,1.42,.19,.18,.35,.39,.5,.6,.46,.16,.89,.41,1.28,.73,1.22,1.03,2.94,2.11,4.37,2.71,.13,.05,.25,.11,.38,.18,.55-.05,1.13,.04,1.73,.32,1.27,.59,2.62,1.05,4.02,1.4,.06,0,.12-.01,.18-.02,3.83-.19,7.73,.28,11.55,.52,.23,.01,.45,.05,.66,.1,4.94-.58,9.84-1.26,14.71-2.22,.34-.27,.72-.49,1.15-.65,1.99-.75,3.91-1.52,5.69-2.7,.16-.1,.32-.19,.5-.25,.06-.1,.1-.17,.12-.2,.6-1.42,1.91-2.33,3.5-2.12,.95,.13,1.73,.65,2.23,1.38,.57,.34,1.06,.74,1.42,1.27,4.1,1.55,8.07,3.05,11.62,5.69,1.14,.85,2.42,1.83,3.6,2.94,2.35,1.64,4.65,3.36,6.72,5.32,2.94,2.78,5.13,6.22,7.43,9.53,2.1,3.03,4.24,5.99,5.53,9.42,.83,1.41,2.14,3.6,3.8,6.26,2.45,3.91,3.74,5.74,6.04,9.33,1.29,2.02,3.16,4.99,5.36,8.7,.23,.45,.42,.93,.5,1.42,.02,.12,.04,.25,.07,.37,.98,1.49,1.48,3.2,2.57,4.6,.82,1.05,1.65,1.74,2.07,3.06,.16,.52,.24,1.05,.24,1.59,.5,.75,.97,1.51,1.39,2.31,.12,.09,.24,.19,.3,.25,.17,.22,.34,.44,.51,.66,.11,.26,.22,.52,.33,.78,0,.03,.02,.07,.02,.1,.02,.02,.04,.03,.06,.05,.33,.16,.63,.36,.9,.63,.02,.02,.03,.04,.05,.06,.3,.24,.55,.53,.75,.87,.02,.03,.03,.06,.05,.09,.24,.38,.37,.78,.39,1.22,.1,.44,.08,.87-.06,1.31-.1,.43-.3,.8-.59,1.11-.23,.36-.54,.64-.92,.84-.26,.11-.52,.22-.78,.33-.37,.1-.74,.13-1.11,.1-.18,.1-.36,.2-.53,.31-.07,.05-.14,.1-.21,.15-.06,.05-.11,.1-.16,.15-.42,.62-1.02,1.09-1.76,1.2-.06,0-.11,.02-.17,.03-.4,.38-.86,.72-1.4,1.02-.94,.52-1.88,1.03-2.83,1.52-.27,.47-.69,.88-1.31,1.2-7.07,3.57-13.58,8.26-20.19,12.6-2.42,1.59-4.72-.56-4.8-2.82-.6-.25-1.13-.69-1.47-1.32-.18-.34-.32-.67-.43-1-.27-.12-.54-.27-.8-.41-.02,4.75,.53,9.5,.88,14.26,.45,.39,.78,.9,.9,1.53,.26,1.42,.43,2.87,.4,4.32,0,.46-.13,.92-.32,1.34,.69,8.98,1.37,17.97,2.06,26.95,.29,1.4,.39,2.87,.53,3.99,.49,3.92,.51,7.87,.57,11.81,.14,8.12,.27,16.24,.41,24.36,.04,2.6-2.42,3.59-4.34,2.99-.52,.17-1.11,.2-1.76,.05-.13-.03-.25-.05-.38-.08-.34,.1-.72,.14-1.15,.11-10.64-.76-21.25-3.41-31.94-3.12-.63,.02-1.17-.12-1.61-.35-3.35,.26-6.73-.11-10.09-.02-3.81,.11-7.55,.57-11.32,1.17-3.55,.57-7.05,.93-10.64,.99-1.79,.03-3.67,.18-5.52,.13-10.67,.94-21.45,.25-32.1,1.49-.38,.04-.72,.03-1.02-.03-.07,.05-.14,.11-.22,.15-.38,.24-.78,.37-1.22,.39-.44,.1-.87,.08-1.31-.06-.04-.02-.09-.04-.13-.05-.06,.07-.12,.14-.21,.18-.19,.09-.37,.2-.54,.32,0,0,0,0,0,0-.1,.08-.21,.16-.33,.19-.07,0-.13,.02-.2,.03-.1,0-.2-.02-.29-.07-.06-.02-.12-.05-.17-.1-.06-.03-.1-.08-.14-.14-.05-.05-.08-.1-.1-.17-.05-.09-.07-.19-.07-.29,.02-.35,.05-.7,.07-1.05,0-.1,.02-.2,.07-.29,.01-.04,.03-.08,.06-.12-.1-.25-.21-.49-.31-.74-.16-.58-.16-1.16,0-1.74,.12-.31,.23-.58,.36-.83-.04-.24-.05-.5-.03-.78,.19-2.61,.47-5.22,.8-7.82-.51-.52-.8-1.27-.71-2.27,.75-7.68,1.7-15.37,2.24-23.07,.26-3.71,.03-7.39,.48-11.09,.31-2.51,.47-5.44,1.43-7.91,.34-11.84,2.45-23.5,3.68-35.26-.27,.06-.55,.1-.87,.1,1.31,.01-.27,1.15-.8,1.69-.67,.67-1.47,1.19-2.12,1.88-1.16,1.23-1.74,2.86-3.51,3.4-3.42,1.05-7.58-2.97-9.99-4.89-1.42-1.14-2.77-2.36-4.04-3.66-.12-.06-.23-.13-.35-.21-3.92-2.6-7.27-5.9-11.09-8.61-1.97-1.4-4.27-3.1-5.71-5.22-1.21-.59-2.17-1.63-3.15-2.86-1.14-1.43-1.31-3.21,0-4.63Z"/>
      <path class="cls-1" d="M278.27,196.4c7.94-10.9,15.74-21.91,23.4-33.01,3.78-5.48,7.53-10.99,11.24-16.53,1.74-2.59,3.46-5.21,5.51-7.57,1.87-2.15,4.03-4.02,6.35-5.66,5.24-3.71,11.21-6.2,17.11-8.65,.15-.06,.28-.05,.37,.01,.79-.36,1.64-.64,2.45-.95,1.22-.48,3.27-1.7,4.42-.47,.07,.08,.1,.16,.12,.24,.66,.49,1.27,1.13,1.88,1.63,1.73,1.45,3.55,2.67,5.66,3.5,4.26,1.68,9,2.15,13.54,2.26,2.44,.06,4.88-.01,7.32-.17,2.41-.16,4.84-.34,7.22-.75,4.17-.72,8.12-2.39,11.52-4.91,.81-.61,1.59-1.27,2.33-1.96-.04-.33,.21-.69,.6-.54,1.76,.66,3.39,1.56,4.9,2.66,10.88,3.99,20.41,11.18,27.24,20.54,2.03,2.78,3.87,5.7,5.73,8.59,1.88,2.93,3.74,5.88,5.58,8.85,3.7,5.97,7.3,12.01,10.81,18.1,3.99,6.94,7.92,13.91,11.87,20.87,.08,.15,.08,.29,.04,.41,.1,.21,.08,.49-.18,.65-11.14,7.07-22.22,14.25-33.41,21.23-.56,.35-1.13,.55-1.69,.11-.61-.48-1.11-1.27-1.61-1.87-.88-1.05-1.77-2.11-2.65-3.16,.67,8.23,1.34,16.45,2.01,24.68,.83,10.21,1.74,20.41,2.37,30.63,.72,11.55,1.02,23.14,.15,34.69-.05,.64-1.06,.65-1.01,0,0-.02,0-.03,0-.05-.02,0-.04,.02-.07,.02-14.98,1.32-29.64-3.22-44.57-3.35-7.64-.07-15.1,1.6-22.68,2.32-7.57,.71-15.15,.63-22.75,.63-8.46,0-16.99,.21-25.22,2.37-.39,.1-.65-.24-.62-.55-.23-.02-.45-.17-.43-.48,1.23-20.42,2.48-40.83,4.59-61.18,1.08-10.4,2.33-20.78,3.56-31.17-2.14,2.51-4.55,4.77-7.18,6.76-.15,.15-.37,.23-.6,.13-5.26-2.25-9.79-5.81-14.19-9.4-4.88-3.97-9.78-7.91-14.61-11.94-2.38-1.99-4.68-4.13-6.24-6.84-.01-.03-.02-.05-.03-.08-.2-.13-.31-.38-.13-.63Zm111.28-66.29c-4.12,1.44-8.57,1.74-12.89,1.98-4.51,.25-9.05,.18-13.52-.5-4.1-.62-8.11-1.83-11.43-4.38-.87-.67-1.7-1.39-2.54-2.1-.17-.14-.97-.95-1.15-.85-.21,.11-.14,1.21-.13,1.5,.01,1.6,.34,3.2,.94,4.68,.1-.02,.21,0,.32,.08,5.01,3.28,10.89,4.87,16.79,5.51,6.05,.65,12.31,.59,18.3-.5,3.46-.63,6.86-1.65,10.04-3.15,.14-.07,.28-.06,.39-.02,1.49-1.89,2.75-3.96,3.52-6.22,.14-.42,.26-.84,.37-1.26-2.65,2.29-5.7,4.08-9.01,5.24Zm-39.99,1.86c.98,1.73,2.33,3.26,3.62,4.75,1.38,1.6,2.88,3.08,4.76,4.08,1.84,.98,3.89,1.5,5.91,1.96,2.23,.51,4.48,1.03,6.75,1.28,3.91,.42,7.8-.21,11.41-1.76,3.53-1.52,6.72-3.78,9.48-6.44,.65-.63,1.29-1.29,1.9-1.97-5.41,2.29-11.26,3.29-17.12,3.51-6.15,.23-12.47-.16-18.41-1.85-2.91-.83-5.72-1.99-8.31-3.56Zm54.17-5.55c-.05-.02-.1-.04-.15-.06-.14-.05-.23-.15-.29-.26-1.11-.78-2.29-1.45-3.54-1.97-.7,3.83-2.83,7.22-5.36,10.12-2.6,2.99-5.7,5.61-9.16,7.55-3.39,1.91-7.16,3.16-11.06,3.36-2.24,.11-4.47-.17-6.67-.59-2.21-.42-4.44-.88-6.59-1.52-2.02-.6-3.93-1.46-5.58-2.77-1.69-1.34-3.05-3.04-4.41-4.7-1.37-1.68-2.6-3.41-3.31-5.48-.62-1.81-.95-3.93-.66-5.85-.06,.02-.12,.04-.17,.06-.84,.31-1.67,.65-2.5,.97-.38,.15-.76,.29-1.13,.44-.3,.12-.73,.21-.98,.45-.3,.29-.17,.76-.12,1.13,.06,.5,.14,1,.23,1.49,.59,3.2,2.1,5.97,4.01,8.57,3.23,4.41,7.53,8.12,12.54,10.35,2.59,1.16,5.37,1.86,8.2,2.09,3.42,.28,6.87,.03,10.28-.23,1.66-.12,3.33-.31,4.93-.78,1.56-.46,3.01-1.2,4.39-2.04,2.47-1.5,4.8-3.25,6.96-5.17,4.59-4.09,8.4-9.14,10.3-15.03-.05-.04-.11-.08-.17-.12Zm-119.01,76.26c2.3,1.97,4.68,3.85,7.03,5.77,4.61,3.77,9.13,7.71,13.97,11.18,2.48,1.78,5.1,3.39,7.9,4.62,2.64-2.01,5.06-4.32,7.19-6.86,.18-.21,.4-.2,.58-.08,1.11-9.41,2.2-18.82,3.14-28.25,1.12-11.32,2-22.66,2.42-34.02,.02-.65,1.03-.65,1.01,0-.75,20.28-2.98,40.47-5.36,60.61-2.38,20.22-4.74,40.43-6.25,60.74-.85,11.45-1.54,22.91-2.23,34.36,0,0,0,0,0,0,14.63-3.77,29.92-1.65,44.82-2.71,3.88-.28,7.73-.74,11.58-1.3,3.76-.56,7.52-1.11,11.33-1.24,7.48-.25,14.92,.78,22.31,1.79,8.35,1.14,16.79,2.27,25.23,1.52,.05,0,.09,0,.13,.02,1.39-20.19-.65-40.43-2.28-60.54-1.66-20.43-3.26-40.87-5.02-61.29-.99-11.51-2.06-23.01-3.33-34.49-.07-.64,.94-.64,1.01,0,2.25,20.37,3.88,40.81,5.54,61.24,.12,1.46,.24,2.92,.36,4.38,.98,1.17,1.97,2.35,2.95,3.52l1.42,1.7c.15,.18,.37,.57,.58,.68,.39,.21,.96-.33,1.27-.52,2.65-1.68,5.3-3.37,7.96-5.05l15.91-10.11c2.87-1.82,5.74-3.65,8.61-5.47-6.89-12.14-13.7-24.32-20.99-36.22-3.58-5.84-7.2-11.66-11.02-17.34-3.36-4.99-7.27-9.5-11.93-13.32-4.7-3.85-10.02-6.93-15.68-9.12-1.83,5.65-5.35,10.58-9.66,14.62-2.24,2.1-4.7,3.99-7.28,5.66-1.37,.88-2.8,1.68-4.32,2.26-1.64,.62-3.37,.91-5.11,1.09-3.69,.36-7.5,.62-11.21,.34-3.11-.23-6.11-.98-8.96-2.25-5.35-2.39-9.88-6.43-13.24-11.19-2.22-3.14-3.84-6.64-4.08-10.54,0-.15,0-.29,.02-.43-4.87,2.04-9.75,4.16-14.19,7.03-2.35,1.52-4.55,3.25-6.5,5.26-2.15,2.21-3.91,4.74-5.63,7.29-7.38,10.97-14.84,21.87-22.46,32.66-4.26,6.03-8.56,12.02-12.9,17.99,1.38,2.36,3.33,4.27,5.39,6.03Z"/>
    </g>
    <g>
      <path class="cls-3" d="M78.57,196.49c1.04-1.13,2.23-2.23,3.16-3.45,.74-.97,1.12-2.06,1.69-3.12,1.51-2.83,3.76-5.39,5.64-7.98,.25-.35,.54-.62,.84-.83l5.12-7.84c2.1-3.22,4.09-6.64,6.87-9.34,2.14-4,4.66-7.74,7.5-11.28,.07-.36,.2-.74,.42-1.11,.93-1.61,1.89-3.2,3.07-4.64,.88-1.07,2.04-1.86,2.92-2.91,1.07-1.29,1.7-2.81,2.91-4.05,1.24-1.27,2.65-2.39,4.06-3.46,6.11-4.65,13.25-7.02,20.36-9.69,.74-.64,1.76-.93,2.9-.62,.98,.27,1.88,.7,2.62,1.42,.19,.18,.35,.39,.5,.6,.46,.16,.89,.41,1.28,.73,1.22,1.03,2.94,2.11,4.37,2.71,.13,.05,.25,.11,.38,.18,.55-.05,1.13,.04,1.73,.32,1.27,.59,2.62,1.05,4.02,1.4,.06,0,.12-.01,.18-.02,3.83-.19,7.73,.28,11.55,.52,.23,.01,.45,.05,.66,.1,4.94-.58,9.84-1.26,14.71-2.22,.34-.27,.72-.49,1.15-.65,1.99-.75,3.91-1.52,5.69-2.7,.16-.1,.32-.19,.5-.25,.06-.1,.1-.17,.12-.2,.6-1.42,1.91-2.33,3.5-2.12,.95,.13,1.73,.65,2.23,1.38,.57,.34,1.06,.74,1.42,1.27,4.1,1.55,8.07,3.05,11.62,5.69,1.14,.85,2.42,1.83,3.6,2.94,2.35,1.64,4.65,3.36,6.72,5.32,2.94,2.78,5.13,6.22,7.43,9.53,2.1,3.03,4.24,5.99,5.53,9.42,.83,1.41,2.14,3.6,3.8,6.26,2.45,3.91,3.74,5.74,6.04,9.33,1.29,2.02,3.16,4.99,5.36,8.7,.23,.45,.42,.93,.5,1.42,.02,.12,.04,.25,.07,.37,.98,1.49,1.48,3.2,2.57,4.6,.82,1.05,1.65,1.74,2.07,3.06,.16,.52,.24,1.05,.24,1.59,.5,.75,.97,1.51,1.39,2.31,.12,.09,.24,.19,.3,.25,.17,.22,.34,.44,.51,.66,.11,.26,.22,.52,.33,.78,0,.03,.02,.07,.02,.1,.02,.02,.04,.03,.06,.05,.33,.16,.63,.36,.9,.63,.02,.02,.03,.04,.05,.06,.3,.24,.55,.53,.75,.87,.02,.03,.03,.06,.05,.09,.24,.38,.37,.78,.39,1.22,.1,.44,.08,.87-.06,1.31-.1,.43-.3,.8-.59,1.11-.23,.36-.54,.64-.92,.84-.26,.11-.52,.22-.78,.33-.37,.1-.74,.13-1.11,.1-.18,.1-.36,.2-.53,.31-.07,.05-.14,.1-.21,.15-.06,.05-.11,.1-.16,.15-.42,.62-1.02,1.09-1.76,1.2-.06,0-.11,.02-.17,.03-.4,.38-.86,.72-1.4,1.02-.94,.52-1.88,1.03-2.83,1.52-.27,.47-.69,.88-1.31,1.2-7.07,3.57-13.58,8.26-20.19,12.6-2.42,1.59-4.72-.56-4.8-2.82-.6-.25-1.13-.69-1.47-1.32-.18-.34-.32-.67-.43-1-.27-.12-.54-.27-.8-.41-.02,4.75,.53,9.5,.88,14.26,.45,.39,.78,.9,.9,1.53,.26,1.42,.43,2.87,.4,4.32,0,.46-.13,.92-.32,1.34,.69,8.98,1.37,17.97,2.06,26.95,.29,1.4,.39,2.87,.53,3.99,.49,3.92,.51,7.87,.57,11.81,.14,8.12,.27,16.24,.41,24.36,.04,2.6-2.42,3.59-4.34,2.99-.52,.17-1.11,.2-1.76,.05-.13-.03-.25-.05-.38-.08-.34,.1-.72,.14-1.15,.11-10.64-.76-21.25-3.41-31.94-3.12-.63,.02-1.17-.12-1.61-.35-3.35,.26-6.73-.11-10.09-.02-3.81,.11-7.55,.57-11.32,1.17-3.55,.57-7.05,.93-10.64,.99-1.79,.03-3.67,.18-5.52,.13-10.67,.94-21.45,.25-32.1,1.49-.38,.04-.72,.03-1.02-.03-.07,.05-.14,.11-.22,.15-.38,.24-.78,.37-1.22,.39-.44,.1-.87,.08-1.31-.06-.04-.02-.09-.04-.13-.05-.06,.07-.12,.14-.21,.18-.19,.09-.37,.2-.54,.32,0,0,0,0,0,0-.1,.08-.21,.16-.33,.19-.07,0-.13,.02-.2,.03-.1,0-.2-.02-.29-.07-.06-.02-.12-.05-.17-.1-.06-.03-.1-.08-.14-.14-.05-.05-.08-.1-.1-.17-.05-.09-.07-.19-.07-.29,.02-.35,.05-.7,.07-1.05,0-.1,.02-.2,.07-.29,.01-.04,.03-.08,.06-.12-.1-.25-.21-.49-.31-.74-.16-.58-.16-1.16,0-1.74,.12-.31,.23-.58,.36-.83-.04-.24-.05-.5-.03-.78,.19-2.61,.47-5.22,.8-7.82-.51-.52-.8-1.27-.71-2.27,.75-7.68,1.7-15.37,2.24-23.07,.26-3.71,.03-7.39,.48-11.09,.31-2.51,.47-5.44,1.43-7.91,.34-11.84,2.45-23.5,3.68-35.26-.27,.06-.55,.1-.87,.1,1.31,.01-.27,1.15-.8,1.69-.67,.67-1.47,1.19-2.12,1.88-1.16,1.23-1.74,2.86-3.51,3.4-3.42,1.05-7.58-2.97-9.99-4.89-1.42-1.14-2.77-2.36-4.04-3.66-.12-.06-.23-.13-.35-.21-3.92-2.6-7.27-5.9-11.09-8.61-1.97-1.4-4.27-3.1-5.71-5.22-1.21-.59-2.17-1.63-3.15-2.86-1.14-1.43-1.31-3.21,0-4.63Z"/>
      <path class="cls-1" d="M76.59,198.6c7.94-10.9,15.74-21.91,23.4-33.01,3.78-5.48,7.53-10.99,11.24-16.53,1.74-2.59,3.46-5.21,5.51-7.57,1.87-2.15,4.03-4.02,6.35-5.66,5.24-3.71,11.21-6.2,17.11-8.65,.15-.06,.28-.05,.37,.01,.79-.36,1.64-.64,2.45-.95,1.22-.48,3.27-1.7,4.42-.47,.07,.08,.1,.16,.12,.24,.66,.49,1.27,1.13,1.88,1.63,1.73,1.45,3.55,2.67,5.66,3.5,4.26,1.68,9,2.15,13.54,2.26,2.44,.06,4.88-.01,7.32-.17,2.41-.16,4.84-.34,7.22-.75,4.17-.72,8.12-2.39,11.52-4.91,.81-.61,1.59-1.27,2.33-1.96-.04-.33,.21-.69,.6-.54,1.76,.66,3.39,1.56,4.9,2.66,10.88,3.99,20.41,11.18,27.24,20.54,2.03,2.78,3.87,5.7,5.73,8.59,1.88,2.93,3.74,5.88,5.58,8.85,3.7,5.97,7.3,12.01,10.81,18.1,3.99,6.94,7.92,13.91,11.87,20.87,.08,.15,.08,.29,.04,.41,.1,.21,.08,.49-.18,.65-11.14,7.07-22.22,14.25-33.41,21.23-.56,.35-1.13,.55-1.69,.11-.61-.48-1.11-1.27-1.61-1.87-.88-1.05-1.77-2.11-2.65-3.16,.67,8.23,1.34,16.45,2.01,24.68,.83,10.21,1.74,20.41,2.37,30.63,.72,11.55,1.02,23.14,.15,34.69-.05,.64-1.06,.65-1.01,0,0-.02,0-.03,0-.05-.02,0-.04,.02-.07,.02-14.98,1.32-29.64-3.22-44.57-3.35-7.64-.07-15.1,1.6-22.68,2.32-7.57,.71-15.15,.63-22.75,.63-8.46,0-16.99,.21-25.22,2.37-.39,.1-.65-.24-.62-.55-.23-.02-.45-.17-.43-.48,1.23-20.42,2.48-40.83,4.59-61.18,1.08-10.4,2.33-20.78,3.56-31.17-2.14,2.51-4.55,4.77-7.18,6.76-.15,.15-.37,.23-.6,.13-5.26-2.25-9.79-5.81-14.19-9.4-4.88-3.97-9.78-7.91-14.61-11.94-2.38-1.99-4.68-4.13-6.24-6.84-.01-.03-.02-.05-.03-.08-.2-.13-.31-.38-.13-.63Zm111.28-66.29c-4.12,1.44-8.57,1.74-12.89,1.98-4.51,.25-9.05,.18-13.52-.5-4.1-.62-8.11-1.83-11.43-4.38-.87-.67-1.7-1.39-2.54-2.1-.17-.14-.97-.95-1.15-.85-.21,.11-.14,1.21-.13,1.5,.01,1.6,.34,3.2,.94,4.68,.1-.02,.21,0,.32,.08,5.01,3.28,10.89,4.87,16.79,5.51,6.05,.65,12.31,.59,18.3-.5,3.46-.63,6.86-1.65,10.04-3.15,.14-.07,.28-.06,.39-.02,1.49-1.89,2.75-3.96,3.52-6.22,.14-.42,.26-.84,.37-1.26-2.65,2.29-5.7,4.08-9.01,5.24Zm-39.99,1.86c.98,1.73,2.33,3.26,3.62,4.75,1.38,1.6,2.88,3.08,4.76,4.08,1.84,.98,3.89,1.5,5.91,1.96,2.23,.51,4.48,1.03,6.75,1.28,3.91,.42,7.8-.21,11.41-1.76,3.53-1.52,6.72-3.78,9.48-6.44,.65-.63,1.29-1.29,1.9-1.97-5.41,2.29-11.26,3.29-17.12,3.51-6.15,.23-12.47-.16-18.41-1.85-2.91-.83-5.72-1.99-8.31-3.56Zm54.17-5.55c-.05-.02-.1-.04-.15-.06-.14-.05-.23-.15-.29-.26-1.11-.78-2.29-1.45-3.54-1.97-.7,3.83-2.83,7.22-5.36,10.12-2.6,2.99-5.7,5.61-9.16,7.55-3.39,1.91-7.16,3.16-11.06,3.36-2.24,.11-4.47-.17-6.67-.59-2.21-.42-4.44-.88-6.59-1.52-2.02-.6-3.93-1.46-5.58-2.77-1.69-1.34-3.05-3.04-4.41-4.7-1.37-1.68-2.6-3.41-3.31-5.48-.62-1.81-.95-3.93-.66-5.85-.06,.02-.12,.04-.17,.06-.84,.31-1.67,.65-2.5,.97-.38,.15-.76,.29-1.13,.44-.3,.12-.73,.21-.98,.45-.3,.29-.17,.76-.12,1.13,.06,.5,.14,1,.23,1.49,.59,3.2,2.1,5.97,4.01,8.57,3.23,4.41,7.53,8.12,12.54,10.35,2.59,1.16,5.37,1.86,8.2,2.09,3.42,.28,6.87,.03,10.28-.23,1.66-.12,3.33-.31,4.93-.78,1.56-.46,3.01-1.2,4.39-2.04,2.47-1.5,4.8-3.25,6.96-5.17,4.59-4.09,8.4-9.14,10.3-15.03-.05-.04-.11-.08-.17-.12Zm-119.01,76.26c2.3,1.97,4.68,3.85,7.03,5.77,4.61,3.77,9.13,7.71,13.97,11.18,2.48,1.78,5.1,3.39,7.9,4.62,2.64-2.01,5.06-4.32,7.19-6.86,.18-.21,.4-.2,.58-.08,1.11-9.41,2.2-18.82,3.14-28.25,1.12-11.32,2-22.66,2.42-34.02,.02-.65,1.03-.65,1.01,0-.75,20.28-2.98,40.47-5.36,60.61-2.38,20.22-4.74,40.43-6.25,60.74-.85,11.45-1.54,22.91-2.23,34.36,0,0,0,0,0,0,14.63-3.77,29.92-1.65,44.82-2.71,3.88-.28,7.73-.74,11.58-1.3,3.76-.56,7.52-1.11,11.33-1.24,7.48-.25,14.92,.78,22.31,1.79,8.35,1.14,16.79,2.27,25.23,1.52,.05,0,.09,0,.13,.02,1.39-20.19-.65-40.43-2.28-60.54-1.66-20.43-3.26-40.87-5.02-61.29-.99-11.51-2.06-23.01-3.33-34.49-.07-.64,.94-.64,1.01,0,2.25,20.37,3.88,40.81,5.54,61.24,.12,1.46,.24,2.92,.36,4.38,.98,1.17,1.97,2.35,2.95,3.52l1.42,1.7c.15,.18,.37,.57,.58,.68,.39,.21,.96-.33,1.27-.52,2.65-1.68,5.3-3.37,7.96-5.05l15.91-10.11c2.87-1.82,5.74-3.65,8.61-5.47-6.89-12.14-13.7-24.32-20.99-36.22-3.58-5.84-7.2-11.66-11.02-17.34-3.36-4.99-7.27-9.5-11.93-13.32-4.7-3.85-10.02-6.93-15.68-9.12-1.83,5.65-5.35,10.58-9.66,14.62-2.24,2.1-4.7,3.99-7.28,5.66-1.37,.88-2.8,1.68-4.32,2.26-1.64,.62-3.37,.91-5.11,1.09-3.69,.36-7.5,.62-11.21,.34-3.11-.23-6.11-.98-8.96-2.25-5.35-2.39-9.88-6.43-13.24-11.19-2.22-3.14-3.84-6.64-4.08-10.54,0-.15,0-.29,.02-.43-4.87,2.04-9.75,4.16-14.19,7.03-2.35,1.52-4.55,3.25-6.5,5.26-2.15,2.21-3.91,4.74-5.63,7.29-7.38,10.97-14.84,21.87-22.46,32.66-4.26,6.03-8.56,12.02-12.9,17.99,1.38,2.36,3.33,4.27,5.39,6.03Z"/>
    </g>
  </g>
</svg>